<svg width="205" height="172" viewBox="0 0 205 172" fill="none" xmlns="http://www.w3.org/2000/svg">
<path d="M87.9819 40.3194C81.5901 45.4524 80.3793 47.1916 81.648 49.4912C83.279 52.4478 85.8877 51.8657 95.4096 46.5057C104.054 41.5226 104.432 41.4211 103.955 43.5057C103.507 45.2522 101.571 46.8561 94.1437 51.489C89.167 54.663 84.2052 58.2573 83.267 59.3104C81.2317 61.7187 71.0064 67.5739 70.4627 66.5883C70.2815 66.2598 70.2682 63.4819 70.376 60.5301C70.6146 54.0782 70.4259 53.5395 68.2629 54.7328C67.0982 55.3753 66.5752 57.3778 66.4897 60.96C66.494 65.8854 66.2972 66.3153 63.7413 67.1897C59.9679 68.4143 59.7941 68.296 60.6959 65.0133C62.0449 59.9841 60.1776 59.943 57.0444 64.8852C56.1211 66.3587 53.8214 68.4843 52.1649 69.6124C50.1304 70.8419 48.829 72.4168 48.624 73.8154C48.3736 75.1319 47.9272 75.6995 47.3605 75.2623C46.1364 74.2236 43.6398 76.7792 43.6762 79.0088C43.6746 81.3663 37.447 89.9439 34.6184 91.5043C30.2924 93.8908 21.2599 102.302 20.9034 104.212C20.6679 105.949 21.2346 106.386 25.2107 107.299C29.2321 108.295 30.1167 108.128 33.0515 105.973C34.9575 104.708 37.076 102.254 37.7802 100.58C39.1886 97.2316 41.7149 95.5166 44.7387 95.8838C46.6135 96.1351 46.7041 96.2993 46.1804 99.4806C45.1634 105.505 49.2508 109.57 52.3684 105.387C53.3444 104.206 54.2447 103.28 54.5017 103.353C54.7587 103.425 55.2407 106.266 55.5258 109.537C56.0063 114.735 55.718 116.179 53.5765 119.182C50.8222 122.844 51.0464 126.791 54.0629 126.948C56.4442 127.134 65.0814 121.941 66.8144 119.378C68.5853 116.687 70.0175 111.612 70.3154 106.841C70.5294 103.295 71.3309 103.174 76.2585 105.812C78.2914 106.94 81.6926 108.385 83.9224 109.083C87.2256 110.153 88.1852 110.909 88.8566 113.11C91.0521 120.04 99.2578 115.835 99.2253 107.711C99.2127 103.754 99.7349 102.931 101.526 104.407C102.357 105.126 103.952 104.675 107.28 102.839C111.689 100.407 111.901 100.397 111.93 102.416C111.928 104.774 109.508 105.895 103.747 106.073C100.912 106.245 100.579 106.428 100.268 108.421C99.9033 111.301 103.642 116.308 106.855 117.214C109.296 117.902 109.387 118.067 110.302 129.56C110.91 135.973 111.874 141.655 112.486 142.174C113.317 142.894 114.792 142.616 117.121 141.331C121.198 139.082 122.243 136.256 121.643 128.874C121.41 125.896 122.005 118.712 123.029 112.898C125.268 99.4502 125.904 86.2444 124.692 78.3431C123.451 69.6012 122.385 69.4393 110.224 75.7196C100.143 80.8525 95.1049 84.7029 89.3771 91.8263L85.6393 96.4592L80.8395 95.0364C78.2241 94.2296 75.5331 93.6788 74.7316 93.7996C73.8469 93.9662 73.3181 93.401 73.0091 91.8574L72.5494 89.6472L75.9736 90.5434C80.2973 91.6933 84.6308 89.5169 84.6026 86.3187C84.6569 84.2534 84.8233 84.1616 86.7887 84.5771C88.2854 84.9298 90.5917 84.1931 93.8362 82.4032C96.4984 80.9346 98.2759 79.6327 97.8904 79.524C97.4596 79.3331 96.9991 78.3017 97.0452 77.205C97.0163 75.1856 96.8046 75.1953 93.1285 77.9731C90.4433 79.9901 88.6056 80.7896 87.4112 80.5915C81.7341 79.5455 85.8738 73.0839 91.5888 74.0019C93.3351 74.2169 95.989 73.7169 97.6982 72.8812C99.3621 71.9633 102.372 70.7314 104.383 70.0502C107.363 69.1565 107.62 69.229 105.918 70.2749C104.216 71.3208 103.86 72.0527 104.54 73.2847C105.22 74.5166 106.028 74.606 107.776 73.6422C110.725 71.9079 119.53 65.444 122.155 62.9246C123.963 61.2844 124.257 61.2289 124.052 62.6275C123.453 66.0648 125.499 69.9708 128.469 71.2245C132.173 72.8236 143.316 73.7465 148.889 73.0292C155.262 72.191 153.56 74.4157 143.372 80.1429L134.433 85.1816L135.679 88.0296C137.347 92.037 140.385 92.8245 146.382 90.9091C151.668 89.2786 156.259 85.9959 163.711 78.4571C167.191 74.9304 167.607 74.701 170.956 74.6744C176.634 74.5416 187.972 77.3921 192.431 79.9672C194.6 81.3417 197.737 82.5036 199.309 82.6002C201.902 82.7766 202.235 82.593 203.469 80.3055C204.188 79.0518 204.514 77.4793 204.242 76.9865C203.472 75.5903 197.132 70.1963 195.281 69.3968C192.484 68.2614 177.864 66.15 174.053 66.3239C169.782 66.6451 169.124 66.0436 170.774 63.5267C172.386 61.1377 170.906 58.8477 166.953 57.3863C163.99 56.3427 163.528 56.4901 162.484 58.1374C160.569 61.5506 158.089 62.169 150.802 61.1543C142.494 60.06 131.463 59.9318 127.894 60.9366C124.408 61.8956 124.167 61.0646 126.936 57.823C128.199 56.3761 129.925 53.6031 130.622 51.7189C132.841 46.1028 129.645 43.2596 126.33 47.8733C123.417 51.8372 109.96 63.4389 109.416 62.4534C109.28 62.207 109.689 60.5886 110.431 58.7866C111.469 55.7503 113.058 53.9096 118.61 49.0254C120.91 46.8998 122.417 42.7475 121.42 40.9406C121.013 40.2015 119.516 39.8488 117.996 40.0444L115.38 40.4164L116.358 36.8776C117.002 34.7012 118.447 32.404 120.18 31.0199C121.791 29.8098 123.327 27.6769 123.66 26.3145C124.252 23.8458 124.206 23.7637 120.737 22.7853L117.267 21.807L115.334 29.515C114.251 33.648 112.287 41.6942 110.87 47.1895C109.46 52.895 107.453 58.5015 106.197 60.1586C104.978 61.6876 103.791 62.8785 103.579 62.8881C102.763 62.5886 104.856 52.221 108.335 39.0539L111.92 25.2926L102.98 30.3313C98.0341 33.1671 91.2799 37.643 87.9819 40.3194ZM104.067 33.4812C105.791 33.0657 106.139 33.3025 105.934 34.7011C105.6 36.0634 103.323 37.6408 95.1631 41.9283C86.8364 46.3076 84.9155 47.153 85.1659 45.8365C85.5982 43.6698 99.4016 34.6623 104.067 33.4812ZM58.1197 73.7189C58.6181 74.6223 57.8842 75.4557 55.7212 76.6489C52.681 78.219 52.5525 78.1827 53.4609 76.289C54.7631 73.5353 57.2589 72.1584 58.1197 73.7189ZM65.3642 71.115C65.5907 71.5256 65.2267 73.2262 64.6131 75.0644C63.7269 77.5887 63.4395 77.8544 63.2211 76.4751C63.1008 75.4702 62.6708 74.1006 62.3083 73.4436C61.9458 72.7865 62.4227 71.8807 63.3378 71.3759C64.253 70.871 65.1829 70.7865 65.3642 71.115ZM101.09 53.6558C100.884 57.412 92.8139 61.8638 91.2735 59.0714C90.911 58.4144 93.5056 56.2331 98.1948 53.3249C100.978 51.6823 101.235 51.7548 101.09 53.6558ZM52.0889 81.8665L54.8706 82.5815L51.8229 83.9414C49.1912 85.0719 48.9112 85.5477 49.5224 87.2459C50.5036 89.8112 49.0514 90.7194 47.7828 88.4198C47.2844 87.5164 47.3008 85.5791 47.8839 84.0791C49.0881 80.9509 48.8385 81.0886 52.0889 81.8665ZM116.693 45.1557C116.67 45.704 116.064 46.5736 115.399 46.9408C114.733 47.3079 114.007 47.1726 113.781 46.762C113.509 46.2692 114.076 45.5277 115.075 44.9769C115.99 44.4721 116.67 44.5252 116.693 45.1557ZM84.1775 65.8783C84.7212 66.8639 83.9799 67.4871 80.8111 69.0209C75.1392 71.7214 73.719 69.9339 79.2097 66.9049C82.4543 65.115 83.6338 64.8928 84.1775 65.8783ZM33.4639 99.6399C32.2598 102.768 28.7805 105.116 27.8291 103.391C27.1495 102.159 28.7457 100.529 32.5652 98.2074L34.5997 96.9779L33.4639 99.6399ZM62.074 84.8208C62.1483 86.9223 60.8922 88.5794 60.2126 87.3475C59.7595 86.5262 60.9644 82.2192 61.5237 82.4463C61.8639 82.4729 62.158 83.5961 62.074 84.8208ZM77.6987 76.9511C79.5348 78.5092 80.5464 80.7363 80.7788 83.7147C81.064 86.9854 79.4833 87.8574 76.2864 86.193C72.7872 84.3741 71.7326 78.5284 74.5612 76.968C75.5595 76.4173 77.0413 76.3497 77.6987 76.9511ZM99.7826 64.6611C100.553 66.0573 98.9863 68.5284 97.656 68.0839C97.1873 68.0211 97.2334 66.9244 97.786 65.7625C98.9671 63.1828 98.9671 63.1828 99.7826 64.6611ZM55.3405 92.2848C55.4765 92.5312 55.3702 93.1254 55.007 93.6471C54.727 94.123 54.2204 94.1882 53.9938 93.7776C53.722 93.2848 53.9114 92.6447 54.3274 92.4152C54.8265 92.1398 55.2499 92.1205 55.3405 92.2848ZM68.8451 89.2269C69.0256 90.7342 68.8963 91.8767 68.4276 91.8139C67.9968 91.6231 67.4762 90.0892 67.3715 88.3258C66.9356 84.3885 68.2807 85.2533 68.8451 89.2269ZM52.4784 98.8985C52.705 99.3092 52.3039 99.959 51.6383 100.326C50.3904 101.015 49.4308 100.258 49.8475 98.8502C50.1506 97.826 51.8894 97.8308 52.4784 98.8985ZM63.627 91.5699C63.8536 91.9805 63.7473 92.5748 63.3314 92.8042C62.8322 93.0796 62.0233 92.9902 61.5472 92.7172C61.0258 92.3622 61.1773 91.8501 61.8429 91.4829C62.5916 91.0698 63.3552 91.0771 63.627 91.5699ZM64.2887 97.0967C64.5457 97.1691 64.7114 98.2561 64.7559 99.5171L64.7543 101.875L62.3663 100.3C61.0212 99.4349 59.8877 98.5604 59.7518 98.3141C59.5706 97.9855 63.4345 96.9252 64.2887 97.0967ZM75.3034 97.9833C79.847 98.1549 84.8578 100.747 85.5366 103.158C86.1397 105.824 85.3761 105.817 79.6776 102.962C76.8283 101.534 73.2154 100.099 71.5976 99.9205C68.9519 99.4519 68.7327 99.2514 68.455 96.1909L68.1246 92.8381L69.824 95.3286C71.0778 97.2079 72.4987 97.8166 75.3034 97.9833ZM138.311 62.903C141.962 63.0311 148.003 63.5554 151.669 64.1037C158.321 65.1473 161.724 64.2343 163.896 60.8936C164.781 59.5482 165.371 59.4371 167.019 60.4564C168.319 61.2391 168.726 61.9783 168.318 62.4179C167.909 62.8575 167.19 64.1112 166.721 65.2272C165.419 67.9809 167.754 69.2635 174.112 69.1839C183.23 69.1889 194.508 71.5369 196.926 73.9525C198.24 75.1555 199.865 76.7232 200.605 77.2788C203.575 79.7113 199.213 79.8682 194.466 77.5589C187.816 74.1577 178.11 71.9063 171.457 72.0415L165.99 72.1646L162.268 76.0391C155.437 83.1287 148.486 88.0346 144.062 88.8679C141.28 89.3316 139.7 89.0248 138.899 87.9668C137.698 86.3798 137.986 86.1141 147.5 80.5439C153.354 76.9931 157.491 74.068 157.719 73.2998C158.476 70.7393 154.909 69.3866 149.805 70.1667C144.112 71.058 131.434 69.9105 128.917 68.2993C127.444 67.3982 127.384 66.8958 128.602 65.3668C130.841 62.7387 131.008 62.6469 138.311 62.903ZM60.6252 103.831C60.8517 104.242 60.7373 105.805 60.4112 107.377L59.9179 110.22L59.421 106.959C58.8937 104.036 59.6737 102.106 60.6252 103.831ZM101.999 85.3986C102.362 86.0557 101.453 87.9494 100.031 89.6983C96.0814 94.3409 94.1731 99.143 95.1386 102.467C95.8776 105.38 95.8323 105.298 92.8256 101.815C89.9021 98.2854 89.8115 98.1212 91.0988 94.9472C93.764 88.7634 100.55 82.7705 101.999 85.3986ZM120.339 76.3526C121.2 77.9131 122.425 88.5922 121.985 90.5488C121.773 91.7373 121.408 94.6166 121.157 97.1119C120.906 99.6071 119.926 106.682 119 112.871C118.073 119.06 117.494 126.664 117.605 129.816C117.821 134.732 116.919 138.014 115.506 137.616C114.863 137.435 113.182 118.651 113.591 117.033C114.235 114.856 112.437 113.17 109.859 113.414C108.422 113.564 106.873 112.919 106.42 112.098C105.604 110.619 105.937 110.436 110.338 108.972C114.951 107.499 115.117 107.407 115.717 103.97C115.99 102.105 116.18 100.286 115.999 99.9573C115.274 98.6433 116.362 87.4375 117.553 82.7103C118.348 80.0218 118.766 77.4348 118.584 77.1062C118.403 76.7777 118.638 76.2197 119.054 75.9903C119.553 75.7149 120.067 75.8598 120.339 76.3526ZM113.218 86.0655C112.603 90.2613 112.52 90.3072 106.447 93.6575C99.5419 97.4667 97.9999 97.0319 101.692 92.3168C104.174 89.3408 112.639 81.6716 113.493 81.8431C113.622 81.8793 113.605 83.8166 113.218 86.0655ZM64.3693 112.585C64.3686 113.764 63.876 115.428 63.2328 116.426C61.3408 119.291 60.6093 116.588 62.4485 113.431C64.2803 110.063 64.3634 110.017 64.3693 112.585ZM95.1719 109.412C95.7156 110.397 93.8392 112.503 92.887 111.958C92.4109 111.685 92.139 111.192 92.2906 110.68C92.6315 109.527 94.7188 108.59 95.1719 109.412Z" fill="white"/>
<path d="M162.791 4.4062C162.595 4.83616 163.251 6.61643 164.157 8.25902C165.199 10.148 165.485 12.2399 165.121 13.9404C164.667 15.4767 164.288 16.7569 164.121 16.8487C164.038 16.8946 161.301 17.4405 158.057 18.0516C147.562 19.8776 144.129 21.1288 142.782 23.8004C142.063 25.0541 141.691 26.5445 141.918 26.9551C142.144 27.3658 145.599 27.9238 149.636 28.1606L156.901 28.5447L155.887 31.0327C154.948 33.2647 154.448 33.5401 150.993 34.1608C142.857 35.5424 139.43 39.3614 144.176 41.6707C145.771 42.3978 147.291 42.2021 149.703 40.8712C153.281 38.8977 153.931 39.2891 153.301 43.0646C152.8 45.6975 152.717 45.7434 146.713 47.4487C138.902 49.6154 135.907 51.2676 136.102 53.1952C136.426 55.159 140.591 56.6108 142.67 55.4635C143.502 55.0045 146.829 54.3475 150.08 53.9466C158.526 52.9298 162.67 51.3935 164.176 48.42C164.895 47.1663 165.086 45.3474 164.587 44.444C163.817 43.0478 164.263 42.4801 167.258 40.8279C169.754 39.4511 171.063 38.0863 171.434 36.596C172.139 33.7432 171.777 33.0862 168.988 32.161C165.813 31.1271 166.661 29.9096 172.703 26.8975C177.165 24.7574 178.111 23.9144 178.626 21.7017C179.187 19.5712 178.953 18.9504 177.487 18.2596C173.995 16.6508 173.542 15.8295 174.126 13.1506C174.497 11.6602 174.559 9.8051 174.197 9.14807C173.834 8.49103 172.815 6.05373 171.925 3.65266C170.506 -0.492447 170.378 -0.528677 168.131 0.710473C166.301 1.72015 166.187 2.10422 167.435 2.59459C169.626 3.42074 172.222 10.88 171.298 13.5323C170.291 16.2304 171.612 18.8223 174.19 19.7572C177.667 20.9457 176.554 23.0593 171.73 24.5424C168.077 25.5931 166.958 26.3177 164.362 29.6777L161.275 33.5232L165.501 34.2987C170.324 35.1732 170.135 35.8133 163.66 39.8134C159.803 42.2627 159.682 42.4366 160.996 44.8184C162.31 47.2001 162.189 47.374 159.02 48.9079C155.556 50.4973 144.094 52.5358 143.595 51.6324C143.414 51.3039 145.758 50.4392 148.654 49.5913C153.312 48.2 154.228 47.6952 155.265 45.8377C156.771 42.8641 156.735 39.4558 155.104 37.6779C154.182 36.7938 154.205 36.2455 155.089 36.0788C157.033 35.8639 160.303 28.8105 159.352 27.0858C158.808 26.1002 156.283 25.4577 152.42 25.3392C142.146 25.0082 143.999 23.4502 158.033 20.9575C166.206 19.4479 167.772 18.1556 167.957 12.5901C168.21 7.73731 163.769 0.867426 162.791 4.4062ZM149.207 37.6102C148.715 38.0957 147.55 38.7382 146.711 38.987C145.743 39.1996 146.151 38.76 147.483 38.0257C148.897 37.2455 149.57 37.0885 149.207 37.6102ZM142.378 51.9827C142.264 52.3667 141.561 52.8619 140.842 52.9368C140.041 53.0575 140.155 52.6735 141.07 52.1686C141.94 51.5817 142.575 51.5527 142.378 51.9827Z" fill="white"/>
<path d="M31.5321 116.988C31.6829 117.655 32.211 119.399 32.8148 120.887C33.2902 122.338 34.1651 125.498 34.7986 127.827C35.4322 130.155 36.6325 132.921 37.5617 134.015L39.3294 136.04L32.0085 140.078C28.0152 142.281 22.4183 145.904 19.4456 148.187C16.5561 150.424 10.9138 153.965 7.00378 156.122C-0.816345 160.436 -1.13427 161.04 1.44828 165.721C3.80428 169.992 6.59264 172.096 9.72273 171.869C12.006 171.681 12.9137 170.966 15.7134 167.386C21.4337 160.052 25.7152 156.405 37.0072 149.533C45.5991 144.257 49.3502 142.402 54.3484 141.038C64.9725 138.069 69.193 135.098 67.3807 131.813C65.4325 128.281 55.8387 128.003 49.932 131.262C48.1018 132.271 47.9733 132.235 44.6139 124.769C41.2618 117.512 41.1259 117.266 37.4299 115.877C33.6053 114.452 31.163 114.942 31.5321 116.988ZM41.3842 126.979C42.7204 129.991 43.452 132.694 43.036 132.924C41.7881 133.612 39.4618 130.182 38.2549 126.027C35.7957 117.635 37.6779 118.097 41.3842 126.979ZM52.8407 134.371C56.3192 133.202 60.1148 132.607 61.2713 132.933C63.1988 133.477 63.2441 133.559 61.9962 134.248C61.2475 134.661 57.769 135.83 54.1999 136.834C49.1185 138.245 45.1178 140.238 35.1495 146.166C22.6929 153.68 17.2088 158.098 13.5007 163.572C10.1559 168.524 7.02576 168.751 5.75868 164.093C4.88376 160.934 40.598 138.339 52.8407 134.371Z" fill="white"/>
<path d="M25.515 161.55C25.7482 163.349 29.4509 166.127 30.6156 165.485C31.1147 165.209 31.3799 164.313 31.267 163.518C31.019 161.298 32.3196 160.902 32.8626 163.067C33.3602 165.149 36.6797 164.282 44.583 159.922C54.067 154.69 59.1968 148.646 55.1984 147.103C53.2635 146.349 49.4143 147.83 35.7485 154.726C27.1269 159.161 25.3419 160.252 25.515 161.55ZM45.6297 154.738C44.6388 155.499 42.975 156.417 41.886 156.803C40.7139 157.236 41.4552 156.612 43.535 155.465C45.6149 154.318 46.5374 154.023 45.6297 154.738Z" fill="white"/>
<path d="M169.218 84.3096C169.445 84.7203 171.861 89.4934 174.639 94.9236L179.57 104.844L182.269 104.427C183.789 104.231 186.511 103.265 188.303 102.383C191.472 100.849 191.669 100.419 191.021 97.6703C190.463 95.0857 189.67 94.2378 185.906 92.1362C183.442 90.8173 179.195 88.2326 176.376 86.4668C171.865 83.5995 168.221 82.5028 169.218 84.3096ZM182.556 93.3415C189.834 96.5036 190.581 99.6269 184.486 101.168C181.711 101.842 181.537 101.723 178.683 96.5493C175.693 91.1288 174.84 88.5997 176.638 90.2858C177.25 90.8051 179.888 92.2424 182.556 93.3415Z" fill="white"/>
</svg>
