<svg width="214" height="194" viewBox="0 0 214 194" fill="none" xmlns="http://www.w3.org/2000/svg">
<path d="M170.935 9.11287C167.355 7.78132 161.854 5.23449 158.578 3.31144C150.774 -1.05796 149.746 -1.08163 149.674 3.10622C149.578 6.01848 149.734 6.12615 151.004 4.82829C152.086 3.63022 153.736 4.08459 163.518 8.4475C173.167 12.8334 176.754 14.9718 190.26 24.5469C205.766 35.3911 208.629 38.0593 209.662 42.3246C210.065 44.2075 209.792 44.5915 208.15 44.944C203.004 46.3087 196.609 53.6816 192.54 63.0078C190.506 67.6708 190.046 68.1547 187.555 68.7218C182.97 69.7871 179.514 68.7707 173.523 64.6252C170.411 62.4717 163.136 58.0105 157.308 54.7795C149.115 50.141 146.477 49.1173 145.877 49.9622C145.277 50.8071 146.257 51.7145 151.564 54.6992C159.446 59.1224 179.372 71.4216 179.154 71.7289C178.991 71.9593 170.138 76.2571 165.233 78.5901C163.528 79.3575 161.761 79.3948 160.749 78.6949C158.882 77.4028 154.966 78.0152 153.712 79.7818C151.803 82.4701 145.995 85.0946 139.752 86.0436C132.053 87.2453 129.773 86.6983 129.206 83.9009C128.694 81.0267 127.652 80.5343 126.179 82.6081C122.962 87.1399 127.902 91.131 136.036 90.4597C144.171 89.7885 149.083 88.2623 153.725 84.8303C157.182 82.4119 158.272 82.0207 160.357 83.0055C162.443 83.9904 164.568 83.2847 174.565 78.5189C182.616 74.6971 186.844 73.1551 188.042 73.7552C191.847 75.5864 186.683 81.0621 178.337 83.9924C173.635 85.5494 173.043 86.0562 168.953 91.8169C162.705 100.781 161.278 104.261 163.534 105.822C164.546 106.522 166.437 106.8 167.815 106.493C170.306 105.926 173.621 107.303 172.694 108.609C172.421 108.993 169.549 110.098 166.31 111.064C160.284 112.851 156.974 115.715 158.53 117.937C160.031 120.235 157.797 119.95 152.825 117.311C144.989 113.149 144.351 113.395 138.593 121.667C135.867 125.507 133.701 129.048 133.77 129.44C133.895 129.756 136.284 130.149 139.156 130.189C145.453 130.308 156.672 126.273 158.962 123.047C159.889 121.741 160.746 121.189 160.995 121.819C161.57 123.133 158.298 127.742 155.573 129.292C153.727 130.421 153.337 131.297 153.304 134.939C153.248 137.306 153.036 139.565 152.818 139.872C152.6 140.179 146.21 139.537 138.645 138.426C126.667 136.667 124.558 136.696 121.91 138.301C117.923 140.811 115.874 143.86 117.353 144.883C118.053 145.368 120.1 145.753 121.921 145.639C123.82 145.579 125.836 146.172 126.505 146.864C127.508 147.902 126.87 148.147 123.103 148.06C119.546 148.004 117.662 147.389 115.593 145.728C113.757 144.228 112.372 143.728 111.437 144.227C103.246 148.409 92.8666 154.858 89.0971 158.206C88.2093 158.966 86.3719 159.756 84.8929 159.878C82.4097 160.108 82.4097 160.107 84.0683 159.079C90.1653 155.394 104.907 143.946 107.75 140.759C111.325 136.704 111.442 137.357 106.136 133.227C103.522 131.189 105.192 124.098 108.22 124.246C108.85 124.338 111.615 121.097 114.451 117.103L119.523 109.96L123.446 110.154C130.132 110.543 134.149 108.97 137.203 104.669C139.93 100.828 141.045 97.1327 139.722 96.2175C139.333 95.9483 136.679 95.6009 133.651 95.453C130.203 95.2435 126.904 94.3347 124.616 92.9809C121.628 91.1425 120.733 91.0959 119.861 92.3248C118.934 93.6306 119.291 94.1072 123.267 96.5148C125.866 98.084 129.08 99.277 131.213 99.3782C135.766 99.6653 135.945 99.9036 134.091 102.515C132.237 105.127 127.986 106.538 122.748 106.235C117.93 105.994 116.24 107.23 111.643 114.358C109.235 118.076 107.311 120.295 106.198 120.556C105.03 120.893 103.597 122.422 102.304 124.734C100.293 128.383 100.239 128.459 98.138 127.006C96.1151 125.606 77.166 118.794 71.2435 117.33C68.7531 116.753 68.5117 116.929 66.8204 120.455C65.9006 122.568 64.9728 125.018 64.7154 125.871C64.2159 128.046 63.9047 127.83 62.1399 124.433C60.3752 121.035 58.6635 119.851 55.0365 119.403C49.0203 118.562 47.2294 119.613 42.6092 126.611C40.233 130.121 36.8054 134.622 34.9126 136.634C32.1241 139.744 31.2443 140.166 29.758 139.482C28.7153 138.989 27.3687 139.088 26.7223 139.672C25.7799 140.509 26.7979 143.161 30.8409 150.54C34.3551 156.866 35.925 160.702 35.3252 161.546C34.8889 162.161 32.1331 162.774 29.3387 162.788C20.0838 162.913 16.4991 169.596 25.5592 169.909C28.5637 169.926 28.6415 169.98 26.7335 171.523C15.7452 180.299 12.9567 183.41 13.4453 186.153C13.8874 188.636 16.8832 190.136 22.4792 190.915L27.6004 191.71L29.1128 187.946C30.1264 185.211 32.0584 182.653 36.1942 178.299C39.3565 174.989 42.0825 172.293 42.3472 172.247C42.534 172.147 43.2183 173.308 43.8167 174.753C44.6871 176.959 44.4763 178.073 42.513 180.838C40.5498 183.603 39.8801 184.056 38.6353 183.195C37.8572 182.657 36.3084 182.387 35.273 182.701C33.6537 183.184 33.4588 183.622 34.1424 185.928C35.2374 189.778 37.5788 192.2 40.8087 192.717L43.6184 193.172L41.4639 190.65C39.9005 188.767 39.7064 188.06 40.8974 187.853C41.6914 187.715 43.2257 186.371 44.3396 184.966L46.3806 182.254L45.5459 185.228C45.1635 186.91 45.0297 189.223 45.2391 190.399C45.5336 192.436 45.8761 192.443 49.1773 191.062C51.1471 190.249 54.1443 189.459 55.9657 189.345C57.7327 189.308 60.4732 188.226 61.9529 186.959C65.4729 184.126 68.3058 184.711 65.2061 187.607C63.1033 189.588 63.1265 189.718 65.4381 190.058C69.1894 190.821 71.3002 188.502 70.3607 184.759C69.5223 181.201 68.2309 180.078 65.5296 180.614C63.8092 180.913 63.5758 180.751 64.0048 179.33C64.1844 178.423 65.3914 177.54 66.637 177.257C68.9413 176.789 69.1747 176.951 72.5719 183.769C76.4512 191.379 77.2991 192.309 79.6811 191.895C80.8722 191.689 80.7405 190.567 78.898 187.115L76.6591 182.588L79.8919 178.525C82.7975 174.923 83.1639 173.916 83.0577 169.49C83.014 164.649 83.0998 164.365 85.4041 163.898C86.6497 163.614 91.9366 160.743 97.0214 157.504C102.239 154.241 107.456 150.979 108.795 150.073C111.738 148.215 115.536 150.384 115.168 153.68C114.941 155.471 114.084 156.023 109.919 157.15C101.885 159.151 101.058 162.931 108.624 162.897C112.235 162.877 112.36 163.192 110.847 166.956C109.647 169.791 112.019 173.15 114.844 172.929C117.273 172.777 119.104 170.035 119.869 165.525C120.455 161.921 120.455 161.921 124.667 161.055C135.394 158.857 138.386 154.97 134.373 148.528C132.601 145.469 131.052 144.054 128.368 142.769C126.36 141.838 125.115 140.977 125.777 140.862C126.306 140.77 132.51 141.512 139.654 142.561C152.473 144.444 152.473 144.444 154.779 141.686C156.189 140.028 157.108 137.915 157.203 136.148C157.259 133.781 157.726 132.959 160.982 130.172C165.312 126.524 166.264 123.059 163.884 118.893L162.493 116.441L168.363 114.546C176.094 111.992 177.168 111.132 176.61 107.997C176.028 104.731 170.745 100.732 168.425 101.875C167.226 102.42 167.842 100.899 170.374 96.3514C173.561 90.8822 174.426 89.9914 177.408 88.733C189.756 83.7611 194.826 78.9078 193.211 73.6662C192.006 69.9693 194.587 63.3932 200.126 55.4281C202.884 51.3802 204.582 49.8059 208.156 48.0408C210.663 46.7974 212.773 45.623 212.882 45.4694C213.591 44.4709 211.322 37.8611 209.424 35.6315C208.219 34.2246 200.454 28.1647 192.239 22.2505C179.72 13.2447 176.188 11.0294 170.935 9.11287ZM153.545 122.506C153.109 123.12 142.428 126.725 141.961 126.402C141.805 126.295 142.849 124.497 144.322 122.423C146.994 118.66 147.126 118.637 149.834 120.052C151.266 120.814 152.83 121.553 153.219 121.822C153.585 121.96 153.709 122.275 153.545 122.506ZM101.015 132.433C100.928 133.862 101.713 135.207 103.269 136.284C105.526 137.845 105.572 138.106 103.742 139.704C97.5506 145.156 86.3449 153.094 84.7336 153.239C83.7294 153.346 82.5849 153.814 82.2032 154.352C81.8215 154.89 80.7548 155.411 79.8051 155.442C77.719 155.602 75.8371 152.696 68.8326 139.029C64.65 130.866 64.0829 129.213 65.7327 129.668C67.8807 130.238 73.0033 128.742 75.581 126.746C78.3455 124.65 81.6379 124.752 86.7737 127.16C91.6215 129.484 97.0226 130.701 98.9924 129.888C100.511 129.22 101.125 129.989 101.015 132.433ZM131.958 152.584C132.51 153.768 132.05 154.252 129.675 155.472C126.366 157.191 123.011 157.504 125.846 155.8C126.78 155.301 128.236 153.904 129.109 152.675C130.768 150.501 131.111 150.509 131.958 152.584ZM93.8952 128.079C90.7664 127.747 88.1908 126.308 88.8998 125.31C89.4997 124.465 91.6709 125.165 94.6041 127.08L96.6038 128.35L93.8952 128.079ZM85.5223 124.347C80.4636 123.138 79.0624 123.313 73.6199 126.076C65.7793 129.929 63.928 127.961 68.8128 120.917C70.4488 118.613 70.6589 118.644 78.3244 121.085C86.4101 123.587 90.7365 125.664 85.5223 124.347ZM121.324 154.161C120.001 154.39 120.119 152.754 121.528 152.24C122.595 151.718 122.75 151.825 122.461 152.886C122.235 153.531 121.721 154.092 121.324 154.161ZM59.8015 129.687C60.8661 132.6 61.9386 135.175 62.3276 135.444C62.6388 135.66 63.9528 138.058 65.2587 140.794C67.1711 144.638 67.2795 145.629 65.9328 145.728C64.664 145.881 63.9718 145.058 62.985 142.199C61.4544 137.818 60.2408 136.749 57.0414 137.17C54.9007 137.407 54.8229 137.353 55.75 136.047C57.1679 134.05 56.4931 130.262 54.548 128.916C52.1361 127.247 49.9176 127.43 46.8106 129.518L44.1552 131.46L46.8586 127.489C49.562 123.518 51.7732 122.528 55.4154 123.445C57.7735 124.046 57.7735 124.046 59.8015 129.687ZM52.3267 133.679C51.9129 135.569 44.5232 140.42 43.9713 139.237C43.5982 138.291 46.418 134.974 49.8835 132.217C51.4955 130.927 52.8727 131.765 52.3267 133.679ZM56.6554 144.577C55.4483 145.46 53.5869 147.265 52.5508 148.724C51.5146 150.184 50.2218 151.351 49.5914 151.258C48.0113 151.196 54.0879 142.801 56.595 141.557C59.4759 140.115 59.521 142.666 56.6554 144.577ZM75.2882 159.189C79.2533 166.514 80.0438 172.101 77.6443 175.481C76.5536 177.017 76.0788 177.032 74.6165 175.333C70.5794 171.05 69.3753 167.353 70.359 162.536C71.0694 159.248 70.884 157.058 69.5933 154.79C67.9216 151.915 68.5455 150.056 70.6461 151.509C71.1908 151.886 73.298 155.292 75.2882 159.189ZM59.1509 149.397C57.251 150.602 57.1731 150.548 58.2093 149.089C58.7314 148.19 59.6737 147.353 60.1485 147.338C61.7366 147.062 61.2378 148.092 59.1509 149.397ZM49.9549 142.575C48.7551 144.265 45.9055 145.501 45.7193 144.455C45.6575 143.725 50.0261 140.677 50.6485 141.108C50.7263 141.162 50.4457 141.884 49.9549 142.575ZM37.3973 146.371C37.6926 147.263 37.5283 148.638 37.0374 149.33C36.0013 150.789 36.0791 150.843 33.7304 147.614C31.8406 145.046 31.9504 143.748 34.0285 143.926C34.6357 143.888 35.6558 143.105 36.1779 142.206C38.8115 137.843 40.2832 136.914 38.584 140.778C37.6096 142.967 37.1021 145.48 37.3973 146.371ZM66.306 158.93C67.0346 163.787 66.6529 164.324 63.6491 163.162C62.3417 162.716 59.7888 162.553 57.936 162.874C56.0833 163.196 54.48 163.003 54.4414 162.403C54.3018 161.62 60.1668 155.483 63.0637 153.364C64.0293 152.658 65.8799 155.771 66.306 158.93ZM44.1808 152.669C43.8594 156.227 45.7885 158.249 48.7858 157.459C50.4829 157.03 50.6385 157.137 50.147 158.974C49.5151 161.171 45.8933 164.965 44.3911 164.956C43.208 164.825 40.3314 159.398 40.9858 158.476C41.2585 158.092 41.1429 156.294 40.7626 154.542C40.2659 152.136 40.5313 150.945 41.7929 149.986C44.0201 148.32 44.5334 148.904 44.1808 152.669ZM63.1234 169.786C61.0511 172.704 55.8056 171.595 56.5392 168.437C56.8824 167.3 57.9259 166.647 59.615 166.556C63.3903 166.305 64.7595 167.481 63.1234 169.786ZM67.7298 172.286C67.6906 172.831 67.1532 173.261 66.4683 173.245C65.9156 173.207 65.7448 172.63 66.181 172.016C67.1627 170.633 67.7931 170.726 67.7298 172.286ZM49.8751 170.469C47.8574 173.311 47.5927 173.357 46.7376 171.62C45.6025 169.46 45.8519 168.945 48.9589 166.857C52.0114 164.845 52.4928 166.782 49.8751 170.469ZM59.4442 178.236C58.8989 179.004 58.0969 179.48 57.7079 179.211C56.7742 178.565 57.4999 175.745 58.7767 175.254C60.1626 174.609 60.644 176.546 59.4442 178.236ZM36.5563 171.906C34.3131 174.248 30.5117 178.948 28.0032 182.481C24.4039 187.551 23.298 188.618 22.3643 187.972C21.7419 187.542 20.1778 186.803 18.9482 186.41C16.8316 185.633 16.8083 185.502 19.8615 182.346C21.5906 180.564 24.55 178.03 26.3722 176.771C30.8498 173.57 32.4625 171.135 31.4365 168.821C30.7138 167.061 30.8228 166.907 34.793 166.218C40.935 165.085 41.4244 166.683 36.5563 171.906ZM51.9141 183.449C51.299 183.825 51.416 183.333 52.1795 182.258C52.943 181.183 53.3713 180.906 53.2775 181.529C53.0513 182.174 52.3969 183.096 51.9141 183.449Z" fill="white"/>
<path d="M85.4854 133.714C82.5275 133.958 81.0325 134.756 78.4076 137.636C75.2453 140.946 75.0737 141.515 75.7958 144.42C76.9294 148.87 79.0381 149.985 82.5341 148.166C85.6019 146.624 86.3741 144.065 84.1178 142.504C82.4839 141.373 83.8313 140.129 87.8094 139.102C89.8257 138.55 91.6399 137.629 91.8115 137.06C92.4121 135.071 89.3152 133.386 85.4854 133.714ZM89.8344 137.067C89.5618 137.451 87.9424 137.934 86.1443 138.179C84.3461 138.424 82.4541 139.291 81.9087 140.059C81.3634 140.827 81.5961 142.134 82.545 143.248C84.2407 145.109 84.1469 145.731 81.951 147.19C80.3702 148.272 77.3046 146.38 76.909 144.159C76.3506 141.024 83.8661 134.197 86.9324 134.944C88.9248 135.407 90.3252 136.376 89.8344 137.067Z" fill="white"/>
<path d="M167.011 23.4639C160.218 19.7944 158.88 19.5553 156.022 21.1289C152.627 23.1324 151.52 25.3447 151.408 30.0782C151.414 33.1749 152.083 35.0118 153.677 36.688C154.992 37.9413 156.011 39.448 155.971 39.9936C155.807 41.3689 162.452 45.7376 166.428 47.0003C175.09 49.672 176.561 49.888 179.348 49.0675C184.05 47.5105 183.701 45.5508 178.859 46.324C176.477 46.7375 173.449 46.5896 172.119 46.0125C170.734 45.5122 167.597 44.373 165.084 43.6645C160.951 42.2942 160.329 41.8635 158.735 39.0424C157.748 37.3282 156.418 35.6062 155.717 35.1216C153.772 33.7757 153.301 28.066 154.992 25.685C157.119 22.6894 160.551 22.4302 164.364 25.0683C169.11 28.3523 172.977 29.7686 173.795 28.6164C174.232 28.002 174.037 27.2949 173.571 26.9719C172.971 26.6718 170.03 25.0948 167.011 23.4639Z" fill="white"/>
<path d="M157.207 92.5093C152.559 93.9895 141.865 104.802 142.112 107.722C142.406 110.904 145.077 109.43 150.179 103.224C155.141 97.3798 159.642 94.3088 156.097 99.3014C154.461 101.606 154.582 106.501 156.294 107.685C156.683 107.954 155.398 108.783 153.506 109.65C149.248 111.4 148.43 112.552 150.219 113.79C151.619 114.759 158.315 112.52 159.624 110.676C160.114 109.985 160.162 107.956 159.759 106.073C159.208 103.745 159.637 101.179 161.001 98.1134C163.558 92.5516 162.438 90.8603 157.207 92.5093Z" fill="white"/>
<path d="M133.756 115.57C130.221 116.79 124.835 116.041 122.089 114.026C120.922 113.219 119.482 112.795 118.867 113.171C117.395 114.1 114.477 126.055 115.2 127.815C116.124 129.944 119.813 131.122 123.674 130.587C127.271 130.097 132.753 125.644 136.789 119.96C138.752 117.195 139.009 116.342 137.92 115.588C137.142 115.05 135.243 115.11 133.756 115.57ZM122.868 125.676C121.318 126.551 119.777 127.088 119.621 126.98C119.388 126.819 119.514 124.844 119.858 122.562C120.452 118.62 120.537 118.336 122.133 118.867C123.074 119.175 124.724 119.63 125.798 119.915C127.425 120.238 127.65 120.738 126.77 122.305C126.271 123.334 124.495 124.855 122.868 125.676Z" fill="white"/>
<path d="M53.5501 106.462C52.4834 106.984 48.4726 110.508 44.5083 114.294C40.6763 118.057 35.5283 122.857 33.0284 124.907C24.3917 132.332 19.8195 137.301 18.198 141.219C17.3328 143.255 16.3432 144.976 15.8916 145.121C15.4946 145.19 13.9851 144.375 12.5068 143.352L9.78369 141.468L12.946 138.158C14.5972 136.322 17.6657 133.634 19.7838 132.122C23.514 129.319 25.2053 125.793 23.338 124.501C22.0153 123.586 23.4638 122.527 25.3238 123.012C26.3432 123.374 28.009 123.152 29.107 122.422C31.8323 120.872 34.4135 113.151 33.1541 110.676C32.1979 108.754 33.9204 105.021 35.7884 105.168C36.3411 105.207 36.6436 106.905 36.5411 109.01C36.1492 113.321 38.2339 115.451 41.2471 113.985C42.3138 113.463 45.0085 110.975 47.3608 108.479C51.3956 103.94 51.4501 103.863 49.6606 102.625C48.1824 101.602 47.5985 101.771 46.126 103.845C45.1444 105.227 43.5477 106.986 42.6599 107.746L40.9388 109.19L40.7228 106.062C40.6464 103.718 39.9854 102.688 38.1879 101.788C35.4256 100.449 35.4881 100.035 38.6729 98.0002C40.5496 96.6643 40.6354 96.38 39.3128 95.4648C37.5233 94.2265 37.095 94.5029 26.0369 102.887C21.7149 106.197 16.5981 110.789 14.7206 113.269C11.6515 117.102 10.9818 117.555 8.32775 117.208C6.72443 117.014 5.33924 116.514 5.19163 116.068C5.17636 115.6 8.01141 112.751 11.6172 109.633C21.4923 101.117 22.186 99.6499 17.2844 96.2582C14.9503 94.6431 8.1625 95.2152 6.79915 97.1355C5.43579 99.0557 6.26836 99.5173 11.3277 99.5818C13.6473 99.5832 15.7254 99.7612 15.9588 99.9227C16.5035 100.3 12.7573 103.778 8.35748 107.034C4.19905 110.113 -0.350551 116.357 0.0217593 118.447C0.324261 120.146 4.85357 121.447 10.5746 121.397C13.4235 121.306 13.8671 121.499 13.1036 122.574C11.7948 124.417 13.6228 126.255 16.7829 126.38C20.7603 126.498 20.729 126.705 16.8433 129.4C14.912 130.813 11.4618 134.038 9.26521 136.642C5.65868 140.904 5.32348 141.703 6.13206 143.179C7.24386 145.208 18.6192 152.392 19.2736 151.47C19.4917 151.163 20.0378 149.25 20.4515 147.36C20.9197 145.393 22.3383 142.251 23.5926 140.485C26.0466 137.028 36.5536 126.315 38.2042 125.625C38.7103 125.402 42.6433 121.824 46.8802 117.654C51.1172 113.484 55.6886 109.66 57.02 109.092C59.2544 108.233 59.2312 108.102 57.4417 106.864C56.2746 106.056 54.6713 105.863 53.5501 106.462ZM29.096 115.084C27.825 118.672 26.6646 119.816 24.9914 119.231C24.1276 118.977 21.4656 118.968 19.138 119.304C14.592 119.824 12.8025 118.586 15.8703 117.043C16.8046 116.544 18.5025 114.97 19.5386 113.511C20.5748 112.051 22.8645 109.97 24.5776 108.865L27.8402 106.884L28.7957 109.951C29.3083 111.68 29.4392 113.947 29.096 115.084Z" fill="white"/>
<path d="M28.7693 89.887C24.8523 92.7893 25.2726 92.851 23.6322 89.7686C21.2609 85.2642 18.8796 84.5328 15.8889 87.2742C14.5416 88.5183 12.5478 90.3459 11.4186 91.2827C9.88433 92.6265 9.6582 93.2718 10.5918 93.9178C12.0701 94.9408 14.2188 94.3658 16.7499 92.1081C19.0629 90.1578 19.7944 90.4348 21.2167 93.8244C21.7373 95.2156 22.8418 96.4381 23.7602 96.6154C25.4879 97.1236 32.0676 93.0857 32.2087 91.5797C32.2719 90.0198 30.0854 88.8505 28.7693 89.887Z" fill="white"/>
</svg>
