<svg width="206" height="191" viewBox="0 0 206 191" fill="none" xmlns="http://www.w3.org/2000/svg">
<path d="M91.3162 0.634906C88.5608 1.38529 80.2947 10.0147 78.9646 13.3914C78.6795 14.048 76.6843 15.0798 74.594 15.6426C66.2329 17.8937 55.0215 22.3022 54.5464 23.6154C53.7863 25.5851 56.4467 26.3355 58.1569 24.6471C59.5821 23.2402 73.9289 18.0813 74.594 18.7379C74.784 18.9255 74.689 19.6759 74.404 20.52C73.7389 22.0208 67.9432 24.7409 60.9122 26.9921C58.6319 27.6487 56.8267 28.7742 56.8267 29.337C56.8267 30.9316 59.6771 30.8378 63.0975 29.2432C64.6177 28.4928 67.1831 27.5549 68.7032 27.1797C73.4539 26.1479 70.2234 28.2115 63.0025 30.9316C55.1165 33.8393 51.506 35.9967 52.7412 37.216C53.3113 37.7788 56.4467 36.8408 60.7222 34.8711C64.6177 33.0889 67.8481 31.7758 68.0382 31.8696C69.2733 33.1827 65.3778 35.8091 55.7816 40.03C49.6058 42.8439 44.4751 45.6578 44.4751 46.2206C44.4751 48.0966 45.7103 47.7214 55.5915 43.2191C65.6629 38.5292 66.3279 38.3416 66.3279 40.4052C66.3279 43.0315 69.0833 41.8121 73.6439 37.1222C77.3494 33.3703 80.1047 31.5882 87.2307 28.6804C97.492 24.5533 99.5823 22.4898 92.3613 23.4278C89.796 23.803 86.9456 24.2719 86.0905 24.5533C85.1404 24.8347 84.3803 24.6471 84.3803 24.2719C84.3803 22.396 88.3708 19.3945 92.7414 17.9875C100.722 15.3612 102.433 11.3279 95.9718 10.6713L92.9314 10.3899L95.3067 6.82556C99.2972 1.10389 97.777 -1.24105 91.3162 0.634906ZM87.6107 8.13873C87.3257 8.70152 87.5157 9.5457 88.1808 9.92089C89.0359 10.3899 89.0359 10.7651 88.2758 11.2341C87.7057 11.6092 87.2307 11.4217 87.2307 10.7651C87.2307 10.1085 86.6606 10.3899 85.9005 11.4217C85.1404 12.3596 84.1903 12.9224 83.8102 12.4534C83.4302 12.0782 84.0952 10.7651 85.3304 9.4519C87.7057 7.01315 88.7508 6.35657 87.6107 8.13873ZM92.9314 14.6108C92.9314 15.0798 92.1713 15.5488 91.3162 15.5488C89.891 15.5488 89.796 15.3612 91.0311 14.6108C92.8364 13.4852 92.9314 13.4852 92.9314 14.6108ZM86.2805 16.3929C86.2805 17.2371 79.4396 20.3324 78.7746 19.6759C78.5845 19.4883 78.9646 18.7379 79.5347 17.9875C80.5798 16.7681 81.6249 16.3929 85.6154 15.6426C85.9955 15.6426 86.2805 15.9239 86.2805 16.3929ZM81.0548 23.8968C78.7746 26.0541 74.8791 27.3673 74.8791 25.9603C74.8791 24.8347 79.4396 22.2084 81.5299 22.1146C82.575 22.1146 82.48 22.5836 81.0548 23.8968ZM76.7793 29.4308C76.7793 30.1812 72.6938 32.4324 71.4586 32.4324C70.3185 32.4324 72.4087 30.3688 74.309 29.6184C76.8743 28.5866 76.7793 28.5866 76.7793 29.4308Z" fill="white"/>
<path d="M122.1 9.73311C121.15 10.6711 120.485 11.8905 120.485 12.4532C120.485 15.5486 116.21 22.4896 111.744 26.7105C106.898 31.3066 104.143 32.526 102.908 30.5562C101.958 29.0555 99.0124 29.5244 97.3022 31.4004C96.352 32.4322 95.2119 35.0585 94.7368 37.3097C93.8817 40.9678 93.9767 41.5306 95.972 43.1251C98.9174 45.4701 108.514 44.8135 113.264 41.812L116.685 39.7484V43.5003C116.685 46.6894 116.21 47.7212 113.739 49.5034C105.283 55.7878 105.188 55.9754 105.853 64.3234C106.423 70.7955 106.233 72.1086 104.808 73.7032C102.718 75.9543 103.478 81.1132 106.518 85.0527C108.039 87.1163 109.274 87.7729 111.744 87.7729C114.309 87.7729 114.784 88.0543 114.404 89.3674C111.364 100.342 106.993 113.098 106.328 113.098C104.238 113.098 102.338 122.666 104.143 123.791C105.568 124.635 111.554 122.572 113.359 120.602C115.069 118.726 115.83 117.225 119.06 108.408C119.82 106.063 121.72 101.749 123.146 98.841C125.331 94.2449 126.091 93.4007 128.276 93.4007C132.457 93.4007 132.837 97.2464 129.131 101.374C124.096 107.095 125.996 110.66 131.887 106.532L134.547 104.656L135.212 108.596C135.592 110.847 136.922 114.224 138.252 116.287C140.343 119.383 140.913 119.758 143.383 119.289C146.709 118.632 146.804 119.664 144.333 126.699C142.433 132.139 139.678 133.546 130.937 133.64C126.186 133.734 125.236 134.109 120.295 138.142C117.255 140.487 114.784 142.926 114.784 143.489C114.784 144.052 115.83 146.115 117.16 147.897C119.535 151.462 120.01 151.649 130.271 153.056C132.742 153.338 135.022 153.994 135.212 154.369C135.497 154.838 138.062 154.932 140.913 154.651C145.853 154.182 146.043 154.182 146.709 156.62C147.659 160.654 146.329 165.437 143.953 166.188C142.813 166.657 138.633 166.938 134.737 167.032C125.806 167.032 120.485 169.752 120.485 174.067C120.485 178.663 123.241 179.695 135.212 179.695C140.913 179.695 148.419 180.164 151.839 180.726C161.721 182.321 183.573 183.071 192.124 182.04C200.296 181.102 203.146 179.695 203.146 176.881C203.146 174.348 200.866 173.035 192.885 170.69C186.424 168.908 185.569 168.345 185.284 166.282C184.809 162.53 188.514 159.153 194.595 158.121C201.341 156.902 205.046 153.244 205.046 147.897C205.046 143.676 203.906 142.551 195.545 138.424C192.124 136.735 189.084 134.859 188.704 134.297C188.324 133.734 187.944 130.263 187.944 126.699C187.944 123.041 187.659 119.101 187.279 117.976C186.709 115.537 176.162 107.47 173.692 107.47C172.837 107.47 171.697 107.939 171.032 108.596C170.367 109.253 169.892 109.44 169.892 108.971C169.892 107.846 171.982 106.251 175.782 104.281C178.728 102.781 179.203 102.218 178.348 100.811C177.493 99.1224 176.922 99.31 169.797 102.781C161.435 107.001 158.3 110.566 158.68 115.443C158.87 117.694 159.345 118.257 161.055 118.07C162.576 117.882 163.051 118.257 162.671 119.195C162.291 120.227 160.96 120.508 158.3 120.414C154.785 120.133 154.5 120.321 153.359 123.604C151.554 128.669 148.989 132.233 147.944 131.201C147.374 130.638 147.564 128.762 148.514 126.324C151.364 118.257 150.319 114.974 144.713 114.974C141.673 114.974 141.103 113.755 142.718 110.753C143.668 108.877 143.858 107.47 143.098 105.313C142.623 103.625 141.958 101.561 141.673 100.623C141.293 99.5914 142.053 97.903 143.478 96.4023C147.374 92.1814 148.989 89.3674 148.989 86.6473C148.989 85.2403 149.844 82.7078 150.889 81.0194C152.029 79.0497 152.789 76.2357 152.789 73.5156C152.789 69.6699 153.169 68.8257 155.45 67.4188C156.875 66.5746 158.205 65.7304 158.395 65.6366C158.965 65.1676 150.794 51.1917 149.939 51.1917C149.464 51.1917 148.229 52.6925 147.089 54.4747C145.948 56.2568 144.618 57.7576 144.143 57.7576C143.573 57.7576 144.523 55.7878 146.234 53.3491C149.084 49.3158 149.179 48.8468 147.944 46.5956C146.614 44.3445 146.043 44.1569 141.293 44.4383C138.538 44.6259 135.212 45.3763 133.977 46.2205C131.887 47.4398 131.792 48.0026 132.457 53.7243C132.932 58.4142 132.742 60.0087 131.792 60.6653C129.511 62.0723 129.321 61.6033 129.796 56.8196C130.176 52.9739 129.891 52.0359 128.561 51.5669C127.421 51.0979 125.996 51.8483 123.906 54.1933C120.39 58.1328 116.495 59.8211 113.169 59.0707C110.699 58.4142 110.699 58.508 111.269 62.2599C111.649 64.3234 112.789 67.9815 113.834 70.3265C115.45 74.1722 116.02 74.6412 118.68 74.6412C120.39 74.6412 122.48 73.9846 123.336 73.2342C124.856 71.921 125.236 71.921 127.326 73.797L129.701 75.9543L127.896 80.0814C124.951 86.4597 127.421 88.9922 132.552 84.9589C133.977 83.8334 136.352 83.083 138.443 83.083C141.768 83.1768 141.673 83.2706 135.307 86.3659C130.461 88.7108 128.276 89.3674 127.041 88.7108C125.141 87.6791 122.385 88.4295 122.385 90.024C122.385 90.5868 120.865 94.1511 119.06 97.9968C117.255 101.749 115.735 105.313 115.735 105.876C115.64 106.532 114.879 108.69 113.834 110.753C112.789 112.817 112.029 114.974 111.934 115.537C111.934 116.1 111.269 117.225 110.319 117.882C108.989 119.008 108.894 119.008 109.369 117.788C112.314 110.566 118.015 91.2434 118.015 88.2419C118.11 84.49 118.11 84.4899 114.404 84.2086C112.314 84.021 110.129 83.1768 109.369 82.3326C107.849 80.3628 107.754 75.9543 109.179 75.0164C109.939 74.5474 110.129 71.8272 109.749 66.1056L109.179 57.7576L113.359 54.9436C119.345 50.8165 120.485 48.8468 120.485 42.2809C120.485 34.2143 119.63 33.7453 112.124 37.6849C104.903 41.4368 99.2974 41.812 98.8224 38.529C98.5373 35.6213 100.058 33.7453 101.768 35.0585C106.138 38.7166 120.39 26.7105 123.431 16.6741C124.001 14.5168 124.951 12.7346 125.426 12.7346C126.661 12.7346 126.281 10.2959 124.951 9.07653C123.906 8.32615 123.241 8.41994 122.1 9.73311ZM144.238 49.1282C144.238 50.0662 138.347 57.7576 137.587 57.7576C137.112 57.7576 137.017 49.4096 137.492 48.5654C137.777 48.0026 144.238 48.4716 144.238 49.1282ZM153.834 61.6971C154.595 63.0103 153.359 63.9482 146.139 67.5125C140.153 70.5141 136.447 71.8272 133.692 71.8272C129.796 71.8272 129.796 71.8272 130.461 68.7319C131.317 64.8862 131.507 64.6986 133.217 66.1056C135.592 68.0753 139.868 66.387 145.283 61.5095C150.794 56.632 150.984 56.632 153.834 61.6971ZM121.91 67.6063C120.96 69.3885 119.915 70.8893 119.44 70.8893C118.68 70.8893 115.45 64.3234 115.925 63.7606C116.115 63.6668 117.73 62.9165 119.535 62.2599C122.575 60.9467 122.86 61.0405 123.146 62.5413C123.336 63.4792 122.765 65.7304 121.91 67.6063ZM148.894 73.8908C148.799 79.2373 147.849 79.8001 140.153 79.8001C136.067 79.8001 132.837 79.4249 132.837 79.0497C132.837 78.6745 134.832 77.4551 137.397 76.4233C139.868 75.3916 142.908 73.9846 144.238 73.328C147.754 71.3583 148.989 71.5458 148.894 73.8908ZM145.188 87.0225C145.188 87.6791 144.238 89.2736 143.193 90.5868L141.293 92.9317L141.958 90.5868C142.528 88.3357 144.048 85.8969 144.808 85.8969C144.998 85.8969 145.188 86.4597 145.188 87.0225ZM136.637 91.5248C136.637 91.9938 136.257 92.4628 135.687 92.4628C135.212 92.4628 134.737 91.9938 134.737 91.5248C134.737 90.962 135.212 90.5868 135.687 90.5868C136.257 90.5868 136.637 90.962 136.637 91.5248ZM174.737 115.443L177.493 116.944L175.497 120.696C173.407 124.823 172.077 125.198 173.597 121.165C175.402 116.569 172.552 114.411 167.801 116.944C165.426 118.163 164.476 117.413 166.091 115.443C167.611 113.661 171.127 113.661 174.737 115.443ZM185.094 126.136C185.094 130.076 185.664 134.203 186.329 135.422C186.899 136.642 190.699 139.174 194.595 141.144C201.246 144.521 201.721 144.896 202.006 147.991C202.386 152.306 199.345 154.838 192.79 155.682C186.614 156.527 182.243 161.029 182.243 166.563C182.243 170.784 182.338 170.878 189.559 172.754C202.386 175.943 203.241 177.725 192.695 179.32C184.904 180.539 153.739 179.413 149.464 177.819C148.134 177.35 142.338 176.881 136.637 176.881C130.937 176.881 125.711 176.599 124.856 176.318C122.385 175.38 123.051 173.223 126.471 171.159C128.941 169.565 130.461 169.377 134.927 169.846C139.203 170.315 141.388 170.034 144.618 168.627C148.419 166.938 148.799 166.469 149.369 162.53C150.129 157.652 149.369 153.713 147.374 152.681C146.234 152.024 146.234 151.368 147.564 147.71C148.419 145.459 149.939 141.519 150.794 138.893C152.219 135.047 152.979 134.109 155.26 133.64C156.78 133.265 158.87 132.702 159.915 132.327C161.721 131.576 161.626 131.764 159.725 133.921C155.45 138.424 157.73 141.894 162.576 138.33C173.692 130.357 181.293 121.728 181.293 116.944L181.388 114.505L183.193 116.756C184.713 118.539 185.094 120.321 185.094 126.136ZM168.941 122.103C168.941 122.384 168.466 123.51 167.896 124.542C167.041 126.042 166.661 126.23 165.996 125.198C165.616 124.448 165.711 123.416 166.281 122.759C167.326 121.54 168.941 121.071 168.941 122.103ZM163.241 126.042C163.241 127.168 161.911 128.387 159.44 129.513C157.35 130.451 155.45 131.014 155.165 130.732C154.88 130.451 155.355 128.95 156.21 127.356C157.35 125.011 158.3 124.354 160.485 124.354C162.576 124.354 163.241 124.823 163.241 126.042ZM147.564 136.642C146.614 140.581 142.338 149.679 141.388 149.679C140.913 149.679 141.578 147.053 142.908 143.864C144.143 140.675 145.188 137.579 145.188 137.017C145.188 136.079 147.089 133.734 147.849 133.734C148.039 133.734 147.944 135.047 147.564 136.642ZM140.438 138.986C139.773 140.862 138.252 143.864 137.017 145.74C135.782 147.522 134.737 149.398 134.737 149.961C134.737 150.524 132.647 150.617 129.321 150.242C121.53 149.304 120.675 148.929 119.06 146.021C117.73 143.489 117.825 143.395 122.29 140.018C125.806 137.298 127.801 136.548 131.032 136.454C133.312 136.36 136.542 136.079 138.062 135.704C139.678 135.328 141.103 135.141 141.198 135.235C141.388 135.422 141.008 137.017 140.438 138.986Z" fill="white"/>
<path d="M129.226 23.5222C126.946 26.3361 125.331 41.3437 127.041 43.0321C128.941 44.9081 129.891 42.4693 130.556 34.4965C131.222 26.2423 132.267 24.085 133.312 28.681C133.692 30.1818 134.927 32.2454 136.257 33.2771C138.918 35.3407 139.108 36.4663 137.112 38.0608C135.307 39.5616 135.212 42.7507 137.017 42.7507C138.822 42.7507 142.433 38.1546 141.673 36.7477C139.583 33.1833 131.697 21.1772 131.412 21.1772C131.222 21.1772 130.271 22.209 129.226 23.5222Z" fill="white"/>
<path d="M73.0741 57.7583C69.1786 62.6357 66.7083 63.7613 56.352 65.6373C50.7462 66.6691 47.2308 67.7946 45.9956 69.014C44.1904 70.7962 44.1904 70.9837 45.7106 74.2667C46.7557 76.3302 48.4659 78.0186 50.2712 78.6752C52.8365 79.7069 53.0265 80.0821 52.7415 83.4589C52.3614 87.117 50.9363 88.8053 49.7011 86.9294C48.751 85.3348 41.34 85.71 38.9647 87.3984C35.5443 89.7433 36.2093 93.4952 40.6749 97.5285C42.7652 99.4045 44.9505 100.905 45.4255 100.905C45.9956 100.905 48.0859 102.031 50.0811 103.344C55.2118 106.627 61.0076 106.346 61.3876 102.687C61.6726 100.249 61.9577 100.155 68.2285 99.7797C75.9245 99.4045 78.6799 97.5285 78.6799 92.8386C78.6799 90.5875 77.9198 89.1805 75.7345 87.3984C74.1193 86.0852 72.124 84.9596 71.1739 84.9596C70.0337 84.9596 69.1786 83.6464 68.4185 80.7387C67.7534 78.3938 67.2784 76.1426 67.2784 75.6736C67.2784 74.5481 76.6846 67.5132 82.6704 64.0427C85.1407 62.6357 87.421 60.5722 87.801 59.4466C88.7512 56.5389 85.2357 54.0064 80.2001 54.0064C76.5896 54.0064 75.8295 54.4753 73.0741 57.7583ZM84.8557 57.6645C85.1407 58.2272 84.3806 59.259 83.2404 60.1032C65.0931 72.5783 63.3829 74.5481 65.2831 79.7069C66.8033 83.5527 66.5183 84.6782 64.048 85.3348C60.3425 86.2728 57.5871 91.9007 57.9672 97.9975C58.2522 102.969 58.1572 103.25 56.0669 103.063C54.9268 102.875 52.8365 102.125 51.5063 101.187C49.4161 99.8735 49.131 99.2169 49.7011 96.3091C50.0811 94.4332 51.6013 91.6193 53.1215 90.1185C55.2118 87.8673 55.8769 86.3666 55.8769 83.5526C55.8769 77.362 55.0218 75.6736 52.2664 75.8612C50.5562 76.0488 49.5111 75.3922 48.5609 73.7039C47.0407 70.7962 48.5609 69.3892 54.2617 68.545C66.9933 66.6691 68.3235 66.1063 72.8841 61.5102C76.4946 57.8521 77.9198 57.0079 80.7701 56.9141C82.6704 56.8203 84.4756 57.1955 84.8557 57.6645ZM74.1193 89.3681C76.1145 91.1503 76.3996 94.8084 74.6893 95.934C72.5991 97.1533 64.048 97.9037 62.3377 96.9657C59.9624 95.8402 60.1524 92.4634 62.5278 92.4634C63.5729 92.4634 64.428 91.9945 64.428 91.4317C64.428 88.1487 71.1739 86.7418 74.1193 89.3681ZM48.2759 90.5875C48.2759 91.6193 47.6108 92.7448 46.7557 93.12C45.7106 93.4952 45.4255 94.3394 45.9006 96.1216C46.4707 98.5603 46.4707 98.4665 43.1452 95.3712C38.1096 90.5875 38.6797 88.8991 45.2355 88.8053C47.7058 88.7115 48.2759 89.0867 48.2759 90.5875Z" fill="white"/>
<path d="M4.28516 89.2739C3.05 90.4933 3.62007 92.5568 5.3303 93.1196C6.18541 93.401 10.1759 96.6839 14.0714 100.436C17.9669 104.094 26.328 110.754 32.5988 115.256C38.8696 119.664 46.5656 125.48 49.7011 128.106C52.8365 130.826 57.8721 134.203 60.8175 135.704C66.8033 138.705 72.9791 143.583 72.9791 145.365C72.9791 148.367 45.7105 162.718 39.7248 162.811C38.9647 162.811 35.3542 164.312 31.6487 166.188C19.5821 172.285 9.89089 169.846 9.13079 160.466C8.94076 157.465 8.4657 156.715 7.04052 156.715C5.61533 156.715 4.66521 158.215 2.85998 163.28C-0.370442 172.473 -0.845504 178.663 1.33978 182.134C4.09514 186.542 7.61059 190.013 9.41583 190.013C12.1712 190.013 12.4562 188.231 9.89089 187.199C6.85049 186.073 2.66995 179.695 2.66995 176.224C2.66995 173.88 3.8101 168.627 5.14027 164.781C5.42531 163.937 6.75548 164.781 9.13079 167.407C12.3612 170.972 13.1213 171.347 18.442 171.816C23.6677 172.379 24.9978 172.097 31.7437 169.096C35.8293 167.314 41.815 165.156 44.9504 164.312C52.4564 162.249 62.5277 158.028 62.5277 156.996C62.5277 156.527 65.2831 154.463 68.7035 152.306C76.5895 147.522 77.3496 145.271 72.8841 140.675C71.0788 138.799 66.8983 135.891 63.4778 134.109C60.0574 132.327 54.5467 128.575 51.1262 125.761C47.8008 122.947 40.2948 117.226 34.4991 113.192C21.1023 103.719 9.13079 93.401 11.6961 93.401C13.5964 93.401 34.8791 106.814 41.1499 111.973C42.7651 113.286 45.5205 114.975 47.3257 115.819C49.226 116.663 51.9813 118.257 53.5015 119.477C55.1168 120.696 60.2474 124.354 64.903 127.637C69.6536 130.92 75.9244 136.079 79.0599 139.174L84.5706 144.802L82.0052 149.117C80.5801 151.462 79.0599 153.432 78.5848 153.432C78.1097 153.432 77.7297 153.807 77.7297 154.37C77.7297 154.839 78.3948 155.308 79.1549 155.308C80.5801 155.308 87.1359 147.241 87.2309 145.365C87.2309 144.802 84.3805 141.238 80.9601 137.58C74.8793 131.108 59.1073 119.383 48.8459 113.568C46.0906 111.973 42.1951 109.44 40.1048 107.846C26.138 97.0591 6.66047 86.929 4.28516 89.2739Z" fill="white"/>
</svg>
