<svg width="112" height="37" viewBox="0 0 112 37" fill="none" xmlns="http://www.w3.org/2000/svg">
<path d="M0 0.270971C0 2.70971 6.46084 4.02288 9.50123 2.14693C10.7364 1.39654 10.7364 1.20895 9.50123 0.833758C7.22094 0.0833758 0 -0.291815 0 0.270971Z" fill="white"/>
<path d="M41.6154 2.80258C40.6653 2.99017 39.9052 3.64676 39.9052 4.11575C39.9052 5.42892 44.0857 5.14752 46.176 3.55296C47.8862 2.23979 47.8862 2.23979 45.6059 2.23979C44.2757 2.33359 42.4705 2.52119 41.6154 2.80258Z" fill="white"/>
<path d="M55.4871 3.64715C53.1118 10.3068 51.9716 11.62 43.1355 18.3734C37.9098 22.3129 33.6342 25.2206 33.4442 24.7517C33.2542 24.2827 34.0143 22.1253 35.0594 20.0618C37.5297 15.2781 37.5297 12.4641 35.0594 9.27502C31.734 5.05412 28.7886 5.8983 20.9026 13.4021C15.1068 18.9362 14.1567 20.1556 15.2018 21.3749C17.1021 23.6261 18.2422 23.0633 23.753 17.623C31.3539 10.0254 33.3492 10.9634 29.3587 20.5308C26.8884 26.3462 27.4584 30.0043 30.7839 30.8485C33.7293 31.5051 35.5345 30.5671 46.936 22.0315C55.297 15.7471 56.6272 14.3401 58.8125 9.46262C60.1427 6.46109 61.5679 4.02235 61.9479 4.02235C62.328 4.02235 62.993 5.8045 63.4681 7.96185C64.1332 11.3386 63.9432 12.5579 62.328 15.5595C59.1926 21.2811 46.6509 30.2857 41.7103 30.2857C40.4751 30.2857 38.0048 31.1299 36.3896 32.1617C30.5938 35.6322 33.2542 37.6958 41.0452 35.9136C50.1664 33.85 62.803 25.502 66.0334 19.499C67.5536 16.7788 67.5536 16.2161 66.2235 11.4324C64.2282 4.96032 62.993 3.27196 59.1926 2.52158C56.7222 2.05259 55.9621 2.24019 55.4871 3.64715Z" fill="white"/>
<path d="M5.5107 5.42998C2.56532 7.02455 2.09026 8.80671 4.18053 10.4951C5.32068 11.433 6.08078 11.3392 7.88601 10.1199C10.7364 8.33772 12.0666 9.55709 10.4513 12.4648C9.59623 13.9656 9.78626 14.9036 11.3065 16.7795L13.2067 19.1245L14.6319 16.3105C16.4371 12.9338 16.6271 8.71291 15.0119 6.55556C13.3017 4.30441 8.5511 3.74162 5.5107 5.42998Z" fill="white"/>
<path d="M81.9955 10.7757C76.2948 16.5912 73.1594 21.2811 73.1594 24.1888C73.1594 24.9392 73.5394 25.5958 74.1095 25.5958C74.5846 25.5958 76.4848 26.9089 78.29 28.5035C81.9955 31.6926 82.8506 31.505 86.9362 26.7213C89.7865 23.4384 91.8768 22.5942 90.2616 25.502C88.9314 28.0345 89.0264 28.3159 91.2117 27.7531C92.2568 27.4717 94.2521 25.8771 95.4873 24.2826C97.6726 21.5624 97.8626 21.5624 97.8626 23.4384C97.8626 25.8771 97.9576 25.9709 100.998 24.564C103.563 23.4384 106.604 19.3113 104.228 20.2493C103.468 20.5307 102.043 19.9679 101.093 18.9361C99.8578 17.5291 98.6227 17.154 96.7224 17.5291C94.4421 17.9981 94.0621 17.7167 94.0621 15.8408C94.0621 13.6834 91.9718 11.2447 89.3115 10.3067C88.1713 9.93152 88.1713 9.74393 89.5965 9.18114C90.8317 8.71215 92.0668 9.18114 93.8721 10.8695C95.2972 12.0889 98.7177 14.34 101.473 15.6532C104.133 17.0602 106.414 18.4671 106.414 18.8423C106.414 20.0617 111.449 19.5927 111.829 18.4671C112.304 17.154 107.934 13.9648 102.423 11.5261C100.143 10.5881 97.2925 8.71215 95.9623 7.39898C92.0668 3.17808 88.7414 4.02226 81.9955 10.7757ZM90.2616 17.154C90.2616 18.0919 88.9314 19.7803 87.4112 20.9059L84.4658 22.9694L85.1309 20.2493C86.3661 15.1842 90.2616 12.8393 90.2616 17.154ZM80.9504 21.1873C80.6653 24.0012 80.2853 24.4702 79.2402 23.7198C78.005 22.688 78.29 20.5307 80.0953 18.2795C81.4254 16.685 81.5205 17.0602 80.9504 21.1873Z" fill="white"/>
<path d="M67.4587 33.1003C64.6083 35.9142 65.0834 37.1336 68.6938 36.3832C70.309 36.008 72.0193 35.539 72.4943 35.2576C73.7295 34.5072 73.2544 32.3499 71.6392 31.7871C69.5489 31.0367 69.5489 31.0367 67.4587 33.1003Z" fill="white"/>
</svg>
