<svg width="92" height="88" viewBox="0 0 92 88" fill="none" xmlns="http://www.w3.org/2000/svg">
<path d="M2.35119 0.656584C0.926003 2.06355 1.87613 6.65964 4.7265 12.1937L7.76689 18.0092L3.68136 21.5735C0.830991 23.9184 -0.309157 25.513 0.0708924 26.5448C0.545954 27.7641 1.6861 27.1076 5.67662 23.4494C10.6173 18.9472 10.7123 18.8534 11.8524 20.9169C13.8477 24.4812 13.2776 27.0138 9.47711 30.7657C5.86664 34.33 4.06141 38.9261 5.10655 41.74C5.96166 43.8036 7.1018 42.678 7.76689 39.0199C8.14694 37.0501 9.95217 34.1424 12.1375 31.8912C14.5128 29.4525 15.9379 27.1076 15.9379 25.6068C15.9379 23.2618 4.7265 0 3.58635 0C3.2063 0 2.63623 0.281393 2.35119 0.656584Z" fill="white"/>
<path d="M21.2587 33.6741C17.9333 34.1431 16.128 34.9873 15.1779 36.3943C14.4178 37.5198 13.1826 38.4578 12.4225 38.4578C11.2824 38.4578 11.1874 39.2082 11.7575 42.3973C12.2325 44.6485 12.5175 48.2128 12.4225 50.3701C12.2325 54.7786 13.1826 55.4352 15.2729 52.5275C16.318 51.0267 17.4582 50.6515 20.6886 50.8391C24.3941 51.1205 25.0592 50.8391 26.9594 48.0252C29.6198 44.1795 32.4701 36.0191 31.71 34.2369C31.14 32.7362 29.0497 32.6424 21.2587 33.6741ZM23.539 36.3943C23.539 37.2385 19.1684 41.2718 18.3133 41.2718C18.0283 41.2718 17.8382 40.24 17.8382 39.0206C17.8382 36.8633 18.2183 36.5819 22.8739 35.7377C23.2539 35.7377 23.539 36.0191 23.539 36.3943ZM28.7647 37.7074C28.3846 38.9268 27.2445 41.7407 26.1043 44.0857C24.1091 48.119 23.919 48.3066 20.2135 48.0252C18.1233 47.8376 16.128 47.3686 15.748 47.0872C14.6078 45.8678 14.5128 40.9904 15.748 40.6152C16.4131 40.3338 16.8881 41.0842 16.8881 42.4911C16.8881 43.8043 17.5532 45.1175 18.5033 45.4927C20.8786 46.3368 26.6744 40.0524 25.9143 37.5198C25.4392 36.0191 25.7243 35.6439 27.3395 35.6439C28.9547 35.6439 29.2397 36.0191 28.7647 37.7074Z" fill="white"/>
<path d="M40.2609 49.6198C38.5507 49.995 36.8405 51.2144 35.8904 52.9027C34.4652 55.5291 34.0851 55.7167 29.0495 55.4353C24.4889 55.2477 23.7288 55.4353 23.3487 57.0298C22.9687 58.4368 22.2086 58.812 20.4984 58.4368C17.743 57.9678 16.8879 59.75 16.8879 66.1282C16.8879 72.7879 21.1634 74.2886 25.9141 69.4111C27.4343 67.8166 28.9545 66.8786 29.3345 67.2538C29.7146 67.7228 29.0495 71.3809 27.9093 75.508C26.1991 81.2297 25.9141 83.4808 26.6742 85.0754L27.6243 87.2327L31.5198 84.9816C33.7051 83.7622 36.1754 81.4173 37.1255 79.8227C39.5008 75.8832 48.242 52.9027 48.242 50.6516C48.242 48.6818 45.9617 48.4004 40.2609 49.6198ZM45.3916 51.9647C45.3916 52.6213 37.8856 71.9437 35.8904 76.1646C34.0851 80.2917 31.7098 82.5428 29.3345 82.5428C28.8594 82.5428 29.4295 79.2599 30.7597 75.2266C31.9948 71.2871 32.7549 67.2538 32.4699 66.3158C31.7098 63.8771 27.1492 64.2523 24.4889 67.0662C21.1634 70.5367 19.7383 70.0677 19.7383 65.6592C19.7383 62.2825 20.0233 61.9073 22.0186 61.9073C23.5388 61.9073 24.5839 61.2507 24.9639 60.0314C25.439 58.6244 26.3891 58.1554 28.8594 58.1554C30.6647 58.1554 32.0899 58.5306 32.0899 59.0934C32.0899 61.3445 35.0352 59.75 37.0305 56.2794C38.4557 53.8407 40.0709 52.5275 41.5911 52.2461C42.9213 52.0585 44.2514 51.7772 44.7265 51.6834C45.1065 51.6834 45.3916 51.7772 45.3916 51.9647Z" fill="white"/>
<path d="M59.2633 53.371C61.2586 54.7779 65.1541 56.7477 67.7194 57.6857C70.3798 58.7175 74.8454 60.9686 77.6957 62.8446C83.7765 66.8779 86.4369 67.9096 89.0972 67.0655C94.2279 65.4709 88.9072 58.2485 81.3062 56.3725C74.4653 54.778 72.8501 55.1531 78.5508 57.1229C83.5865 58.9051 89.0972 63.126 87.8621 64.3453C87.482 64.7205 85.7718 64.3453 84.0616 63.4073C78.6459 60.5934 70.6648 55.3407 71.5199 55.2469C73.1351 55.1531 59.3584 50.6508 57.3631 50.6508C55.9379 50.6508 56.318 51.2136 59.2633 53.371Z" fill="white"/>
<path d="M62.399 70.63C52.6127 75.3199 52.4227 75.5075 55.9381 79.8222C57.5533 81.8858 59.3586 83.4803 59.9286 83.4803C60.4987 83.4803 62.2089 82.3548 63.6341 80.9478C65.9144 78.7905 66.6745 78.5091 68.1947 79.5408C69.7149 80.4788 70.19 80.385 71.1401 78.6967C73.5154 74.1944 66.7695 74.382 61.9239 78.8843L59.8336 80.854L58.7885 78.9781C58.2184 77.8525 57.7434 76.8207 57.7434 76.4455C57.7434 75.5075 71.4251 69.4107 73.6104 69.4107C75.3206 69.4107 75.7957 69.9735 75.7957 71.6618C75.7957 72.975 75.4156 74.2882 74.8456 74.5696C73.3254 75.5075 73.7054 78.7905 75.2256 78.2277C77.0309 77.5711 78.8361 72.975 78.456 70.1611C78.171 68.2851 77.6009 68.0037 73.4204 67.8161C69.8099 67.7223 67.2446 68.3789 62.399 70.63Z" fill="white"/>
</svg>
