<svg width="76" height="99" viewBox="0 0 76 99" fill="none" xmlns="http://www.w3.org/2000/svg">
<path d="M0.950123 1.91725C0.950123 4.91878 5.98578 13.173 9.50123 16.1745C11.5915 17.8629 13.5868 18.6133 16.2471 18.6133C20.8077 18.6133 20.9977 19.645 16.6272 21.7086C13.4917 23.2094 13.0167 23.2094 10.1663 21.8024C8.4561 20.9582 5.51071 18.5195 3.61047 16.4559C0.0950122 12.7978 0 12.704 0 15.0489C0 17.8629 5.13067 22.7404 10.1663 24.8977C13.2067 26.1171 13.7768 26.0233 19.0025 23.6783C28.9788 19.2698 28.8837 17.4877 18.7174 16.2683C13.6818 15.7055 12.5416 15.2365 9.69126 12.235C7.98103 10.3591 5.4157 6.79474 4.18054 4.2622C1.61521 -0.615286 0.950123 -1.17807 0.950123 1.91725Z" fill="white"/>
<path d="M33.7295 12.0475C32.3043 13.5482 32.1143 14.8614 32.6844 19.6451C33.4445 27.4303 32.8744 29.0248 27.9337 32.1202C24.5133 34.2775 23.7532 35.2155 23.7532 37.4666C23.7532 40.9372 25.9385 45.3457 28.2188 46.3774C29.1689 46.7526 31.1642 47.1278 32.7794 47.2216C35.1547 47.2216 35.6297 47.6906 36.1998 50.2231C37.1499 55.0068 39.4302 57.5394 43.5158 58.7587C49.4065 60.5409 52.1619 60.1657 55.1073 57.258C57.7676 54.5378 60.4279 47.503 59.3828 45.8147C58.1477 43.9387 55.8674 44.9705 54.6322 48.0658C52.827 52.1929 51.6868 52.9433 50.4517 50.5983C47.8863 45.9084 50.0716 39.7178 56.4374 33.152C64.1334 25.3667 60.808 20.6768 50.6417 25.1791C45.036 27.6179 43.1357 26.4923 44.6559 21.4272C46.2711 15.8932 45.8911 14.0172 42.5656 12.0475C38.5751 9.70251 35.9148 9.70251 33.7295 12.0475ZM40.3804 14.111C42.7557 15.1428 42.8507 15.518 42.2806 19.4575C41.1405 26.8675 41.3305 27.8993 44.2759 28.9311C46.1761 29.6814 47.6963 29.4938 51.0217 27.9931C59.2878 24.4288 59.8579 25.6481 53.302 32.683C48.1714 38.217 45.8911 43.8449 46.9362 48.7224C47.6963 52.4743 49.1215 54.2564 51.4968 54.2564C53.7771 54.2564 53.302 56.5076 50.9267 56.8828C45.321 58.0084 38.9552 54.1627 38.9552 49.6604C38.9552 46.3774 36.2948 43.9387 32.6844 43.9387C30.4991 43.9387 29.0739 43.2821 27.6487 41.5C26.5086 40.093 25.6534 38.686 25.6534 38.217C25.6534 37.748 27.5537 36.0597 29.929 34.3713C34.9646 30.7132 36.3898 27.1489 35.5347 20.583C34.5846 13.2668 35.5347 11.9537 40.3804 14.111Z" fill="white"/>
<path d="M69.3591 37.1861C69.3591 39.4373 74.5848 44.4086 75.5349 43.0954C76.2 41.9698 72.5895 36.9047 70.5943 36.0606C69.8342 35.7792 69.3591 36.2482 69.3591 37.1861Z" fill="white"/>
<path d="M19.4775 53.4131C15.2969 53.8821 9.97624 54.3511 7.69594 54.6325C1.90019 55.1953 1.42513 56.2271 5.13061 59.7914L8.36103 62.8867L14.4418 61.3859C17.7672 60.5418 21.9478 59.8852 23.563 59.8852C27.7435 59.8852 33.2543 57.5402 33.2543 55.7581C33.2543 54.1635 30.3089 52.2875 28.3136 52.4751C27.6485 52.5689 23.658 52.9441 19.4775 53.4131ZM27.5535 56.0395C27.5535 56.5084 24.7982 57.165 21.2827 57.5402C17.8623 57.9154 13.7767 58.572 12.0665 59.041C10.2613 59.51 8.74108 59.51 8.17101 58.9472C6.65081 57.4464 7.69594 57.165 17.1972 56.3209C22.0428 55.8519 26.4134 55.3829 26.8884 55.2891C27.2685 55.2891 27.5535 55.5705 27.5535 56.0395Z" fill="white"/>
<path d="M58.1476 61.479C51.0217 66.7316 50.1666 68.6076 54.2521 69.0766C56.6274 69.358 59.0027 67.5758 61.188 63.7301C61.7581 62.7921 62.9933 60.9162 64.0384 59.5092C64.9885 58.1023 65.6536 56.8829 65.4636 56.6953C65.2736 56.4139 61.9481 58.665 58.1476 61.479Z" fill="white"/>
<path d="M0.949891 64.1052C0.949891 64.7618 1.805 65.9812 2.75513 66.8254C4.18031 68.0447 4.65537 68.1385 5.03542 67.2005C5.79552 65.0432 9.31097 68.9827 8.83591 71.4214C8.55088 72.9222 9.501 74.9858 11.5913 77.7997C14.5367 81.5516 15.2017 81.9268 19.2873 82.2082C23.3728 82.4896 23.8479 82.302 24.703 80.1446C25.178 78.7377 26.0331 77.7059 26.6032 77.7059C27.0783 77.7059 28.5985 76.0175 29.9286 73.8602C31.3538 71.7966 32.874 70.2021 33.4441 70.3897C35.2493 71.0463 40.095 78.3625 40.7601 81.5516C41.5202 85.4911 43.7054 86.8981 46.9359 85.3973C48.8361 84.5531 49.4062 83.6152 49.4062 81.364C49.4062 78.9253 48.266 77.2369 43.3254 72.3594C35.2493 64.3866 27.7434 61.4789 24.703 65.0432C23.0878 66.9191 10.2611 67.0129 8.64589 65.137C7.2207 63.4486 0.949891 62.6982 0.949891 64.1052ZM30.0237 68.5137C29.1685 69.7331 28.0284 71.609 27.4583 72.7346C26.8883 73.8602 25.5581 74.9858 24.608 75.1734C23.5628 75.4548 22.8027 76.4865 22.8027 77.5183C22.8027 79.8632 21.7576 80.7074 20.1424 79.6756C19.1923 79.1129 19.2873 78.6439 20.4274 77.7059C21.1875 77.0493 21.8526 75.361 21.8526 73.954C21.8526 71.2339 20.4274 70.2021 16.912 70.2021C15.7718 70.2021 15.2017 69.9207 15.4868 69.6393C15.7718 69.2641 18.2421 69.0765 20.8075 69.0765C24.1329 69.1703 25.6531 68.7951 26.0331 67.8571C26.3182 67.1067 27.6484 66.4502 29.0735 66.4502C31.5439 66.4502 31.5439 66.544 30.0237 68.5137ZM16.912 72.6408C21.1875 73.7664 18.5272 77.8935 14.0616 77.0493C12.3514 76.7679 11.4012 75.9237 11.4012 74.9858C11.4012 72.1718 12.7314 71.609 16.912 72.6408ZM44.6556 77.7997C46.1758 79.957 47.2209 82.0206 46.9359 82.4896C46.0807 83.9903 43.7054 83.4276 43.7054 81.6454C43.7054 80.8012 43.0403 78.8315 42.2802 77.3307C39.6199 72.4532 40.8551 72.6408 44.6556 77.7997Z" fill="white"/>
<path d="M19.9526 87.0858C19.9526 88.3052 24.0381 90.8377 26.6985 91.3067C27.9336 91.4943 32.1142 92.1509 35.9147 92.8075C40.7603 93.6516 43.1356 93.6516 43.8007 92.9951C45.0358 91.7757 44.2757 91.4943 32.9693 89.4307C28.4087 88.5866 23.5631 87.5548 22.3279 87.0858C20.8077 86.523 19.9526 86.523 19.9526 87.0858Z" fill="white"/>
<path d="M27.7436 95.5279C30.0239 98.6232 31.3541 99.0922 31.3541 97.0286C31.3541 95.7155 27.9336 92.714 26.3184 92.714C25.9384 92.714 26.5085 93.9333 27.7436 95.5279Z" fill="white"/>
</svg>
