<svg width="164" height="162" viewBox="0 0 164 162" fill="none" xmlns="http://www.w3.org/2000/svg">
<path d="M60.4276 1.77065C56.7222 7.30472 56.6272 15.6527 60.2376 15.6527C62.5179 15.6527 64.3232 12.5574 63.6581 10.0249L62.993 7.67991L61.9478 10.0249C60.9027 12.3698 60.9027 12.276 60.9027 9.27448C60.8077 7.58612 61.2828 5.33497 61.8528 4.30319C62.3279 3.27142 62.7079 1.67686 62.5179 0.832675C62.2329 -0.480493 61.8528 -0.292898 60.4276 1.77065Z" fill="white"/>
<path d="M35.6296 3.45885C34.6795 4.49062 33.1593 5.3348 32.2092 5.3348C29.5488 5.3348 27.5536 7.96114 27.5536 11.4317V14.527L21.5678 15.1836C18.2424 15.5588 14.0618 15.7464 12.2566 15.6526C5.98578 15.1836 0 15.6526 0 16.5905C0 17.2471 5.22568 17.5285 15.0119 17.3409L29.9289 17.0595V13.7766C30.0239 10.1185 31.069 7.86734 32.4942 8.33633C33.4443 8.71152 36.1047 15.1836 36.1047 17.3409C36.1047 20.0611 29.8339 21.2804 15.582 21.2804C4.94064 21.2804 1.80523 21.5618 2.09027 22.406C2.37531 23.1564 5.13067 23.813 9.59624 24.0944C15.582 24.4695 16.3421 24.7509 14.7269 25.6889C12.5416 27.0021 12.6366 27.0959 17.5773 28.9718C20.7127 30.1912 21.4728 30.9416 21.6628 33.3803C21.9478 36.1943 20.0476 38.5392 11.1164 46.2306C10.1663 46.981 9.50123 48.5756 9.69126 49.7012C9.97629 52.0461 12.0666 52.2337 16.7222 50.3577C19.2875 49.2322 19.9526 49.326 22.5179 51.2019C24.1331 52.4213 26.2234 53.1717 27.1735 52.9841C29.7389 52.5151 29.4538 46.3244 26.6985 43.4167C25.1783 41.8221 24.7032 40.1338 24.7032 36.3819V31.5044L35.6296 32.0672L35.5346 38.164C35.5346 41.5407 34.9645 45.8554 34.2994 47.7314C33.2543 50.8267 24.6082 62.3639 21.4728 64.8964C20.8077 65.3654 19.0975 66.7724 17.6723 67.8979C15.772 69.3987 15.202 70.5243 15.677 71.9312C15.9621 72.963 16.6272 73.8072 17.1022 73.8072C18.4324 73.8072 30.594 64.5212 33.9194 60.9569C37.4349 57.205 38.86 57.2988 40.8553 61.3321C42.8506 65.2716 51.1166 75.8707 53.872 77.9343C59.0026 81.78 83.7059 83.656 84.3709 80.2792C84.656 78.6847 81.9956 77.2777 76.4849 76.0583C72.9695 75.2141 62.3281 68.9297 58.4326 65.3654C56.9124 63.9584 54.347 62.0825 52.7318 61.3321C51.2116 60.5817 48.3613 58.4243 46.651 56.5484C43.8957 53.7345 43.6107 53.1717 45.1309 53.1717C46.176 53.1717 48.3613 51.7647 50.0715 50.1701L53.3019 47.0748L57.3874 51.5771C61.663 56.0794 64.4184 57.0174 66.5086 54.5786C68.0288 52.7965 66.9837 49.9825 63.5632 46.8872C61.378 44.8237 60.8079 43.5105 60.8079 40.4152C60.8079 37.8826 60.1428 35.6315 58.8126 34.0369C57.7675 32.7238 57.1974 31.223 57.4825 30.6602C57.7675 30.1912 60.6179 29.7222 63.7533 29.7222C69.169 29.7222 70.7842 28.7842 68.0288 27.1897C67.2687 26.8145 62.1381 26.7207 56.7224 27.0021C49.0264 27.3773 46.081 27.9401 43.4206 29.5346C40.4752 31.223 39.9052 31.3168 38.86 30.0974C38.195 29.347 36.9598 28.9718 35.9147 29.347C33.8244 30.0036 21.0927 28.0339 20.4276 26.9083C20.1426 26.5331 23.5631 25.9703 27.9336 25.8765C38.29 25.4075 39.8102 24.282 39.5251 16.7781C39.3351 13.8704 38.67 10.4937 38.0049 9.4619C37.3398 8.33633 37.0548 6.74177 37.3398 5.89759C37.9099 4.39682 38.195 4.39682 40.9503 5.99139C44.5608 8.05494 48.4563 12.4634 48.4563 14.527C48.4563 15.2774 47.5062 16.9657 46.366 18.1851C44.5608 20.1549 44.4658 20.53 45.7009 22.7812C47.6012 26.3455 48.9313 26.5331 55.6772 24.282C60.3328 22.7812 62.3281 22.4998 64.2283 23.1564C66.3186 24.0006 66.6036 23.813 66.3186 22.4998C65.8435 20.1549 59.8578 19.7797 54.6321 21.8432C51.1166 23.1564 50.0715 23.1564 48.9313 22.2184C47.6012 21.0928 47.6012 20.8114 48.9313 19.4045C53.0169 14.9022 51.2116 9.8371 43.4206 4.30303C38.955 1.1139 37.9099 1.0201 35.6296 3.45885ZM51.5917 36.0067C50.0715 40.04 47.7912 43.7919 45.4159 46.1368L41.7104 49.8888L42.2805 33.0051L45.6059 31.4106C47.4111 30.4726 50.0715 29.7222 51.4967 29.7222H53.967L51.5917 36.0067ZM39.9052 35.2563C39.9052 36.8509 39.5251 38.3516 38.955 38.633C38.385 39.0082 38.0049 37.8826 38.0049 35.9129C38.0049 34.0369 38.48 32.5362 38.955 32.5362C39.5251 32.5362 39.9052 33.7555 39.9052 35.2563ZM57.9575 40.8842C57.9575 44.7299 58.4326 45.7616 61.2829 48.4818C64.7034 51.7647 65.3685 53.1717 63.5632 53.1717C62.2331 53.1717 56.0573 46.4182 56.0573 44.9175C56.0573 43.6043 53.5869 43.4167 52.7318 44.7299C52.4468 45.1989 51.7817 45.6678 51.3066 45.6678C50.8316 45.6678 51.2116 43.8857 52.1618 41.6345C53.1119 39.4772 54.157 36.9447 54.5371 35.9129C55.6772 32.7238 57.9575 36.0067 57.9575 40.8842ZM23.278 42.6663C26.4134 48.388 26.8885 49.5136 26.3184 50.0763C25.9384 50.3577 24.7032 49.795 23.468 48.6694C21.0927 46.4182 17.1972 45.9492 15.392 47.7314C14.8219 48.2942 14.0618 48.5756 13.7768 48.2942C13.2067 47.7314 20.4276 40.978 21.6628 40.978C22.0429 40.978 22.803 41.7283 23.278 42.6663ZM41.5204 55.4228C46.081 61.2383 71.2592 78.4033 75.3448 78.4971C76.1999 78.4971 76.96 78.9661 76.96 79.5288C76.96 80.2792 75.9148 80.373 73.9196 79.9978C72.2094 79.6226 68.0288 78.8723 64.6084 78.4033C61.2829 77.9343 57.5775 76.9025 56.3423 76.1521C53.967 74.5576 43.7057 62.1763 43.7057 60.8631C43.7057 58.9871 39.6201 55.0476 37.7199 55.0476C36.5797 55.0476 34.1094 56.8298 31.7341 59.2685C29.5488 61.6135 27.4586 63.4894 27.0785 63.4894C26.6985 63.4894 27.9336 61.8011 29.9289 59.6437C33.8244 55.4228 37.9099 47.45 38.0999 43.7919C38.195 42.4787 38.67 44.1671 39.1451 47.45C39.6201 50.7329 40.6653 54.2972 41.5204 55.4228ZM47.5062 48.9508C46.8411 49.795 46.081 50.1701 45.7009 49.8888C45.4159 49.6074 45.7959 48.9508 46.556 48.4818C48.5513 47.1686 48.8363 47.3562 47.5062 48.9508Z" fill="white"/>
<path d="M91.2119 58.8932C89.8817 63.6768 90.4518 67.2412 93.2072 70.8993C94.6324 72.869 95.1074 74.3698 94.6323 76.0581C94.1573 77.8403 94.4423 78.6845 95.4875 79.0597C96.5326 79.5287 96.9126 81.1232 96.9126 85.5317C96.9126 90.034 97.2927 91.7224 98.7179 92.9417C101.093 95.0991 102.898 94.0673 107.649 88.1581C112.78 81.7798 122.756 65.5528 122.186 64.521C121.901 64.052 120.286 63.4892 118.67 63.1141C116.39 62.7389 115.06 63.1141 112.495 64.99C110.689 66.397 109.074 67.335 108.884 67.1474C108.789 66.9598 108.219 65.3652 107.744 63.583C106.509 59.0808 103.944 58.2366 104.989 62.6451C105.464 64.4272 105.749 67.4288 105.654 69.3047C105.559 72.2124 105.844 72.869 107.364 72.869C108.314 72.869 110.024 71.7435 110.974 70.2427C113.445 66.9598 118.765 63.7706 118.765 65.6466C118.765 66.397 117.53 68.6481 116.105 70.6179C114.585 72.6814 112.21 76.3395 110.784 78.8721C107.744 84.3124 101.473 91.6286 100.523 90.972C100.048 90.7844 99.763 87.8767 99.763 84.6875C99.763 80.8418 99.288 78.3093 98.4328 77.6527C97.7678 77.0899 97.3877 75.5892 97.5777 74.4636C97.8628 72.9628 97.1027 71.2745 95.4875 69.2109C93.3022 66.7722 93.0171 65.6466 93.3972 62.7389C93.7772 60.8629 94.1573 58.4242 94.2523 57.4862C94.8224 53.8281 92.257 55.0474 91.2119 58.8932Z" fill="white"/>
<path d="M148.219 59.3625C145.844 60.1128 142.043 61.3322 139.668 62.0826C137.293 62.833 134.252 63.4896 132.827 63.4896C128.362 63.4896 124.466 68.7422 124.466 74.9329C124.466 78.4034 129.217 83.1871 132.637 83.1871C136.248 83.1871 153.54 73.7135 153.35 71.9314C153.255 71.3686 153.16 70.1492 153.16 69.1174C152.97 67.2415 152.875 67.2415 150.119 68.6484C148.504 69.4926 144.609 71.8376 141.378 73.8073C135.107 77.8406 133.397 78.2158 130.737 76.3399C128.647 74.8391 129.217 72.2128 132.637 68.2732C134.252 66.3035 137.293 64.7089 142.423 63.0206C146.509 61.7074 150.689 60.019 151.64 59.2687C153.825 57.6741 153.635 57.6741 148.219 59.3625Z" fill="white"/>
<path d="M40.6652 75.4013C38.2899 75.9641 31.354 85.8128 31.354 88.533C31.354 91.0655 30.5939 91.1593 25.9383 89.2833C19.4775 86.5632 20.4276 89.2833 28.9787 97.35C33.5393 101.665 37.6248 105.417 38.1949 105.604C39.7151 106.073 36.4847 100.633 33.3493 97.35C30.0239 93.7856 29.8338 93.5042 31.8291 93.5042C32.5892 93.5042 33.2543 92.7539 33.2543 91.8159C33.3493 86.657 40.3802 77.5586 44.1807 77.5586C46.936 77.5586 47.2211 78.309 45.0358 79.9036C44.1807 80.4664 43.1356 83.1865 42.6605 85.8128C42.2804 88.4392 40.9503 91.8159 39.8101 93.4104C38.0999 95.6616 37.9099 96.881 38.3849 100.258C39.24 105.417 41.2353 107.762 46.841 110.2C51.3066 112.17 53.2069 111.42 49.2163 109.356C41.9004 105.698 39.3351 99.5073 42.6605 94.1608C43.8006 92.3787 44.6558 89.9399 44.6558 88.7206C44.6558 85.5314 45.7009 82.2485 46.651 82.2485C47.1261 82.2485 49.5964 83.4679 52.0667 85.0624C60.6178 90.2213 64.4183 87.595 56.3423 82.1547C53.7769 80.4664 50.5465 78.1214 49.1213 76.902C46.556 74.8385 44.2757 74.4633 40.6652 75.4013Z" fill="white"/>
<path d="M153.065 91.91C152.495 92.6604 151.735 94.6302 151.355 96.4123C150.689 100.164 148.789 104.667 147.079 106.636C145.369 108.606 128.932 120.706 128.457 120.331C128.267 120.143 129.027 118.267 130.072 116.11C133.777 108.981 131.877 101.946 126.271 101.946C124.086 101.946 121.901 103.353 116.865 108.043C109.644 114.703 107.459 115.735 109.739 111.326C111.734 107.574 111.544 102.603 109.454 100.727C106.034 97.7255 102.898 98.7573 96.2474 104.948L90.0716 110.857L87.5063 107.574C81.5205 99.7891 77.34 96.3185 73.9195 96.3185C67.6487 96.3185 66.6986 100.258 71.4492 106.636C74.2996 110.388 74.4896 111.232 74.2046 116.673C74.0146 121.081 74.3946 123.238 75.5348 125.114C76.9599 127.272 77.53 127.459 81.3305 126.897L85.5111 126.334V129.992C85.5111 133.087 86.0811 134.119 88.5514 136.089C91.4018 138.246 91.7819 138.34 94.2522 137.027C95.7724 136.276 97.4826 134.869 98.1477 133.838C100.048 130.836 100.713 131.68 99.1928 135.245C97.2926 139.747 97.4826 141.904 99.9529 143.593C103.088 145.75 103.563 145.469 103.563 141.529C103.563 139.653 104.228 136.089 105.179 133.65C107.079 128.397 106.034 126.334 101.283 126.334C99.0978 126.334 97.3876 127.178 95.0123 129.617C93.3021 131.399 91.5918 132.618 91.2118 132.431C90.8317 132.149 90.8317 130.086 91.3068 127.647C92.447 121.925 91.1168 119.299 87.6013 120.237C79.9053 122.113 79.8103 122.019 79.8103 119.018C79.8103 117.329 80.3804 116.016 81.3305 115.641C82.8507 115.078 82.8507 114.14 81.2355 109.919C80.8554 108.887 81.9006 109.638 83.5158 111.514C85.9861 114.328 87.2213 115.078 89.8816 115.078C92.637 115.078 94.0622 114.14 98.7178 109.45C106.414 101.759 108.789 102.228 104.419 110.576C102.043 115.172 102.993 118.455 106.889 119.393C110.404 120.237 112.875 118.924 120.096 112.264C125.226 107.48 126.461 106.73 126.936 108.043C127.316 108.887 126.651 111.608 125.606 113.953C122.376 121.081 122.281 122.301 124.466 124.458C127.221 127.178 129.882 126.428 137.198 120.987C149.739 111.608 152.78 108.606 154.49 104.01C156.865 97.7255 157.245 97.5379 158.671 102.509C159.811 106.449 159.716 107.199 158.195 110.107C154.68 116.485 143.849 123.801 134.347 126.24C131.497 126.99 129.502 128.491 126.556 132.055C123.041 136.37 122.566 137.402 122.566 141.717C122.661 144.343 123.231 148.189 123.991 150.252C125.701 154.755 125.796 157.944 124.371 158.413C123.706 158.6 124.371 159.538 125.701 160.382C127.887 161.789 128.267 161.789 129.597 160.476C131.592 158.6 131.497 156.162 129.217 149.033C128.172 145.75 127.316 142.092 127.316 140.872C127.316 137.496 133.397 131.305 137.578 130.555C144.799 129.335 157.72 120.706 161.521 114.703L163.516 111.42L160.666 104.104C159.051 100.07 157.53 95.3806 157.15 93.6922C156.485 90.5031 154.87 89.8465 153.065 91.91Z" fill="white"/>
<path d="M108.599 141.06C104.514 145.093 104.419 145.468 106.034 146.688C108.504 148.47 109.834 148.188 111.924 145.374L113.825 142.842L114.49 148.188C115.06 152.691 115.63 153.91 118.005 155.598L120.856 157.568L120.381 153.91C120.096 151.94 119.525 147.813 119.24 144.812C118.195 135.526 115.06 134.4 108.599 141.06Z" fill="white"/>
</svg>
