<svg width="130" height="104" viewBox="0 0 130 104" fill="none" xmlns="http://www.w3.org/2000/svg">
<path d="M41.9008 2.53254C38.9554 5.53407 37.1502 9.75497 37.9103 11.6309C38.6704 13.5069 42.5659 14.7263 49.1217 15.3828C56.7227 16.0394 57.8629 17.3526 59.193 27.2014C60.6182 37.8005 60.7132 38.1757 64.1337 39.3013C66.604 40.1455 67.6491 40.0517 70.0244 38.6447C76.0102 35.1742 78.8606 34.6114 81.4259 36.6749C83.7062 38.4571 83.7062 38.7385 83.2312 46.8989C82.7561 54.4965 82.8511 55.6221 84.5613 57.4981C87.6967 60.8748 88.2668 62.2817 85.9865 60.8748C84.4663 59.9368 83.2312 59.9368 80.2858 60.781C78.1955 61.4376 75.0601 61.9065 73.3499 61.9065C69.9294 61.9065 63.9437 64.9081 63.9437 66.5964C63.9437 68.9414 67.3641 72.4119 72.0197 74.8506C76.9603 77.5708 79.1456 77.477 79.1456 74.5692C79.1456 74.0065 80.2858 71.9429 81.6159 69.9732C83.6112 67.0654 86.0815 65.4709 94.9177 61.3438C100.903 58.6236 105.749 55.9035 105.749 55.4345C105.749 53.7461 104.229 53.5585 100.238 54.5903C97.9581 55.1531 95.9628 55.3407 95.6778 55.0593C94.8227 54.2151 97.1029 48.2121 99.0032 46.5237C100.523 45.1167 100.903 45.2105 103.469 48.4935C107.269 53.1834 111.355 61.5314 112.115 65.8461C112.685 69.6918 113.825 70.4421 114.68 67.722C115.25 65.9398 112.875 58.3422 110.025 52.5268C107.649 47.7431 102.899 43.147 100.428 43.147C97.673 43.147 94.5376 47.0865 93.3025 52.1516C92.1623 56.6539 89.692 57.8732 86.7466 55.5283C84.9414 54.0275 84.9414 53.3709 85.7965 46.0547C86.8416 37.2377 86.2715 36.0184 80.7608 33.1106C78.2905 31.8913 77.7204 31.9851 72.3047 34.6114C67.9342 36.8625 66.1289 37.2377 64.7988 36.4873C63.7536 36.0184 62.9935 35.4556 62.9935 35.1742C62.9935 34.9866 62.5185 31.5161 62.0434 27.4828C60.3332 14.7263 58.908 13.2255 48.9317 12.5689C41.1407 12.0999 39.7155 11.0681 41.6158 7.41003C42.4709 5.90926 44.1811 4.03331 45.4163 3.18912C47.7916 1.68836 47.7916 0 45.5113 0C44.8462 0 43.231 1.12557 41.9008 2.53254ZM82.6611 64.8143C81.2359 65.9399 79.1456 68.4724 78.1005 70.4421L76.2953 74.1003L72.6848 72.3181C70.7845 71.2863 68.5993 69.598 68.0292 68.5662C66.9841 66.9716 67.0791 66.5026 68.5993 65.6585C69.6444 65.1895 72.1147 64.7205 74.11 64.6267C76.1052 64.5329 78.7656 64.1577 80.0957 63.7825C84.3713 62.4693 85.4164 62.8445 82.6611 64.8143Z" fill="white"/>
<path d="M127.602 32.8294C127.602 33.2984 128.077 33.7674 128.552 33.7674C129.122 33.7674 129.502 33.2984 129.502 32.8294C129.502 32.2666 129.122 31.8914 128.552 31.8914C128.077 31.8914 127.602 32.2666 127.602 32.8294Z" fill="white"/>
<path d="M28.8841 34.331C25.8437 36.4883 21.1881 43.9922 21.1881 46.7123C21.1881 48.0255 22.8034 51.027 24.7036 53.3719C30.4993 60.5006 44.1811 74.1012 45.0362 73.5385C46.8415 72.5067 45.7013 69.13 40.4756 60.313C37.5303 55.2479 34.3949 49.9952 33.6348 48.4945C32.2096 46.0557 32.2096 45.6805 34.7749 41.272C37.7203 35.9255 38.0053 34.2372 35.82 33.393C33.3497 32.455 31.2594 32.7364 28.8841 34.331ZM32.1146 40.0527C29.1692 45.5867 29.1692 46.3371 32.2096 51.5898C33.5397 53.9347 35.9151 58.1556 37.5303 60.9696L40.4756 66.1284L37.5303 63.3145C32.0195 58.0618 24.0385 48.1193 24.0385 46.5247C24.0385 44.6487 29.1692 36.9573 30.8794 36.3007C34.2048 34.9876 34.4899 35.8318 32.1146 40.0527Z" fill="white"/>
<path d="M9.40662 40.3336C9.21659 41.084 8.74153 44.8359 8.36148 48.5878C8.07644 52.3397 7.12632 57.2172 6.36622 59.2807C5.60612 61.3443 5.03605 64.0644 5.03605 65.3776C5.03605 66.6908 4.656 67.3474 4.08593 67.066C3.61086 66.7846 3.1358 65.5652 3.1358 64.3458C3.1358 63.1265 2.66074 60.7815 2.09067 59.0932C0.285432 54.0281 -0.759704 57.9676 0.665481 64.721C1.71062 69.9737 3.99091 73.538 5.4161 72.131C5.60612 71.9434 6.74627 68.5667 7.88642 64.721C10.5468 55.435 12.067 42.7723 10.8318 40.615C10.0717 39.208 9.88168 39.1142 9.40662 40.3336Z" fill="white"/>
<path d="M115.25 45.6802C115.25 46.0554 116.01 48.0252 117.056 50.0887C118.006 52.2461 119.241 54.9662 119.716 56.2794C120.666 58.4367 120.856 58.4367 121.426 56.8422C122.281 54.8724 120.476 49.1508 118.291 46.6182C116.866 45.0237 115.25 44.4609 115.25 45.6802Z" fill="white"/>
<path d="M48.7417 57.6868C47.6965 58.9061 47.8866 59.8441 49.5018 62.7518C52.0671 67.2541 52.1621 70.3495 49.6918 73.4448C45.3212 78.8851 34.5848 77.1029 30.2143 70.2557C27.2689 65.7534 23.9435 63.596 20.523 63.9712C17.1026 64.3464 16.5325 66.9727 19.1928 70.4433C21.1881 73.0696 21.8532 75.9773 20.428 75.9773C20.0479 75.9773 18.2427 77.1967 16.5325 78.6037C12.732 81.699 12.3519 85.4509 15.2973 88.4524C16.9125 90.047 18.7178 90.4222 25.6537 90.7036C45.2262 91.5478 51.117 91.2664 55.0125 89.3904C57.0077 88.3586 60.7132 86.9517 63.1835 86.2951C67.2691 85.2633 71.5446 82.4494 71.5446 80.8548C71.5446 79.5416 62.6135 71.5688 59.4781 69.9743C56.5327 68.4735 56.4377 68.2859 57.0077 63.7836C57.3878 60.6883 57.1978 58.6247 56.3426 57.6868C54.8225 55.8108 50.2619 55.9046 48.7417 57.6868ZM54.8225 60.5945C55.1075 61.4387 55.1075 62.658 54.6324 63.3146C54.1574 64.2526 53.4923 63.8774 52.3521 61.8139C50.8319 59.1875 50.8319 59.0937 52.4471 59.0937C53.4923 59.0937 54.5374 59.7503 54.8225 60.5945ZM24.9886 68.6611C32.0195 76.7277 33.1596 77.6657 37.9103 78.6037C45.3212 80.1982 51.497 77.7595 53.5873 72.5068C54.3474 70.5371 54.3474 70.5371 57.8628 72.2254C62.0434 74.3828 68.1242 80.6672 67.079 81.699C65.9389 82.8246 52.9222 87.1393 47.3165 88.2648C44.7511 88.8276 40.6656 89.0152 38.2903 88.64C35.915 88.2648 30.4043 87.8896 26.0337 87.7959C19.5729 87.6083 17.8627 87.2331 16.8175 85.9199C15.3923 83.8563 16.3425 81.23 19.1928 79.7292C24.2285 77.1029 25.4636 72.882 22.1382 69.8805C21.0931 68.9425 20.238 67.8169 20.238 67.3479C20.238 65.8472 23.1834 66.5976 24.9886 68.6611Z" fill="white"/>
<path d="M57.2928 97.0813C44.9412 99.52 41.1407 100.739 41.1407 102.334C41.1407 102.991 42.0909 103.178 43.8011 102.897C45.2263 102.522 51.4971 101.208 57.7679 99.8952C65.9389 98.113 72.3998 97.4565 80.9509 97.2689C89.407 97.1751 92.9224 96.7061 93.2075 95.8619C93.8726 93.7983 70.0245 94.5487 57.2928 97.0813Z" fill="white"/>
</svg>
