<svg width="171" height="243" viewBox="0 0 171 243" fill="none" xmlns="http://www.w3.org/2000/svg">
<path d="M168.312 154.564C167.802 152.683 166.701 151.686 163.96 150.699C163.186 150.362 159.716 151.752 156.314 153.69C148.928 157.727 146.429 158.297 139.64 157.205C134.256 156.414 118.931 157.304 110.67 158.888C108.123 159.333 105.308 159.454 104.448 159.08C103.588 158.705 101.239 154.469 99.2027 149.748C96.0717 142.373 94.8071 140.579 91.2789 138.109C89.0507 136.413 86.2027 134.965 85.057 134.777C82.6415 134.45 77.2034 138.714 75.7237 142.111C74.1782 145.895 75.9914 153.006 79.947 158.253C84.2668 164.072 84.2035 165.392 79.4763 164.266C74.8731 163.09 71.9163 163.771 71.7696 165.987C71.6607 168.116 73.8333 170.409 74.9563 169.24C75.3939 168.706 76.7875 168.794 78.0775 169.356C79.4534 169.956 81.8966 169.983 83.6039 169.587C86.1408 168.93 86.9021 168.122 87.8305 165.521C88.8246 162.534 88.5262 161.575 84.5681 155.395C82.2008 151.669 80.3293 147.745 80.4406 146.55C80.6911 143.861 83.734 139.693 85.0239 140.255C87.5658 141.466 92.2625 145.481 92.5811 146.863C92.8315 147.698 94.3692 151.684 96.0788 155.745C98.3069 160.964 99.8497 163.295 101.57 164.044C102.945 164.643 110.427 164.378 119.348 163.393C127.811 162.52 137.182 162.145 140.065 162.572C146.682 163.589 151.776 162.698 157.178 159.456C161.638 156.734 163.431 156.375 160.431 158.8C158.44 160.316 148.24 164.475 142.622 165.862C139.38 166.73 127.11 168.122 115.956 169.067C109.83 169.507 100.049 173.641 97.9194 176.652C96.2651 179.04 93.6368 191.886 92.7562 201.659C92.1717 207.933 87.2999 220.527 82.8886 226.896C80.0556 231.051 80.1645 228.922 83.5085 219.601C88.6511 204.741 92.142 189.68 92.1221 182.21C91.9959 174.279 91.6494 173.195 88.2097 171.697C86.5758 170.985 84.6586 171.394 81.2086 173.207C78.616 174.462 76.3674 175.866 76.2536 176.127C76.1018 176.476 76.6582 177.547 77.4625 178.519C78.717 180.102 79.3088 180.152 82.5109 178.438C84.5218 177.345 86.2189 176.737 86.2771 177.073C86.7803 179.676 86.522 190.134 85.9654 192.586C85.0396 196.121 81.311 207.969 76.3404 222.904C74.3143 228.965 73.315 233.608 73.6615 234.691C74.008 235.775 74.013 237.643 73.6917 238.85C72.8974 241.613 74.5439 243.47 75.6063 241.031C76.0236 240.073 76.957 239.34 77.6728 239.34C78.4745 239.379 81.0267 237.278 83.4726 234.716C87.3653 230.712 88.5339 228.733 92.7733 218.766C96.9368 208.972 97.7792 206.334 98.3435 199.636C99.4947 187.598 101.536 180.093 104.232 178.365C107.948 175.942 113.738 174.629 127.687 173.14C142.561 171.639 146.062 170.884 155.663 167.397C164.645 164.159 169.461 159.209 168.312 154.564Z" fill="white"/>
<path d="M170.479 118.821C169.632 116.068 169.192 115.669 167.179 115.829C165.499 115.926 164.49 116.834 163.618 118.837C161.758 123.106 160.633 123.341 154.499 120.98L148.796 118.807L152.395 108.664C154.366 103.201 156.256 96.0437 156.696 92.9192C157.217 87.9645 156.957 86.9183 154.678 84.1639C153.165 82.4688 151.413 80.1508 150.846 78.8677C149.819 76.7623 149.819 76.7623 150.257 79.751C150.462 81.3947 150.618 82.9139 150.542 83.0881C150.163 83.9592 140.137 75.0323 139.503 73.2013C138.916 71.4948 139.03 71.2335 140.823 70.8746C141.862 70.602 142.854 70.2048 142.968 69.9435C143.044 69.7692 141.291 67.4513 139.146 64.8589C135.183 60.3345 134.963 60.135 132.168 60.6794C130.623 60.939 128.764 61.6837 128.164 62.3553C127.041 63.5243 125.791 74.3797 125.601 85.3858L125.492 91.0382L124.46 87.0652C123.891 84.8483 122.303 79.8039 120.975 75.8056C118.831 69.6897 118.188 68.5808 115.935 68.1174C114.531 67.8169 113.527 67.0686 113.583 66.471C113.712 64.7655 109.05 63.2532 105.846 64.0337C102.059 64.9753 100.871 66.5301 100.397 71.6094C100.053 74.9831 99.7877 75.5928 98.69 75.5292C98.0122 75.4412 96.143 75.9743 94.7039 76.6947C88.8611 79.5387 89.5061 78.0579 102.902 55.2897C106.37 49.4422 110.245 42.4248 111.469 39.8491L113.642 35.0956L110.918 33.5982C108.28 32.1383 103.052 32.8664 99.0886 35.389C97.4116 36.4204 82.781 72.1231 80.1629 81.6571C78.4604 87.4445 77.5778 85.7128 78.6859 78.941C79.1083 76.3269 79.3487 73.4262 79.0604 72.6788C78.7317 71.0848 75.4917 69.3626 74.0424 69.8713C73.5467 70.0699 71.9229 69.5699 70.413 68.8086C68.769 67.8852 66.1815 67.4836 63.6725 67.8416C59.6939 68.2849 59.4941 68.5088 58.2925 72.4417L57.053 76.4617L53.4489 74.1664C48.0667 70.7857 47.7025 70.2125 49.1064 66.9895C49.9791 64.986 49.9943 63.5418 49.142 62.4451C46.279 58.9181 45.9556 48.621 48.7074 49.8197C49.3954 50.1193 51.2847 50.0096 52.906 49.5758C54.5273 49.142 56.2447 48.9574 56.6746 49.1447C57.1046 49.3319 56.2648 52.9042 54.6535 57.0732C53.0422 61.2422 52.0126 65.25 52.3009 65.9974C53.1178 68.115 55.5687 67.4208 59.3298 64.1882C63.5766 60.5454 66.2908 54.7841 66.1341 49.7415C66.0786 46.8155 66.372 45.907 67.6873 45.2362C69.1264 44.5159 69.5185 44.7903 71.2813 47.3199C72.4498 48.8652 74.0861 50.5107 74.9461 50.8853C77.0959 51.8217 88.1162 47.1912 90.2181 44.4795C93.309 40.4369 88.3644 36.5213 78.7127 35.4263C74.2258 34.9227 73.7958 34.7354 73.457 32.9297C73.1485 31.759 74.1982 28.1745 76.0195 23.9933C77.7269 20.0735 78.9765 16.2651 78.8121 15.4681C78.491 13.1519 75.4078 12.9489 72.9037 15.1745C70.8372 16.8652 70.4174 16.8896 67.8072 15.1309C66.1531 13.9958 64.5167 12.3504 64.0463 11.3164C62.8273 8.71271 61.9395 8.63692 61.555 11.1639C61.2919 12.7075 60.5685 13.4287 59.2229 13.4644C52.9351 14.0419 51.5895 14.0776 51.3012 13.3302C51.195 12.8694 52.2042 11.9617 53.7294 11.2788C55.2546 10.5959 56.6078 9.83808 56.7596 9.48965C57.2528 8.35725 54.7033 7.86855 53.0163 8.68822C52.0728 9.20999 50.8031 9.07147 50.229 8.51049C49.7409 7.98697 48.671 7.62458 48.0033 7.74827C47.2495 7.8345 45.2539 7.48343 43.5821 6.85885C36.9429 4.48509 36.695 4.5844 34.3906 10.1096C32.7692 14.0669 32.018 15.0869 30.986 14.6375C30.0401 14.2254 30.1413 12.8186 31.4111 9.43364C32.3395 6.8326 32.9921 4.62965 32.8201 4.55474C32.6481 4.47982 31.2925 4.30385 29.8609 4.30209L27.2456 4.19928L24.0812 12.8735C22.2903 17.6896 20.7473 22.4065 20.6258 23.39C20.5524 24.498 19.0955 25.7288 16.6168 26.7218C12.6129 28.3977 9.46379 32.1041 4.24048 41.7469C-1.76189 52.7085 -1.30684 58.7102 5.0596 51.8453C10.303 46.1494 18.2072 39.7471 23.2305 37.3752C25.823 36.1208 29.053 34.1078 30.4719 32.9641C33.062 30.776 41.482 28.1219 40.7991 29.6898C40.5714 30.2125 41.0165 32.479 41.8055 34.8954L43.1054 39.1924L37.3462 41.1401C32.4545 42.7402 31.5591 43.3866 31.1544 45.4902C30.9292 46.9467 31.4299 48.6157 32.2241 49.3761C33.1903 50.2115 33.4052 52.0669 32.9827 54.681C31.7229 61.8012 32.3829 65.9231 35.4558 69.438C37.2363 71.4572 38.2252 73.6497 38.038 75.019C37.8407 76.1767 38.5437 78.5556 39.6363 80.2751C40.605 82.0443 43.8397 88.9459 46.6064 95.7473C51.3029 106.809 62.2717 125.785 65.4661 128.316C67.4363 129.9 69.6267 128.16 70.1605 124.35C70.3275 122.558 71.1977 119.62 71.9186 117.965C73.8537 113.523 72.7713 108.491 68.4592 101.95C66.4561 98.7972 64.3872 96.0306 63.9573 95.8433C63.6133 95.6935 63.4211 95.1952 63.6487 94.6726C64.2179 93.366 68.6844 96.9697 73.8541 102.952C79.5599 109.583 85.3037 112.603 89.2697 111.014C90.633 110.468 91.9761 109.499 92.2417 108.889C93.1902 106.711 92.1713 96.8366 90.9371 95.6772C88.7847 93.807 86.2757 94.165 84.5835 96.6406C82.6535 99.4271 82.0996 99.2895 80.782 95.5029L79.8008 92.5882L82.2643 93.0395C84.7657 93.4036 84.8897 93.354 87.1258 87.2808C88.4335 83.8087 89.7817 81.1833 90.0397 81.2957C92.7055 82.4569 101.024 91.7801 109.203 102.597C112.805 107.482 117.153 109.48 119.027 107.291C119.788 106.482 120.775 104.218 121.189 102.326C121.964 99.1392 122.125 99.0024 122.76 100.833C123.375 102.241 122.497 105.901 119.115 115.309C114.038 129.783 113.998 132.46 118.968 135.143C122.944 137.289 127.132 136.833 133.794 133.517C138.608 131.158 139.733 130.922 142.485 132.121C146.269 133.769 161.659 132.493 165.881 130.083C169.617 128.083 171.683 122.869 170.479 118.821ZM163.496 126.868C161.713 127.438 161.751 127.351 163.655 125.797C166.407 123.472 166.741 123.411 166.058 124.978C165.717 125.762 164.621 126.633 163.496 126.868ZM157.458 128.28C156.942 128.055 154.175 128.301 151.123 128.733C146.524 129.424 145.169 129.248 142.558 127.49C139.518 125.544 139.308 125.556 135.097 128.178C131.096 130.787 123.487 133.691 123.151 132.819C123.141 132.608 125.597 130.258 128.673 127.659C135.585 121.654 139.562 116.753 145.86 105.817C151.741 95.839 152.173 96.9601 147.618 110.003C143.611 121.315 143.841 121.727 153.126 124.838C158.131 126.5 159.861 127.461 159.166 127.883C158.68 128.294 157.888 128.467 157.458 128.28ZM140.842 106.533C135.872 114.421 130.717 121.088 128.144 122.766C125.324 124.543 126.02 120.597 130.307 110.753C134.015 102.005 137.701 88.3763 137.706 83.1969C137.808 81.7901 138.217 81.554 139.593 82.1533C143.979 84.0637 148.24 93.0707 146.571 96.9034C146.116 97.9487 143.503 102.303 140.842 106.533ZM120.584 129.318C119.661 130.263 119.365 130.238 119.18 129.017C118.831 127 121.194 121.811 122.14 122.223C123.516 122.822 122.468 127.34 120.584 129.318ZM126.554 106.217C126.41 105.843 126.665 105.022 127.189 104.524C127.75 103.94 127.895 104.313 127.477 105.272C127.146 106.267 126.66 106.678 126.554 106.217ZM129.739 94.4424C129.223 94.2177 129.203 93.7943 130.083 76.9747C130.579 66.2055 130.787 65.2595 132.58 64.9007C133.62 64.628 134.793 64.5174 135.137 64.6672C135.481 64.8171 134.601 71.0662 133.323 78.6968C130.852 93.0618 130.427 94.7421 129.739 94.4424ZM119.996 98.4894C119.308 98.1897 118.106 98.5991 117.259 99.37C115.85 100.725 115.592 100.613 114.404 98.6443C112.851 96.1025 113.541 93.8125 116.286 92.2097C118.086 91.1287 118.172 91.1662 120.004 94.2437C121.969 97.4833 121.888 99.3134 119.996 98.4894ZM118.337 84.9162C117.343 84.3796 116.438 84.8142 115.621 86.2202C113.321 90.0895 112.254 90.6609 112.656 87.6234C112.909 85.8682 113.64 84.4248 114.784 83.6792C116.822 82.2872 116.321 80.6182 112.376 75.5834L109.733 72.2558L104.148 75.2122L104.33 71.9753C104.766 66.9831 109.076 65.5442 110.3 70.0154C110.608 71.1861 111.66 72.059 113.36 72.3848C115.576 72.9353 116.208 73.8325 117.93 79.039C119.018 82.4144 119.913 85.2916 119.837 85.4658C119.761 85.6401 119.073 85.3404 118.337 84.9162ZM102.129 87.5981C96.6436 81.1668 95.7205 78.5884 99.6763 80.3115C100.536 80.686 101.083 81.5458 100.779 82.2427C100.475 82.9395 101.348 84.4596 102.668 85.6564C105.529 88.2497 109.456 93.795 108.675 94.18C108.341 94.2418 105.422 91.3124 102.129 87.5981ZM106.596 84.1547C105.218 82.6216 105.225 81.8995 106.452 80.2575C108.392 77.6826 108.554 77.5459 109.922 78.8673C110.545 79.5529 110.491 81.0842 109.657 83.0006C108.367 85.9622 108.243 86.0119 106.596 84.1547ZM83.0783 104.794C82.8962 104.507 83.9534 103.724 85.2307 103.141C87.3655 101.998 87.5375 102.073 87.4464 103.691C87.335 104.886 86.6875 105.433 85.256 105.431C84.1583 105.368 83.1364 105.13 83.0783 104.794ZM101.969 48.9761C92.3368 65.922 88.9626 71.0849 89.0714 68.956C89.1448 67.8479 90.4146 64.4629 92.0385 61.4394C93.6625 58.4159 96.1085 52.3306 97.5756 47.7879C100.037 40.2584 100.378 39.4744 102.771 38.4439C105.859 36.991 109.403 38.0163 107.594 39.8194C106.995 40.491 104.41 44.5467 101.969 48.9761ZM87.5636 79.699C87.0198 79.773 86.6657 79.4115 86.8554 78.976C87.0831 78.4533 87.7028 78.2051 88.1327 78.3923C88.6487 78.6171 88.9168 78.9411 88.8409 79.1154C88.7271 79.3767 88.1934 79.6624 87.5636 79.699ZM85.5074 78.0779C85.9424 76.6092 86.8531 74.5186 87.5942 73.2869C88.3732 71.9681 88.052 73.1755 86.9137 75.7887C85.7754 78.4019 85.1102 79.4594 85.5074 78.0779ZM61.8876 114.218C59.9807 111.314 57.095 106.43 55.3878 103.303C53.8046 100.126 50.2563 93.7099 47.5526 89.1123C43.7362 82.3718 42.7751 79.8805 43.1015 77.0173C43.4836 73.5565 43.5215 73.4694 45.4538 75.1402C46.506 76.013 50.2619 77.9599 53.7876 79.4956C61.4411 82.8293 63.5581 82.197 63.0474 76.7928C62.6858 73.6299 62.8477 73.4931 65.1468 73.1473C66.5683 72.9374 68.7839 73.488 70.562 74.5734C73.162 76.1204 73.5363 76.9053 73.1821 80.0673C72.8304 84.1631 73.2223 87.961 74.502 91.8347C75.5034 95.1727 74.56 95.6945 72.0814 93.1639C69.8329 91.0446 63.7653 88.298 58.3122 86.9591C55.4188 86.3206 54.3312 86.4686 53.5142 87.8746C52.773 89.1063 52.9855 90.0279 54.1337 91.1498C56.5061 93.2195 66.3748 107.674 67.222 110.427C67.7708 112.221 66.6704 118.27 65.5752 119.14C65.4133 119.277 63.7946 117.121 61.8876 114.218ZM83.3789 45.8531C77.4223 48.9585 75.0929 48.6692 72.8875 44.8069C71.3725 42.1779 70.8085 41.8286 68.6232 41.9131C64.8925 42.2571 63.9996 43.8373 63.3316 51.008C62.7092 57.3695 62.5574 57.7179 59.7676 60.1299C58.2348 61.5349 56.5578 62.5663 56.2138 62.4164C55.8699 62.2666 57.5647 57.2013 59.9247 51.0785C63.7645 41.5585 64.1794 39.6665 63.58 36.8146C63.0389 34.2989 63.1603 33.3155 64.2757 32.8686C65.0193 32.5707 66.7115 30.0951 68.0117 27.3452C69.3118 24.5952 71.4972 20.9872 73.0199 19.3705L75.7036 16.4977L72.7567 24.4375C70.341 31.1579 70.0779 32.7014 71.0566 34.6823C72.0354 36.6631 72.9434 37.1623 76.3427 37.8139C83.7332 39.1676 89.0067 41.1537 88.4755 42.3732C88.2478 42.8959 85.9234 44.4742 83.3789 45.8531ZM58.3643 45.7353C55.5265 44.4992 48.9684 36.7718 47.7848 33.1472C46.9578 30.8179 46.3129 28.7752 46.4268 28.5139C46.5027 28.3397 49.6743 29.5139 53.4581 31.1621C60.3376 34.1587 60.3376 34.1587 60.8054 37.7823C61.3591 41.4435 59.8262 46.3721 58.3643 45.7353ZM57.9781 26.1874C48.3746 21.6934 42.6258 13.2822 51.1367 16.0567C52.9325 16.6316 55.8058 16.8468 57.513 16.4505C60.5937 15.7197 67.2027 17.4584 68.4672 19.2528C68.7454 19.7885 67.9689 22.0411 66.5347 24.6291L64.0938 29.0585L57.9781 26.1874ZM52.9827 28.2605C44.5831 24.2909 43.9331 23.9041 44.396 22.1367C45.0866 19.8467 44.8286 19.7343 48.6654 23.3746C50.3397 24.9329 54.2018 27.3407 57.2116 28.6517C60.2214 29.9627 62.5634 31.3974 62.3737 31.8329C62.222 32.1813 57.9804 30.6447 52.9827 28.2605ZM43.8202 67.3814C42.1863 66.6698 40.7168 66.7551 39.6216 67.6253L37.8789 69.0425L36.1818 66.127C35.0791 64.1958 34.7099 61.755 35.1324 59.1409C35.4891 56.9127 35.8155 54.0495 35.8788 52.7298C35.8637 50.6505 36.5112 50.1035 39.5236 48.8248C44.2332 46.9381 45.1412 47.4372 44.2356 51.3954C43.6968 53.337 44.2506 56.9982 45.3861 60.4982C47.733 67.324 47.346 68.9172 43.8202 67.3814ZM49.1577 46.9068C47.1799 46.0453 46.0949 43.6036 45.8168 39.5444C45.7056 37.216 45.7056 37.216 48.2803 39.9956C49.7826 41.4791 51.7731 43.4861 52.7013 44.4086C54.0317 45.8171 54.0519 46.2405 52.7366 46.9112C51.8311 47.3458 50.2756 47.3937 49.1577 46.9068ZM38.1807 46.2708C34.9103 47.4371 33.3422 46.3395 36.2205 44.8988C38.4792 43.7063 41.962 43.4616 41.5447 44.4198C41.355 44.8553 39.8779 45.6628 38.1807 46.2708ZM43.872 33.2047C43.3637 32.2578 43.3232 31.4111 43.5711 31.3118C44.4387 30.9642 45.5414 32.8954 45.0861 33.9407C44.8584 34.4634 44.3424 34.2386 43.872 33.2047ZM31.2738 29.4789C28.6155 31.1191 24.7178 33.2558 22.621 34.3116C17.9317 36.6216 9.95915 42.4761 6.50403 45.9455C4.13401 48.3331 4.08596 48.2086 7.14406 42.5971C8.84385 39.3994 11.219 35.3559 12.4837 33.6268C15.0131 30.1686 20.608 27.4239 24.1312 28.0259C27.7405 28.6653 33.5022 27.6514 34.1093 26.2577C34.4128 25.5608 35.0704 25.2255 35.5004 25.4128C36.7903 25.9746 36.3907 26.4223 31.2738 29.4789ZM34.7039 20.195C34.0867 21.377 31.9519 22.5199 28.7473 23.3003C26.0384 23.8822 23.4914 24.3273 23.2335 24.2149C22.9755 24.1025 23.3726 22.721 24.0935 21.066C24.8144 19.4109 25.0472 17.2323 24.7007 16.1487C23.8459 14.1182 25.1056 10.5216 26.3955 11.0834C26.9115 11.3082 26.914 12.2419 26.4966 13.2001C25.9654 14.4196 26.4738 15.3665 28.4339 16.7385C31.8281 19.046 32.9537 18.8108 35.5033 15.776C37.4155 13.4999 37.5394 13.4503 37.2207 15.5914C37.1093 16.7865 37.3799 18.0443 37.9819 18.3065C38.4599 18.6184 38.126 18.6802 37.2383 18.6044C36.3024 18.4041 35.1592 19.1497 34.7039 20.195ZM38.9914 10.3518C38.5614 10.1645 38.3211 9.54173 38.5488 9.01908C38.7385 8.58354 39.2443 8.59661 39.5605 9.04522C39.9626 9.53129 40.1169 10.1167 40.0031 10.378C39.9272 10.5522 39.5073 10.5766 38.9914 10.3518Z" fill="white"/>
<path d="M66.3072 143.295C65.8116 139.97 64.327 137.976 62.8398 138.572C62.344 138.771 62.7132 141.212 63.7704 143.952C65.6545 149.022 67.0279 148.687 66.3072 143.295Z" fill="white"/>
<path d="M24.8447 5.9516C25.5251 3.44987 25.3431 3.16328 22.1537 2.49949C17.3885 1.46024 17.3025 1.42278 15.1398 6.38791C12.8633 11.6144 12.1652 11.103 13.7437 5.36525L14.8112 1.27032L10.772 0.443618C7.23861 -0.370007 6.74287 -0.171406 6.33811 1.93225C4.71657 9.41306 4.7444 9.11428 7.12191 9.52807C8.73558 9.81641 9.34765 10.2903 9.00617 11.0743C8.74057 11.684 8.68739 13.2154 8.95797 14.4732C9.80768 18.1596 12.8277 16.1588 16.9507 9.0421C20.4464 2.8958 20.4843 2.8087 18.5695 7.67453C16.2272 13.2869 15.1849 19.6727 16.3888 20.1971C18.4526 21.0961 22.6996 13.9298 24.8447 5.9516Z" fill="white"/>
</svg>
