<svg width="284" height="162" viewBox="0 0 284 162" fill="none" xmlns="http://www.w3.org/2000/svg">
<path d="M32.5804 59.853C38.8375 57.65 39.0499 57.6479 41.2056 59.9341C45.1306 64.2167 45.6025 64.5476 47.0247 62.9388C48.0279 61.7538 47.804 60.9168 45.9078 58.9637C44.4864 57.5513 43.7847 55.9638 44.1566 55.2048C45.3135 52.8433 46.5494 53.1246 47.6077 55.9254C48.7956 58.8927 51.4001 59.8316 52.4744 57.6388C52.8049 56.9641 52.752 56.2094 52.2388 55.9627C50.8703 55.3051 51.1785 49.931 52.7697 45.1733C54.1572 41.0472 54.4493 40.6666 56.6173 40.7707C58.6999 40.8337 59.4312 41.4977 61.2622 44.8782C62.4386 47.0064 63.7831 49.007 64.1253 49.1714C64.5529 49.3769 66.7065 48.4321 68.9399 47.1088C71.2145 45.7012 74.0437 44.4559 75.1027 44.2355C76.7134 43.9675 77.0468 43.5026 76.8968 41.8676C76.7468 40.2326 77.824 38.2496 81.3651 33.1786C83.8645 29.5868 86.6444 24.7753 87.4208 22.5435C88.9323 18.1643 89.8616 17.7773 93.9671 19.7502C96.0199 20.7366 96.0228 20.9464 93.8155 24.1577C92.5231 25.933 89.891 29.1486 87.9229 31.2244C82.1014 37.2834 83.5518 40.7936 91.1303 38.9131C95.7027 37.7761 96.1073 36.3034 91.653 36.7678C90.0423 37.0358 88.5969 36.9664 88.5498 36.6311C88.4614 36.3803 89.7981 34.7303 91.5595 33.0761C93.2355 31.3808 95.9444 27.5771 97.5174 24.582L100.374 19.1822L92.8886 15.481C88.7831 13.5081 85.0667 12.0349 84.7717 12.2057C84.4353 12.4608 84.2077 14.4353 84.154 16.7018C84.2272 18.925 83.6748 21.9937 82.931 23.5118C80.7824 27.8974 73.8155 37.1569 72.9602 36.7459C71.2495 35.9239 68.0335 27.6059 68.0698 24.0808C68.0793 21.6889 67.4603 19.9328 66.3455 19.1887C65.3162 18.4857 64.3964 16.4808 64.2877 14.7615C63.8319 9.43698 60.5251 9.93181 59.9632 15.3924C59.9008 17.0295 59.7326 17.1571 59.1194 15.8205C58.81 14.9424 57.4327 13.6555 56.1498 13.039C54.3536 12.1758 53.4214 12.3531 52.4623 13.6635C42.4473 26.7722 41.8275 28.0373 44.7559 30.9032C46.1773 32.3155 47.3748 32.891 48.9441 32.7073C51.9559 32.3833 51.6986 35.2812 48.5715 36.4876C45.6568 37.6918 42.4507 36.2554 41.3483 33.3292C38.1707 24.7171 32.5163 12.1017 31.661 11.6907C30.378 11.0741 14.6673 11.6517 12.2984 12.3889C10.7762 12.9077 10.6936 13.0764 11.9766 13.6929C12.7464 14.0628 13.2241 14.8133 13.0175 15.235C12.5216 16.2471 10.7697 15.5094 9.64037 13.7164C7.68549 10.589 4.31626 12.7209 5.84926 16.0624C6.63643 17.691 6.46825 17.8185 4.46546 17.3771C1.31233 16.6955 -0.555726 19.8613 0.148001 24.6798C0.663296 28.1574 6.17422 36.5362 16.0734 48.8992C17.5006 50.7311 19.2018 53.9451 19.9092 55.9521C21.8162 61.7655 24.7598 62.6591 32.5804 59.853ZM23.7532 54.3609C23.3495 52.8124 21.2177 49.1832 19.0534 46.2676C15.0312 41.1049 14.987 40.9794 17.4501 40.9127C19.3173 40.7681 20.1727 41.1791 20.4409 42.1415C21.6404 45.9479 22.6784 47.2802 24.4985 46.8003C25.9381 46.4502 26.2389 46.6989 26.0468 48.1695C25.5386 51.3637 25.8154 52.9554 27.0716 54.7052C27.679 55.6222 28.372 56.5803 28.5459 56.8723C28.8496 57.3308 25.8407 57.8646 24.8998 57.4125C24.5577 57.2481 24.0714 55.8683 23.7532 54.3609ZM29.6037 50.3997C30.6366 48.2912 33.8964 47.4612 34.5154 49.2173C34.8249 50.0954 34.4117 50.9388 32.9365 51.7928C30.4937 53.328 28.5707 52.5081 29.6037 50.3997ZM40.7601 49.1965C41.9583 46.7507 42.212 46.6642 42.7455 48.3793C43.1434 49.5082 42.907 50.8534 42.193 51.448C40.1808 53.3984 39.3552 52.064 40.7601 49.1965ZM27.1967 39.1363C28.7073 37.7783 30.0498 36.5479 30.0911 36.4636C30.1737 36.2949 30.8964 36.3296 31.746 36.3211C33.8727 36.5095 32.8339 38.1984 29.1697 40.5012C25.0422 43.1023 23.7122 42.1506 27.1967 39.1363ZM14.9799 34.3077C11.2586 29.3936 10.6251 26.5886 12.4845 22.7934C13.8894 19.9259 14.9397 19.0761 18.5771 17.9066C20.9459 17.1694 22.9785 16.6874 23.0256 17.0226C25.0252 29.549 24.4046 33.8353 20.1032 36.1444C17.4893 37.5974 17.5748 37.6385 14.9799 34.3077ZM5.23576 27.0204C3.64407 22.5046 3.92462 21.2849 6.31954 22.4358C7.34593 22.929 7.74094 23.8482 7.32775 24.6915C6.95587 25.4506 7.06746 27.3797 7.5567 28.9693C8.84758 33.2364 6.74192 31.4952 5.23576 27.0204ZM45.2449 44.7874L44.054 41.6103L46.889 40.7846C48.3699 40.3501 49.7268 40.1686 49.8152 40.4195C50.2103 41.3386 47.6332 48.5399 47.12 48.2933C46.7779 48.1289 45.9494 46.5847 45.2449 44.7874ZM37.5825 40.5844C38.037 39.6567 38.751 39.0621 39.1786 39.2676C40.1195 39.7197 39.986 42.3646 38.9712 42.7105C37.449 43.2293 36.7974 42.1868 37.5825 40.5844ZM27.7002 20.2067C27.4857 16.9778 27.7017 14.1642 28.0381 13.9091C28.9645 13.3123 37.2956 32.1111 36.72 33.5016C36.5577 34.0488 35.5784 33.8908 34.5491 33.1878C33.6053 32.5259 31.8149 32.0823 30.6291 32.346C28.5523 32.7026 28.337 32.4949 28.2523 29.4326C28.0994 27.5878 27.9146 23.4355 27.7002 20.2067ZM63.8442 41.1176C62.3112 37.7761 62.6215 35.633 64.9288 33.5117C65.9349 32.5365 66.28 32.9107 67.5919 35.625C68.3377 37.3379 69.3402 39.1741 69.7707 39.5894C70.6318 40.42 67.1321 45.4066 66.1057 44.9134C65.678 44.7079 64.7198 42.9971 63.8442 41.1176ZM55.5897 34.0253C56.4987 32.1698 56.7937 31.999 57.4511 33.461C57.8461 34.3802 57.949 35.68 57.6598 36.2703C57.3292 36.9451 56.4826 37.1634 55.7983 36.8346C54.943 36.4235 54.9285 35.3747 55.5897 34.0253ZM48.4238 25.789C49.4242 24.3942 51.3422 21.7733 52.5492 19.9568C53.883 18.0971 55.2668 16.7824 55.6089 16.9468C56.7208 17.4811 52.6244 25.411 50.1874 27.3658C47.3314 29.7443 46.255 28.7061 48.4238 25.789ZM61.2959 28.8486C62.081 27.2462 62.2933 27.244 62.4818 28.5849C62.8086 30.7217 62.3541 31.6494 61.2422 31.1151C60.729 30.8684 60.8001 29.8607 61.2959 28.8486ZM56.8337 25.6624C57.4209 25.111 57.5535 25.4874 57.099 26.4151C56.73 27.3839 56.2255 27.7666 56.1342 27.306C56.0015 26.9297 56.2879 26.1295 56.8337 25.6624Z" fill="white"/>
<path d="M245.879 160.891C247.526 160.119 249.921 158.248 251.261 156.808C253.48 154.436 254.241 154.177 257.356 155.153C262.603 156.736 268.787 152.31 268 147.66C267.635 145.818 267.249 145.528 265.682 145.921C264.623 146.142 263.319 147.078 262.652 148.008C261.82 149.275 260.761 149.495 258.968 148.842C256.237 147.946 256.434 146.895 260.477 141.232C262.478 138.442 262.605 138.399 269.595 140.091C277.267 141.902 280.955 141.278 282.566 137.989C284.301 134.446 282.157 132.999 275.234 133.111C271.75 133.104 268.815 132.84 268.597 132.422C268.465 132.046 269.548 130.483 270.97 128.874C274.487 125.146 275.476 122.912 274.225 121.582C273.45 120.792 272.86 121.134 271.909 123.074C271.248 124.423 269.115 126.836 267.268 128.449C263.486 131.425 251.7 148.579 250.982 151.986C250.743 153.121 249.158 155.277 247.521 156.678C244.582 159.225 244.496 159.184 244.677 156.875C244.786 155.573 245.537 151.453 246.464 147.835C248.629 138.456 248.265 130.571 245.187 123.049C242.811 117.114 242.803 116.485 244.658 115.501C245.797 114.902 246.797 113.507 247.161 112.119L247.595 109.723L248.827 112.815C249.487 114.487 249.891 116.036 249.64 116.332C248.643 117.937 248.917 119.318 251.146 123.828C253.549 128.629 256.601 131.242 258.454 130.049C258.917 129.75 260.295 128.016 261.46 126.284C262.626 124.552 265.178 121.715 267.067 120.017C271.351 116.449 271.351 116.449 269.811 115.71C268.528 115.093 262.309 120.023 259.098 124.419C256.51 127.76 254.419 127.068 254.403 122.788C254.35 119.012 249.64 107.059 247.758 106.154C244.85 104.757 244.948 102.616 248.212 95.9531C252.344 87.5193 252.023 85.8021 246.304 83.8875L242.08 82.5872L243.65 79.3823C245.055 76.5148 244.961 75.8444 242.755 73.0132C241.499 71.2635 240.202 69.598 240.028 69.3061C239.812 69.0984 237.736 69.455 235.452 70.2333C232.535 71.2277 231.685 71.2362 232.777 70.3021C236.385 67.0348 237.206 64.9285 235.941 62.5494C234.635 60.2547 234.594 60.339 231.454 63.7275C229.695 65.5915 227.485 68.5929 226.491 70.4073C224.794 73.6554 224.838 73.7808 227.879 75.5546C230.577 77.1639 231.639 77.1532 235.274 75.7739C237.64 74.827 239.755 74.1763 240.097 74.3407C240.439 74.5051 239.453 76.9488 237.919 79.6497C235.723 83.7001 235.36 85.0885 236.185 86.4229C237.052 87.6731 237.822 88.043 239.518 87.8161C240.707 87.7622 242.666 88.0782 243.863 88.6536C245.574 89.4757 245.795 90.1028 244.968 91.7896C244.39 92.9703 243.213 93.8634 242.278 93.8308C240.959 93.7182 240.375 94.4794 239.48 97.3837L238.385 101.129L237.69 96.9401C237.216 93.3782 236.523 92.42 234.128 91.2692C230.707 89.6251 229.993 90.2198 231.443 93.7299C232.056 95.0665 232.961 99.0438 233.518 102.437C234.033 105.915 235.406 110.013 236.491 111.681C239.092 115.431 242.506 122.698 242.093 123.541C241.928 123.879 240.777 123.638 239.58 123.063C237.698 122.159 237.359 122.204 237.763 123.753C238.078 125.05 238.635 125.422 239.694 125.202C240.668 124.94 240.927 125.273 240.514 126.117C240.184 126.791 239.296 127.094 238.526 126.724C237.499 126.231 237.375 126.484 237.773 127.613C238.083 128.491 239.628 129.65 241.209 130.306C243.728 131.204 244.12 131.913 244.479 136.357L245.014 141.303L243.047 140.358C242.021 139.865 240.853 138.366 240.452 137.027C239.869 134.767 238.403 133.229 237.866 134.326C237.164 135.76 238.985 141.532 240.439 142.231C241.294 142.642 241.858 143.433 241.651 143.855C241.403 144.361 240.639 144.411 239.869 144.041C237.816 143.054 238.798 146.443 241.027 147.931C242.399 148.799 242.502 150.099 241.619 153.842C240.975 156.45 240.461 159.225 240.555 159.895C240.838 161.907 242.882 162.264 245.879 160.891ZM254.882 151.359C255.336 150.431 257.973 150.656 260.241 151.851C261.825 152.716 261.657 152.843 258.979 152.702C255.197 152.657 254.386 152.371 254.882 151.359ZM241.419 127.073C241.626 126.651 242.175 126.394 242.688 126.64C243.116 126.846 243.337 127.473 243.13 127.895C242.882 128.401 242.289 128.533 241.862 128.327C241.348 128.081 241.171 127.579 241.419 127.073ZM264.856 135.313C265.063 134.892 266.676 134.833 268.254 135.279C269.959 135.682 273.192 135.985 275.443 135.92C280.115 135.873 280.802 136.412 277.935 137.951C275.404 139.236 264.03 137 264.856 135.313Z" fill="white"/>
<path d="M120.766 31.481C121.356 31.1393 121.419 29.5022 120.844 27.8715C120.001 25.2784 120.122 24.8156 121.479 24.6341C124.066 24.3144 124.284 24.7318 123.519 27.8026C122.309 32.4306 125.813 30.8847 128.334 25.7401C130.648 21.0172 130.161 19.6373 126.344 20.0953C124.86 20.3201 122.861 20.0884 122.005 19.6774C117.985 17.7456 115.111 21.8867 116.546 27.3692C117.533 31.1778 119.04 32.6313 120.766 31.481Z" fill="white"/>
<path d="M142.963 29.9581C144.108 29.7787 144.256 28.1827 143.764 23.3621C143.462 19.8824 143.457 16.4416 143.746 15.8512C144.076 15.1765 145.993 18.5981 148.139 23.2762C151.429 30.7961 152.252 31.9208 154.163 31.9016C156.243 31.7548 156.196 31.4196 153.831 26.3241C152.472 23.2746 150.535 18.3846 149.474 15.374C146.91 8.09854 144.432 7.11638 141.531 12.3907C139.914 15.2603 139.477 17.4467 139.8 22.3949C140.061 28.9802 140.544 30.1503 142.963 29.9581Z" fill="white"/>
<path d="M226.898 59.8717C229.603 58.8794 231.969 57.9325 232.093 57.6795C232.258 57.3421 231.777 56.3819 231.04 55.2983C229.958 53.8405 229.191 53.6804 226.695 54.4608L223.734 55.3298L225.221 52.2936C226.378 49.9321 226.361 48.6735 225.273 46.7962C224.447 45.4617 223.456 44.4646 223.076 44.5943C221.553 45.1131 218.518 56.0536 219.27 58.1861C220.419 61.4475 221.272 61.6487 226.898 59.8717Z" fill="white"/>
<path d="M171.165 32.5693C175.381 33.2403 176.121 31.5124 176.162 22.1547C176.217 16.867 175.442 13.0563 173.334 8.08408C170.702 2.02616 168.021 -1.34575 167.112 0.509686C166.947 0.847038 167.698 2.97951 168.665 5.31962L170.593 9.58029L168.157 8.51379C165.677 7.32185 164.29 8.42679 166.056 10.2134C166.575 10.8795 166.72 12.095 166.306 12.9383C165.687 14.2034 166.12 14.8285 168.857 16.1437C171.765 17.5412 172.243 18.2917 172.764 22.1888C173.053 24.6197 173.253 26.7996 173.129 27.0527C172.509 28.3177 169.282 25.4129 168.699 23.1528C168.381 21.6454 167.644 20.5618 167.095 20.8191C165.7 21.2947 167.055 27.1557 168.857 28.4384C172.16 30.755 172.428 31.7174 169.614 30.9904C167.995 30.629 167.019 30.6808 167.408 31.1804C167.712 31.6389 169.505 32.2923 171.165 32.5693ZM168.72 12.3266C168.802 12.1579 169.655 12.3592 170.681 12.8524C171.622 13.3045 172.055 13.9296 171.465 14.2712C170.707 14.7404 168.348 13.0857 168.72 12.3266Z" fill="white"/>
<path d="M216.611 50.2401C218.925 45.5171 219.422 38.4626 217.641 35.6272L216.335 33.3324L214.904 37.3332C212.329 44.7442 211.809 50.1205 213.407 52.0347C214.876 53.7823 215.002 53.739 216.611 50.2401Z" fill="white"/>
<path d="M189.795 37.2495C194.184 38.2124 194.651 38.1238 195.807 35.7624C196.717 33.9069 196.578 33.1111 195.295 32.4945C194.269 32.0013 193.168 32.3061 192.501 33.236C190.749 35.5195 188.76 36.1269 186.451 35.0172C184.398 34.0308 184.44 33.9464 187.352 29.5112C188.931 26.9357 190.347 24.9073 190.474 24.8641C190.474 24.8641 194.223 25.6237 198.78 26.459C206.193 27.9371 208.57 27.8292 209.524 26.0992C210.019 25.0872 206.687 23.694 205.592 24.4184C204.792 24.9719 202.067 24.4958 194.737 22.849C190.475 21.8429 193.484 21.3091 199.61 21.9608C202.504 22.3094 205.135 22.1151 205.425 21.5247C206.127 20.091 205.059 19.6821 200.467 19.3506C196.045 19.1013 195.611 18.4763 198.426 16.1821C200.4 14.5257 200.928 12.8 199.474 12.1013C197.764 11.2793 185.515 25.7112 181.794 33.0918C180.967 34.7786 182.637 35.685 189.795 37.2495Z" fill="white"/>
<path d="M186.615 16.1329C187.417 15.7891 189.09 13.8841 190.38 11.8989C191.755 9.95486 193.549 7.587 194.343 6.61391C195.514 5.30133 195.635 4.83853 194.529 4.72377C193.762 4.56364 191.24 6.47725 188.98 8.93373C186.634 11.3491 184.451 13.2174 184.109 13.053C183.681 12.8475 183.236 11.3833 182.959 9.79154C181.846 3.005 180.829 0.119891 179.596 0.0483647C177.171 -0.179025 177.022 4.43822 179.304 9.7024C181.5 14.9255 184.166 17.2485 186.615 16.1329Z" fill="white"/>
</svg>
