<svg width="182" height="123" viewBox="0 0 182 123" fill="none" xmlns="http://www.w3.org/2000/svg">
<path d="M86.5083 0.22454C83.0878 1.16252 82.1377 3.31987 83.6579 6.88418C84.418 8.66634 85.9382 11.3865 87.0784 12.8872C88.2185 14.4818 88.9786 15.795 88.7886 15.9826C88.5986 16.0764 86.9834 16.8267 85.2731 17.4833C83.2779 18.2337 81.4726 19.9221 80.5225 21.798C79.1923 24.7058 79.1923 25.1748 80.9026 28.3639C81.8527 30.2398 84.7981 33.5228 87.2684 35.6801C89.7387 37.7437 92.5891 40.9328 93.6342 42.6211C96.1045 46.7482 97.7197 47.1234 102.185 44.7785C105.796 42.9025 106.176 42.9025 108.361 44.3095C109.881 45.3413 110.736 46.7482 110.736 48.3428C110.736 51.7195 109.121 53.1265 105.226 53.1265H101.995L102.66 57.4412C103.23 61.5683 103.135 61.8497 99.715 64.7574C96.2946 67.6651 96.1045 68.0403 97.2447 70.3853C98.5749 73.293 100.57 73.1054 105.321 69.6349C107.981 67.6651 108.076 67.6651 109.406 69.4473C111.211 71.9798 111.021 76.5759 109.026 79.5775C108.076 80.9844 105.321 83.517 102.85 85.1115C100.38 86.7061 97.4347 89.2386 96.1996 90.7394L94.1093 93.3657L88.9786 91.865C81.9477 89.8952 64.2754 78.2643 57.2445 71.1357C53.634 67.5713 53.634 67.4776 56.1044 67.9465C58.0046 68.2279 59.3348 67.6651 61.5201 65.6954L64.3704 62.9753L67.9809 67.0086C71.1163 70.4791 72.1614 71.0419 74.8218 70.7605C79.4774 70.2915 79.5724 67.0086 75.1068 62.5063C72.1614 59.5047 71.6864 58.473 72.1614 56.2218C72.6365 54.1583 72.1614 52.6575 70.4512 50.125C69.216 48.249 68.3609 46.4668 68.741 46.1855C69.026 45.9041 71.5914 45.5289 74.5367 45.5289C82.7078 45.3413 85.5582 44.4971 85.5582 42.3397C85.5582 41.0266 84.038 39.7134 80.3325 37.9313C74.4417 34.9297 72.1614 34.7421 67.3158 36.7119C60.76 39.432 57.7196 38.1188 60.855 33.9917C63.9904 29.8646 62.3752 25.6437 55.9143 20.7663C50.7837 16.9205 47.9333 16.5454 46.1281 19.7345C44.8929 22.1732 45.0829 24.5182 47.1732 31.7406C48.8834 37.8375 48.0283 38.5878 37.957 38.7754C33.3964 38.8692 29.2159 39.432 28.4558 40.0886C26.2705 41.8708 26.9356 43.7467 30.261 45.1537C33.1114 46.2793 33.3964 46.7482 33.0164 49.7498C32.7313 52.3761 31.5912 53.8769 27.2206 57.4412C21.7099 61.9435 20.0947 64.2884 21.0448 66.7272C21.8049 68.6031 22.9451 68.5093 26.7455 66.1644L29.976 64.1946L32.4463 66.1644C33.8715 67.29 36.2468 68.1341 37.672 68.1341C40.1423 68.1341 40.4273 67.8527 40.4273 64.945C40.4273 63.1629 39.5722 60.7241 38.4321 59.3171C36.4368 56.7846 35.2967 48.249 36.9119 47.6862C37.2919 47.5924 39.7622 47.4986 42.3276 47.4986H47.0782V53.1265C47.0782 60.6303 44.5128 66.821 38.7171 73.762C32.8263 80.703 30.166 82.9542 22.66 87.2689C16.0092 91.1146 13.8239 92.9905 13.8239 94.9603C13.8239 97.2114 17.2443 96.4611 23.5151 92.803C31.2111 88.3945 38.7171 82.7666 43.9428 77.5139C48.5984 72.9178 50.1186 73.0116 52.7789 78.0767C54.8692 82.11 63.1353 92.2402 65.7006 93.9285C68.456 95.7107 79.0023 97.4928 86.5083 97.4928C96.1995 97.4928 102.09 96.4611 105.796 93.9285C107.696 92.6154 109.596 91.5836 109.976 91.5836C110.451 91.5836 110.736 93.0844 110.736 94.8665C110.736 98.5246 108.076 101.901 105.226 101.901C103.325 101.901 100.285 104.621 100.285 106.31C100.285 106.779 101.52 108.842 103.135 110.906C104.656 112.876 105.986 115.314 105.986 116.252C105.986 118.973 107.791 121.599 109.691 121.599C115.202 121.599 122.043 102.652 122.138 87.2689C122.138 83.4232 122.803 81.5472 125.938 76.7635C128.219 73.293 130.024 69.3535 130.309 66.9148C130.879 63.2567 130.594 62.6001 128.694 61.1931C126.033 59.4109 122.423 59.2233 121.853 60.8179C121.663 61.4745 121.853 63.2567 122.233 64.7574C122.993 67.3838 122.043 70.0101 120.238 70.0101C118.812 70.0101 118.622 60.3489 119.953 56.0342C121.473 51.0629 120.998 46.1855 118.717 43.6529C117.292 42.0584 117.292 41.6832 118.527 39.8072C122.043 34.6483 128.504 28.3639 131.639 27.1445C133.444 26.3941 135.915 24.8934 137.15 23.7678C139.715 21.4228 139.905 17.0143 137.625 15.795C134.965 14.388 116.627 13.6376 110.261 14.5756C107.126 15.0446 104.371 15.2322 104.181 15.0446C103.515 14.4818 114.252 10.0733 121.663 7.91596C135.915 3.78886 128.599 0.693529 103.135 0.130743C95.0594 -0.056853 87.5534 -0.056853 86.5083 0.22454ZM110.736 4.25784L115.962 4.91443L111.211 7.07178C104.276 10.2609 96.4846 12.7934 94.0143 12.7934C92.3991 12.7934 91.0689 11.6679 89.3587 9.04153C88.0285 6.97798 86.9834 5.10203 86.9834 4.91443C86.9834 3.60126 102.09 3.13227 110.736 4.25784ZM101.71 17.4833C101.425 17.9523 100.475 18.4213 99.715 18.4213C98.9549 18.4213 98.3848 17.9523 98.3848 17.4833C98.3848 16.9205 99.2399 16.5454 100.38 16.5454C101.425 16.5454 101.995 16.9205 101.71 17.4833ZM108.361 19.3593C108.076 19.8283 106.176 20.2035 104.276 20.2035L100.76 20.1097L103.611 19.3593C107.791 18.3275 109.026 18.3275 108.361 19.3593ZM134.965 19.8283C134.965 20.2973 132.684 21.9856 130.024 23.3926C127.269 24.8934 123.088 28.2701 120.808 30.8964C118.527 33.6166 115.582 36.9933 114.252 38.5878C112.067 41.0266 111.592 41.308 109.881 40.1824C107.221 38.5878 104.751 38.7754 101.33 40.6514C98.0998 42.5273 96.9597 41.9646 96.0095 37.8375C95.3444 35.3049 95.3444 35.3049 100.19 35.3049C105.606 35.3049 109.881 33.5228 116.722 28.3639C119.098 26.5817 122.613 24.7996 124.513 24.4244C128.409 23.7678 129.644 21.9856 127.744 19.7345C126.699 18.5151 127.079 18.3275 130.784 18.6089C133.064 18.7965 134.965 19.2655 134.965 19.8283ZM55.1542 24.143C59.9048 28.4577 60.4749 30.8026 57.4345 33.9917C55.4393 36.0553 55.4393 36.3367 56.9595 38.5878C58.1946 40.37 59.3348 40.9328 62.0901 40.9328C63.9904 40.839 66.6507 40.2762 67.9809 39.5258C69.3111 38.7754 71.3063 38.2126 72.4465 38.1188C75.2018 38.1188 81.3776 41.0266 80.7125 42.0584C80.4275 42.4335 75.3919 42.8087 69.5961 42.8087C60.76 42.8087 58.1946 43.1839 55.1542 44.6847C52.5889 45.9979 51.1637 46.2793 50.3086 45.5289C49.7385 45.0599 45.843 44.4971 41.6625 44.3095C37.577 44.2157 33.3964 43.5591 32.3513 42.9963C31.3061 42.4335 30.6411 41.8708 30.9261 41.8708C31.2111 41.8708 34.9166 41.6832 39.1922 41.5894C51.0687 41.308 52.3039 39.432 48.9784 27.7073C47.7433 23.3926 48.1233 20.2973 49.9285 20.2973C50.4986 20.2973 52.8739 22.0794 55.1542 24.143ZM93.1592 21.7042C91.0689 22.4546 89.2637 23.1112 89.2637 23.1112C88.4085 23.205 88.2185 26.3941 88.8836 29.1143C89.5487 32.2096 89.4537 32.3972 88.1235 31.3654C86.6983 30.146 84.133 24.9872 84.133 23.1112C84.133 21.6104 87.9335 20.3911 92.6841 20.3911H96.9596L93.1592 21.7042ZM116.817 23.205C116.532 23.7678 113.872 25.6437 111.021 27.5197C106.746 30.2398 104.846 30.8026 99.81 30.9902C94.1093 31.2716 93.7292 31.1778 93.1592 28.9267C92.3991 25.8313 93.5392 25.2685 101.235 24.4244C104.656 24.143 109.121 23.4864 111.211 23.1112C116.722 22.0794 117.577 22.0794 116.817 23.205ZM117.577 47.0296C118.432 48.9056 118.337 50.5939 117.387 54.3459C115.677 60.5365 116.057 69.9163 118.052 72.0736C119.383 73.5744 119.763 73.5744 122.233 72.2612C124.988 70.8543 125.368 70.0101 124.988 64.945C124.893 63.0691 125.178 62.4125 126.128 62.6939C128.504 63.538 127.269 69.3535 123.183 76.1069C119.763 81.8286 119.288 83.3294 119.288 88.3007C119.288 97.3053 117.672 104.528 114.062 112.031C110.831 118.879 108.836 120.098 108.836 115.221C108.836 113.72 107.696 111.563 105.891 109.78C102.565 106.404 102.85 105.184 106.841 104.246C111.307 103.308 113.112 100.588 113.112 94.5851C113.112 89.7076 112.922 89.2386 110.926 88.9572C109.691 88.7696 107.411 89.6138 105.606 90.927C103.896 92.2402 101.71 93.4595 100.76 93.6471C97.3397 94.2099 98.3848 91.6774 102.755 88.5821C114.157 80.6092 116.532 73.6682 110.356 66.5396L108.076 64.007L104.656 66.6334C100.095 70.0101 98.9549 68.9783 103.04 65.2264C105.796 62.7877 106.176 61.9435 105.701 59.3171C105.226 56.5032 105.416 56.128 107.696 55.5652C111.877 54.6273 113.872 52.5637 114.062 48.718C114.347 44.5909 114.252 44.6847 115.487 44.6847C116.057 44.6847 117.007 45.7165 117.577 47.0296ZM62.8502 51.8133C61.5201 55.3776 59.1447 59.4109 57.3395 61.2869L54.2041 64.476L53.539 60.9117C53.159 58.942 53.159 55.2838 53.444 52.8451C54.0141 47.78 56.4844 45.7165 61.9951 45.6227H65.1305L62.8502 51.8133ZM50.5936 52.8451C50.3086 53.7831 50.1186 53.0327 50.1186 51.2505C50.1186 49.4684 50.3086 48.718 50.5936 49.5622C50.7837 50.5002 50.7837 52.0009 50.5936 52.8451ZM68.931 52.1885C69.5011 53.2203 69.6911 55.4714 69.4061 57.2536C68.836 59.9737 69.2161 60.7241 72.2564 63.6318C74.2517 65.414 75.6769 67.4776 75.3918 68.1341C74.9168 69.7287 68.456 63.8194 67.5058 60.9117C67.0308 59.1295 66.6507 58.942 64.9405 59.7861C63.8954 60.3489 62.9452 60.6303 62.7552 60.4427C62.2802 59.8799 66.3657 50.3126 67.1258 50.3126C67.6008 50.3126 68.3609 51.1567 68.931 52.1885ZM36.7218 62.3187C38.4321 65.414 37.0069 65.9768 33.6814 63.538C30.7361 61.3807 30.546 61.3807 27.2206 62.8815C23.8002 64.476 23.8002 64.476 28.4558 60.1613C33.6814 55.4714 33.0164 55.2838 36.7218 62.3187ZM50.8787 63.9132C50.8787 68.8845 50.9737 69.1659 56.2944 74.231C59.2398 77.0449 62.0901 79.3899 62.5652 79.3899C62.9452 79.3899 65.3205 81.0782 67.7909 83.048C72.7315 87.1751 80.9976 92.0526 86.0332 94.0223L89.3587 95.3355L84.608 94.8665C76.1519 94.1161 69.3111 92.7092 67.4108 91.5836C65.0355 90.0828 57.5295 80.7968 55.5343 76.8573C51.7338 69.5411 48.7884 69.0721 43.0877 74.7938C38.6221 79.2961 37.2919 79.2961 41.4725 74.7938C45.0829 70.8543 48.9784 63.2567 48.9784 60.1613C48.9784 58.7544 49.3585 57.9102 49.9285 58.2854C50.4986 58.5668 50.8787 61.1931 50.8787 63.9132ZM59.4298 63.9132C58.7647 64.7574 58.0046 65.1326 57.6246 64.8512C57.3395 64.5698 57.7196 63.9132 58.4797 63.4442C60.4749 62.1311 60.76 62.3187 59.4298 63.9132Z" fill="white"/>
<path d="M139.24 41.214C136.01 42.3396 135.915 42.5272 135.63 47.8736L135.345 53.3139L141.805 52.7511C145.321 52.3759 149.026 51.8132 149.976 51.6256C152.732 50.7814 151.782 52.8449 148.741 54.0643C147.221 54.7209 145.701 55.9403 145.416 56.972C144.656 59.1294 146.461 62.5061 148.266 62.5061C148.931 62.5061 149.881 62.9751 150.261 63.5379C151.402 65.4138 148.551 66.0704 145.321 64.7573C141.14 62.9751 140.76 63.0689 137.435 65.8828C133.919 68.6968 133.729 71.1355 136.58 73.7618C138.195 75.2626 139.905 75.6378 145.131 75.6378C148.646 75.6378 151.592 76.013 151.592 76.482C151.592 76.951 150.166 78.4517 148.551 79.7649C146.841 81.1719 144.846 82.6726 144.276 83.2354C142.756 84.361 142.661 88.3943 143.991 89.2385C146.081 90.5516 143.611 91.5834 138.48 91.5834C135.06 91.5834 132.209 92.1462 130.879 93.0842C127.839 95.1477 128.124 99.181 131.639 102.183C136.675 106.685 134.299 112.407 126.983 113.72C120.428 114.845 117.197 118.691 120.523 121.411C122.233 122.818 178.86 122.068 180.665 120.567C182.661 118.879 182.376 117.941 177.53 112.407C172.589 106.685 172.019 103.59 174.87 98.2431C177.055 94.0222 176.485 91.0206 173.444 91.302C172.114 91.3958 167.554 91.771 163.278 92.1462C153.777 92.8966 152.827 91.9586 157.007 85.768C158.528 83.5168 160.238 80.6091 160.903 79.1083C161.948 76.7634 162.328 76.5758 168.124 76.5758C173.73 76.5758 174.395 76.3882 176.675 73.668C181.426 68.134 179.145 65.6952 170.119 66.727C163.943 67.3836 163.943 67.3836 163.943 64.9448C163.943 63.5379 163.183 62.0371 162.043 61.3805C158.338 59.0356 159.668 56.2217 165.844 53.1263C173.064 49.4682 174.395 47.3109 171.069 44.3093C168.979 42.3396 167.459 42.0582 158.433 41.5892C152.827 41.214 147.031 40.745 145.416 40.4636C143.896 40.276 141.045 40.5574 139.24 41.214ZM160.713 44.0279C166.129 44.2155 169.644 45.6225 169.644 47.6861C169.644 48.155 167.649 49.3744 165.273 50.4062C162.898 51.5318 160.143 53.1263 159.098 54.1581C156.722 56.503 156.722 61.1929 159.193 62.6937C160.428 63.5379 160.903 64.4759 160.523 65.8828C159.668 69.0719 162.708 70.1975 170.119 69.4471C176.58 68.7906 177.625 69.4471 174.49 72.2611C173.349 73.2928 170.784 73.8556 166.319 73.9494C160.048 74.137 159.858 74.2308 158.623 77.2324C157.862 78.9207 156.057 82.2974 154.442 84.7362C151.117 89.8951 150.927 90.9268 153.492 93.4594C155.582 95.5229 161.853 95.8981 169.454 94.4912C171.639 94.0222 173.444 93.8346 173.444 93.9284C173.444 94.0222 172.779 95.7105 172.019 97.4927C169.359 103.777 170.119 107.717 174.965 113.532C177.34 116.44 179.05 118.785 178.86 118.785C170.404 118.785 124.893 119.723 124.038 119.91C123.373 120.098 122.708 119.723 122.423 119.066C122.138 118.41 123.658 117.565 126.128 116.909C131.544 115.596 134.489 114.095 135.535 112.031C136.675 109.874 138.29 109.874 138.29 112.031C138.29 114.376 140.095 115.971 142.756 115.971C145.986 115.971 148.266 110.906 147.411 105.372C146.651 100.682 145.036 99.4624 140.76 100.588C139.145 100.963 138.29 101.901 138.005 103.59C137.72 105.934 137.625 105.934 136.865 104.246C136.485 103.214 134.774 101.151 133.254 99.65C130.404 97.1175 130.404 96.9299 132.114 95.7105C133.064 94.9601 136.105 94.3974 138.86 94.3974C142.28 94.3974 144.466 93.8346 145.986 92.6152C147.981 91.0206 148.076 90.5516 147.031 88.3005C145.701 85.3928 146.081 84.5486 149.596 82.6726C152.542 81.2657 155.867 75.3564 154.822 73.668C154.442 72.9177 151.877 72.7301 147.601 73.0115C142.185 73.4804 140.665 73.1991 138.955 71.7921L136.865 70.1037L138.86 68.134C140.665 66.3518 141.14 66.258 145.321 67.3836C150.547 68.7906 152.827 67.8526 153.302 64.1945C153.492 62.3185 153.017 61.5681 150.737 60.6301C146.746 59.0356 147.031 57.3472 151.497 55.6589C155.202 54.1581 156.912 51.907 155.772 50.1248C155.297 49.4682 152.162 49.2806 146.746 49.6558L138.29 50.2186V47.0295C138.29 43.2776 139.525 42.8086 148.741 43.4651C152.162 43.7465 157.482 43.9341 160.713 44.0279ZM144.371 104.34C145.986 108.561 143.801 114.282 141.14 112.688C140.095 112.031 139.905 108.279 140.76 104.903C141.425 102.558 143.516 102.183 144.371 104.34Z" fill="white"/>
<path d="M162.898 98.8989C162.803 99.2741 162.613 101.807 162.518 104.621C162.138 110.342 163.278 114.094 165.273 114.094C167.649 114.094 168.789 110.624 168.504 104.433C168.219 98.8989 168.124 98.6175 165.653 98.4299C164.133 98.3361 162.898 98.5237 162.898 98.8989ZM166.318 105.183C166.033 109.967 164.893 110.436 164.893 105.84C164.893 103.683 165.273 101.9 165.653 101.9C166.128 101.9 166.413 103.401 166.318 105.183Z" fill="white"/>
<path d="M151.022 101.057C150.262 102.37 149.882 109.03 150.452 111.937C150.927 114.47 153.967 114.845 157.102 112.594C158.908 111.375 159.193 110.343 159.193 105.559V100.025H155.487C153.397 100.025 151.402 100.494 151.022 101.057ZM156.722 105.184C157.483 107.998 155.962 111.281 153.967 111.281C152.447 111.281 151.972 107.154 153.112 104.34C153.967 102.089 156.057 102.558 156.722 105.184Z" fill="white"/>
<path d="M15.1538 48.9049C14.4887 49.9367 13.7286 53.1258 13.3486 55.9397C12.5885 61.7552 7.93287 81.1713 6.22265 85.486C5.36754 87.6434 4.98749 87.9248 4.32241 86.893C3.75233 86.1426 3.37228 84.6418 3.37228 83.5163C3.37228 80.9837 0.996975 77.7946 0.141864 79.2016C-0.618234 80.4209 1.85209 90.4573 3.37228 91.9581C6.22265 94.772 10.5932 83.7039 14.8688 63.1622C16.959 52.9382 17.0541 45.5282 15.1538 48.9049Z" fill="white"/>
</svg>
