<svg width="229" height="129" viewBox="0 0 229 129" fill="none" xmlns="http://www.w3.org/2000/svg">
<path d="M107.139 0.537234C106.189 0.818628 105.144 2.60079 104.479 5.13333C103.909 7.38447 102.959 9.26043 102.484 9.26043C102.009 9.26043 100.108 7.94726 98.3031 6.3527C96.2128 4.57054 94.1226 3.63256 92.7924 3.82016C90.8921 4.10155 91.2722 4.57054 95.7378 8.04106C103.149 13.9503 104.764 13.5751 107.614 5.13333C109.325 -0.0255524 109.325 0.0682455 107.139 0.537234Z" fill="white"/>
<path d="M114.36 0.818044C114.74 1.38083 113.885 4.85135 112.65 8.60326C107.804 22.2977 108.279 25.2055 114.93 25.2055C119.491 25.2055 119.681 26.331 115.595 28.1132C110.94 30.083 111.13 32.8031 116.26 41.1511C121.961 50.1557 122.246 52.0316 119.301 58.2223C114.645 67.9772 114.36 67.8834 114.17 55.5021C114.075 46.2162 113.695 43.3084 111.605 37.493C107.424 25.6744 104.859 24.4551 99.3481 31.7713C94.3125 38.431 90.2269 36.2736 94.8825 29.4264C97.6379 25.3931 97.4479 18.6396 94.5975 15.1691C93.3623 13.7621 92.0322 11.042 91.6521 9.25984C90.892 5.03894 87.6616 1.75602 84.3362 1.75602C81.2008 1.75602 79.6806 3.91337 79.6806 8.32187V11.3234L66.6639 11.042C56.4976 10.8544 52.9821 11.042 51.1769 12.0738C48.9916 13.3869 50.1317 13.4807 63.8135 13.7621C75.12 13.9497 79.5856 13.6683 81.4858 12.7304C83.7661 11.6048 84.4312 11.6048 85.8564 12.7304C87.0915 13.5745 87.3766 14.2311 86.7115 14.8877C85.4763 16.1071 71.9846 18.6396 70.7494 17.8892C70.1793 17.6078 68.2791 17.3265 66.4739 17.4203C64.5736 17.4203 62.1033 16.8575 60.8681 16.0133C59.0629 14.8877 58.0178 14.7939 54.8824 15.7319C52.507 16.4823 49.0866 16.6699 45.9512 16.2947C39.6804 15.4505 38.0652 17.1389 43.5759 18.6396L47.4714 19.6714L40.8205 26.7062C37.115 30.5519 34.0747 34.1162 34.0747 34.5852C34.0747 35.148 33.4096 35.5232 32.6495 35.5232C28.944 35.5232 30.7492 41.7139 35.0248 43.965C37.9702 45.5596 42.9108 43.5898 48.4215 38.7123C53.6472 34.1162 54.5023 33.9287 57.5427 36.3674C59.1579 37.6806 59.538 38.9937 59.4429 42.6518C59.2529 47.0603 59.4429 47.3417 62.5783 48.8425C64.9537 50.0619 66.0938 51.4688 66.9489 54.189C67.519 56.1587 69.1342 59.2541 70.5594 61.13C73.3147 64.6943 73.7898 68.6338 72.1746 73.9803C70.6544 78.6702 70.8444 86.3616 72.5546 88.6128C73.4098 89.9259 75.31 90.7701 77.8753 91.1453C82.5309 91.7081 86.3314 94.991 86.3314 98.2739C86.3314 99.5871 85.4763 102.589 84.4312 104.84C80.6307 113 82.5309 112.625 94.4075 102.589C99.6332 98.1801 106.284 93.0213 109.134 91.0515C115.69 86.7368 115.785 86.5492 115.785 81.5779C115.785 78.1074 115.975 77.6384 117.495 78.2012C118.351 78.5764 122.531 79.3268 126.712 79.9834L134.313 81.1089L134.123 87.581C133.743 96.398 130.892 101.838 121.581 111.406L114.075 119.003H117.305C121.011 119.003 124.906 116.564 132.032 109.811L136.403 105.684L138.493 108.31C139.538 109.623 140.488 111.218 140.488 111.593C140.488 112.062 142.864 115.345 145.809 119.003C150.465 124.631 151.89 125.757 155.975 126.976C161.391 128.571 165.192 128.758 165.192 127.539C165.192 127.07 163.196 126.507 160.726 126.132C158.161 125.757 155.405 124.913 154.55 124.256C152.175 122.474 142.389 110.28 142.389 109.061C142.389 108.029 137.448 103.058 136.403 103.058C135.928 103.058 133.553 105.027 130.987 107.372C128.327 109.811 126.237 111.312 126.237 110.843C126.237 110.374 127.472 108.779 129.087 107.279C132.222 104.277 134.598 99.8685 136.308 93.6778L137.543 89.4569V93.9592C137.638 100.337 139.538 103.996 145.049 108.498C147.614 110.655 150.085 112.437 150.465 112.437C150.845 112.437 153.03 114.126 155.405 116.189C160.441 120.504 167.852 124.819 169.087 124.068C170.702 123.13 169.942 122.192 165.952 119.941C163.671 118.816 159.966 116.283 157.591 114.407C155.215 112.531 152.08 110.186 150.655 109.342C149.135 108.404 146.284 105.872 144.194 103.808L140.488 100.056V90.7701C140.488 81.6717 140.488 81.4841 143.149 80.171C144.574 79.4206 148.565 78.5764 152.175 78.2012C158.256 77.5446 158.541 77.6384 158.541 79.5144C158.541 82.6097 161.106 82.8911 165.002 80.171C166.997 78.8578 169.277 77.7322 170.132 77.7322C172.033 77.7322 174.123 75.2935 173.268 73.9803C172.888 73.4175 173.743 71.5416 175.168 69.7594C176.688 67.6959 177.828 64.7881 178.208 61.8804C178.493 59.2541 179.634 56.1587 180.869 54.658C182.959 52.1254 182.959 52.1254 188.66 53.251C191.7 53.8138 198.446 54.5642 203.482 54.9394C211.653 55.4083 212.698 55.3145 212.698 54.0014C212.698 52.6882 211.748 52.4068 207.757 52.4068C205.002 52.4068 198.446 51.7502 193.22 50.9999C187.995 50.1557 182.769 49.7805 181.629 50.0619C179.253 50.6247 175.643 57.3781 175.643 61.4114C175.643 64.5067 171.462 71.1664 169.562 71.1664C167.282 71.1664 167.282 70.0408 169.562 65.2571C172.223 59.6292 172.508 55.4083 170.322 54.5642C169.562 54.2828 166.902 55.127 164.432 56.4401C161.961 57.7533 157.686 59.6292 155.025 60.661C150.94 62.1618 149.99 62.2556 149.99 61.2238C149.99 59.5354 156.451 54.9394 164.527 50.9061C171.082 47.6231 172.413 45.4658 169.467 43.027C167.757 41.6201 165.192 42.4643 165.192 44.3402C165.192 45.0906 164.622 45.9348 164.052 46.1224C163.101 46.4976 163.101 46.6852 163.956 46.6852C164.527 46.7789 165.382 46.31 165.667 45.841C166.332 44.7154 168.042 44.6216 168.042 45.5596C167.947 46.4976 161.296 49.5929 158.256 50.1557C156.641 50.4371 155.69 50.0619 155.31 49.0301C154.645 47.3417 156.26 44.903 157.876 44.903C158.351 44.903 158.066 45.7472 157.116 46.7789C155.69 48.2797 155.69 48.6549 156.831 48.1859C157.591 47.9045 158.731 46.5914 159.301 45.2782C159.966 44.0588 160.821 43.027 161.296 43.027C163.196 43.027 165.287 40.0255 164.622 37.962C163.766 34.8666 161.581 33.6473 158.921 34.5852C157.686 35.0542 156.641 35.148 156.641 34.8666C156.641 34.4914 155.975 35.148 155.12 36.2736C154.36 37.3992 153.22 38.3371 152.65 38.3371C151.985 38.3371 152.365 37.7744 153.315 37.024C155.025 35.8046 155.025 35.7108 152.935 35.0542C150.18 34.21 148.089 35.9922 148.089 39.3689C148.089 42.8394 149.705 42.8394 155.785 39.5565C159.016 37.6806 160.631 37.2116 161.391 37.962C162.151 38.7123 161.011 39.9317 157.401 42.1829C153.6 44.6216 152.27 46.0286 152.08 47.9983C151.795 49.8743 152.27 50.7185 153.885 51.2812C155.785 52.0316 155.69 52.2192 151.985 55.1269L147.994 58.2223L143.814 54.3766C139.348 50.3433 135.928 49.4991 133.838 51.9378C132.602 53.4386 132.887 59.1603 134.598 65.6323C135.073 67.6021 135.168 69.6656 134.693 70.3222C133.743 71.823 114.835 72.8547 114.835 71.4478C114.835 70.885 115.975 68.8214 117.4 66.8517C118.731 64.8819 120.916 60.9424 122.246 58.2223C125.191 51.9378 124.716 49.2177 119.016 40.2131C116.735 36.4612 114.93 32.7093 115.025 31.8651C115.405 29.9892 120.916 29.8016 133.553 31.1147C140.773 31.8651 142.294 32.3341 142.674 33.8349C143.339 36.3674 147.234 35.8984 150.56 32.8969C152.175 31.4899 152.65 30.9271 151.7 31.6775C149.04 33.7411 148.469 32.0527 151.035 29.9892C152.27 28.9574 152.84 28.1132 152.27 28.0194C151.7 28.0194 150.085 29.145 148.66 30.5519C147.329 31.8651 145.904 32.7093 145.524 32.4279C145.239 32.0527 145.144 31.6775 145.334 31.4899C161.296 19.39 164.242 14.6063 159.491 9.16605L157.591 6.9149L158.066 11.6048C158.541 15.4505 158.256 16.7637 156.641 18.6396L154.645 20.9846L155.31 17.4203L155.88 13.8559L152.27 14.5125C150.18 14.8877 146.474 15.8257 143.814 16.7637C136.308 19.2962 132.697 20.328 128.802 20.9846L125.191 21.5474L125.476 11.511C125.667 4.85135 125.381 1.38083 124.716 1.09944C124.051 0.911842 123.481 4.10097 123.101 10.7606C122.531 19.9528 122.151 22.3915 121.106 21.3598C120.821 21.1722 120.536 16.2947 120.346 10.6668L120.061 0.349055L116.83 0.0676619C114.74 -0.119934 113.885 0.0676619 114.36 0.818044ZM88.0416 7.66528C88.8017 9.16605 89.0868 10.573 88.8017 10.9482C87.9466 11.6986 82.5309 6.35211 83.101 5.32034C84.1461 3.72578 86.8065 5.03894 88.0416 7.66528ZM117.971 13.6683L118.541 22.3915H115.215C113.03 22.3915 111.985 21.9225 111.985 21.0784C111.985 19.4838 116.83 4.28856 117.21 4.75755C117.305 4.94515 117.685 8.97845 117.971 13.6683ZM92.4122 17.3265C94.5025 19.39 94.3125 25.3931 91.9371 29.3326C89.4668 33.5535 89.8469 36.4612 93.2673 38.3371C96.0227 39.7441 96.0227 39.7441 100.583 34.5852L105.239 29.4264L107.709 34.9604C111.415 43.3084 113.03 63.9439 110.18 66.7579C109.229 67.6959 109.134 66.8517 109.609 62.6308C110.275 57.5657 110.18 57.3781 107.139 54.8456C102.293 50.8123 97.5429 52.6882 91.2721 61.13C83.8611 70.885 81.5808 71.354 81.5808 63.2874C81.5808 56.4401 80.0606 52.5006 76.1651 48.9363L72.7447 45.841L78.4454 39.5565C85.6663 31.4899 86.3314 30.1767 86.3314 23.9861C86.3314 19.7652 86.7115 18.6396 88.5167 17.4203C89.6569 16.5761 90.702 15.9195 90.797 15.9195C90.892 15.8257 91.6521 16.4823 92.4122 17.3265ZM151.89 18.2644C151.89 18.6396 150.655 20.4218 149.04 22.2977C142.864 29.7078 143.814 29.2388 135.833 28.4884C131.842 28.0194 127.472 27.6442 125.952 27.6442C121.961 27.5504 123.196 24.9241 127.662 23.9861C132.792 22.8605 144.289 19.6714 146.664 18.6396C148.945 17.7016 151.89 17.4203 151.89 18.2644ZM58.3978 21.6412C58.0178 22.8605 57.4477 25.5807 57.1626 27.738C56.6876 31.2085 56.3075 31.7713 54.3123 31.7713C53.0771 31.7713 50.4168 33.2721 48.0415 35.4294C42.4357 40.4945 38.3502 42.3705 35.9749 41.1511C34.9298 40.5883 34.0747 39.9317 34.0747 39.5565C34.0747 38.4309 40.8205 30.1767 44.716 26.5186C50.4168 21.1722 53.0771 19.5776 56.2125 19.5776C58.6828 19.5776 58.8729 19.859 58.3978 21.6412ZM76.8302 20.2342C76.8302 21.0784 72.9347 27.9256 72.1746 28.3946C70.9394 29.2388 70.2743 25.4869 71.5095 24.2675C72.2696 23.5171 72.1746 23.0481 71.1295 22.3915C68.8492 20.8908 66.3788 21.266 66.3788 23.1419C66.3788 25.2055 61.8183 30.083 60.3931 29.614C59.0629 29.145 59.3479 26.9876 61.1532 22.6729L62.4833 19.5776L69.6093 19.7652C73.5998 19.7652 76.8302 20.0466 76.8302 20.2342ZM83.7661 24.5489C83.6711 29.3326 83.6711 29.2388 74.2649 40.2131C71.5095 43.3084 69.2292 46.31 69.2292 46.8727C69.2292 47.3417 70.7494 48.6549 72.5546 49.6867C76.9252 52.313 77.8753 54.189 78.8255 62.537C79.5855 69.5718 80.7257 72.1043 83.101 72.1043C85.0013 72.1043 90.797 66.7579 94.0274 62.068C95.5476 59.9106 98.208 57.3781 99.7282 56.5339C102.389 55.2207 102.864 55.2207 104.954 56.6277C106.189 57.3781 107.234 58.7851 107.234 59.723C107.234 62.6308 106.094 65.5385 105.239 64.9757C104.764 64.6943 103.434 64.7881 102.389 65.0695C100.583 65.6323 100.393 66.2889 100.773 70.3222C101.343 76.2314 105.524 82.7035 108.469 82.2345C111.13 81.8593 111.7 78.2012 109.704 73.6051C108.184 69.947 108.849 69.1966 111.32 71.823C112.555 73.2299 113.41 79.1392 113.03 84.0167C112.935 84.6732 110.56 86.7368 107.614 88.6128C104.669 90.4887 100.108 94.053 97.4479 96.398C94.6925 98.7429 91.5571 101.557 90.3219 102.495L88.2317 104.277L88.8017 100.056C89.3718 96.3042 89.0868 95.46 86.7115 92.8337C84.9062 90.8639 82.3409 89.4569 79.2055 88.6128L74.4549 87.4872L74.5499 80.9213C74.6449 77.357 75.025 72.1043 75.405 69.2904C75.9751 64.6005 75.7851 63.7563 73.4098 60.3796C71.9846 58.3161 70.0843 54.7518 69.3242 52.5006C67.804 48.4673 66.8539 47.5293 63.1484 46.4038C61.7232 45.9348 61.5332 45.1844 62.0083 41.8077C62.4833 38.5247 62.2933 37.3054 60.6781 35.2418C58.6828 32.8031 58.6828 32.7093 60.4881 32.7093C61.5332 32.7093 63.7185 31.3023 65.4287 29.614L68.3741 26.6124L68.0891 29.4264C67.424 35.617 74.2649 32.0527 78.3504 24.0799C79.9656 20.8908 81.2008 19.5776 82.3409 19.7652C83.5761 20.0466 83.9561 21.0784 83.7661 24.5489ZM142.294 56.6277C145.144 59.2541 145.904 60.5672 145.714 62.7246C145.619 64.2253 144.954 66.1951 144.194 67.0393C143.149 68.2586 143.149 68.9152 144.384 70.9788C146.094 74.0741 150.465 74.7307 154.645 72.6671C157.401 71.2602 163.291 70.6036 163.291 71.7292C163.291 72.0106 162.816 73.0423 162.341 74.0741C161.486 75.5749 160.251 75.8563 153.505 75.8563C147.614 75.8563 144.859 76.3253 142.294 77.6384C139.633 79.0454 138.683 79.233 137.353 78.2012C136.498 77.5446 134.693 77.2632 133.363 77.5446C129.752 78.2012 120.916 76.888 119.016 75.2935C117.4 74.0741 117.781 73.9803 123.006 74.4493C129.752 75.1997 136.213 73.6989 137.638 71.2602C138.208 70.0408 138.113 67.8834 137.163 64.2253C134.218 53.0634 135.738 50.8123 142.294 56.6277ZM168.137 61.5052C166.522 67.2269 164.907 68.8214 161.106 68.54C159.206 68.3524 156.451 68.9152 154.835 69.6656C151.51 71.354 147.519 71.6354 146.664 70.1346C145.524 68.4462 148.945 65.8199 155.025 63.5687C158.256 62.3494 162.626 60.4734 164.717 59.2541C166.712 58.1285 168.612 57.3781 168.802 57.4719C168.992 57.6595 168.707 59.4416 168.137 61.5052ZM107.234 75.0121C107.804 76.0439 108.184 77.6384 107.994 78.4826C107.709 79.702 107.234 79.3268 105.999 77.0756C104.099 73.6051 104.004 73.0423 105.334 73.0423C105.809 73.0423 106.664 73.8865 107.234 75.0121ZM166.332 75.1059C165.667 75.7625 165.192 75.8563 165.192 75.2935C165.192 73.9803 166.332 72.8547 166.997 73.5113C167.187 73.7927 166.902 74.5431 166.332 75.1059ZM138.588 83.7353C138.588 85.0484 138.208 86.3616 137.638 86.643C137.068 87.0182 136.688 85.9864 136.688 84.3919C136.688 82.7973 137.163 81.4841 137.638 81.4841C138.208 81.4841 138.588 82.5159 138.588 83.7353Z" fill="white"/>
<path d="M94.1225 72.2921C92.5073 73.8867 92.6973 76.6068 94.9776 81.2029C96.4978 84.2982 97.448 85.2362 99.2532 85.2362C101.248 85.2362 101.533 84.7672 101.533 81.6719C101.533 77.6386 98.8731 71.7293 96.7829 71.3541C95.9278 71.2603 94.7876 71.6355 94.1225 72.2921ZM98.5881 80.0773C98.5881 81.7657 98.4931 81.6719 97.3529 79.6083C96.5928 78.2952 96.2128 76.8882 96.4978 76.513C97.2579 75.3874 98.6831 77.8262 98.5881 80.0773Z" fill="white"/>
<path d="M83.1961 79.2339C81.2958 81.2037 84.5263 89.5517 87.5666 90.4897C91.3671 91.709 92.1272 87.0192 88.8968 82.3293C86.8065 79.2339 84.5263 78.0146 83.1961 79.2339ZM87.6617 84.8618C88.6118 87.2067 87.5666 87.5819 86.3315 85.3308C85.7614 84.2052 85.6664 83.361 86.2365 83.361C86.7115 83.361 87.3766 84.0176 87.6617 84.8618Z" fill="white"/>
<path d="M172.033 19.4849C165.477 24.2686 167.377 27.9267 174.598 24.3624C176.688 23.2368 178.873 22.3926 179.539 22.3926C181.439 22.3926 178.493 25.2065 174.503 27.1763C170.322 29.3336 169.942 30.4592 173.173 31.96C175.073 32.7104 176.403 32.6166 179.634 31.3034C185.904 28.7708 188.85 28.1143 189.42 28.9584C189.705 29.3336 187.9 30.6468 185.429 31.8662C178.873 34.8677 174.693 38.1506 174.693 40.308C174.693 41.7149 175.358 42.0901 178.303 42.0901C180.964 42.0901 183.529 40.9646 188.28 37.963C191.89 35.6181 195.216 33.5545 195.881 33.2731C196.736 32.9917 196.641 32.6166 195.691 31.8662C194.741 31.3034 193.6 31.3034 192.365 31.96C190.56 32.8979 190.465 32.8979 191.7 31.3972C192.84 30.084 192.745 29.615 191.225 27.9267C189.42 25.9569 186.094 25.8631 181.819 27.5515C180.014 28.3019 180.014 28.3019 181.629 26.4259C183.909 23.7996 183.719 22.7678 180.014 20.5166C178.208 19.4849 176.593 18.1717 176.403 17.6089C176.213 17.0461 174.313 17.9841 172.033 19.4849ZM184.194 37.4002C182.009 39.0886 178.493 39.9328 178.493 38.8072C178.493 38.1506 183.624 35.6181 185.144 35.6181C186.094 35.6181 185.714 36.1809 184.194 37.4002Z" fill="white"/>
<path d="M157.591 24.9249C155.025 25.8629 153.885 27.176 154.455 28.583C154.835 29.6148 155.215 29.7086 156.26 28.8644C157.971 27.4574 159.301 28.583 157.781 30.0838C157.116 30.7403 156.641 31.9597 156.641 32.8977C156.641 34.5861 156.736 34.5861 159.016 32.9915C160.916 31.6783 161.296 30.6465 161.201 28.114C160.916 24.8311 160.061 24.0807 157.591 24.9249Z" fill="white"/>
<path d="M193.126 41.339C187.71 44.9971 186.475 48.2801 190.275 49.218C191.605 49.4994 193.126 49.4994 193.601 49.1242C194.171 48.8429 196.261 49.0304 198.161 49.4994C204.622 51.1878 210.038 51.563 209.658 50.3436C209.183 49.0304 195.881 45.6537 193.981 46.3103C193.316 46.4979 192.556 46.3103 192.27 45.9351C191.985 45.4661 193.696 43.9654 196.071 42.6522C200.347 40.1197 201.582 38.3375 199.016 38.3375C198.351 38.3375 195.596 39.7445 193.126 41.339Z" fill="white"/>
<path d="M32.4594 48.3739C32.0794 49.2181 32.5544 51.8444 33.4096 54.1894C35.2148 59.1606 34.3597 61.318 30.3692 62.256C26.7587 63.0064 24.3834 65.7265 24.7634 68.5404C24.9535 70.3226 25.6185 70.6978 28.5639 70.6978C30.8442 70.6978 32.5544 71.2606 33.3145 72.3861C35.2148 74.9187 41.1056 74.2621 41.4856 71.542C41.6756 70.0412 42.6258 69.3846 45.2861 68.9156C50.2267 68.1652 54.9774 65.0699 54.9774 62.6312C54.9774 60.7552 54.6923 60.6614 48.8016 61.318C42.7208 61.8808 42.6258 61.8808 41.6756 59.442C41.2006 58.1289 40.7255 55.6901 40.7255 54.1894C40.7255 49.2181 33.9796 44.4344 32.4594 48.3739ZM38.4452 56.4405C39.8704 63.194 41.0105 64.6009 45.3811 64.6009C47.9464 64.6009 48.4215 64.8823 47.3764 65.5389C46.6163 66.0079 44.146 66.4769 41.8657 66.4769C38.1602 66.4769 37.7801 66.6645 38.0652 68.5404C38.4452 71.7295 36.64 72.0109 35.2148 69.0094C33.8846 66.1955 33.0295 66.0079 30.0841 67.5086C29.039 68.0714 27.8988 68.259 27.6138 67.8838C26.4737 66.7583 30.5592 64.6009 33.7896 64.6009C36.2599 64.6009 37.02 64.1319 37.4951 62.3498C37.9702 60.2862 37.2101 56.3467 35.4048 52.032C34.9298 50.7188 35.1198 50.3437 36.0699 50.7188C36.83 50.9064 37.8751 53.5328 38.4452 56.4405Z" fill="white"/>
<path d="M10.5116 53.6272C9.94151 54.2837 8.99139 56.0659 8.42132 57.5667C4.05075 68.541 1.96048 74.9193 2.53055 74.9193C3.6707 74.9193 8.23129 67.134 9.46645 62.8193C10.1315 60.662 11.2717 58.5046 12.0318 58.2233C13.742 57.5667 16.9724 61.2248 16.9724 63.8511C16.9724 66.8527 7.37618 84.3928 3.38566 88.7075C0.44028 91.8967 -0.224806 93.2098 0.0602313 95.6486L0.345268 98.7439L5.28591 94.054C11.9368 87.8634 20.9629 71.7301 21.533 64.9767C22.0081 59.3488 20.8679 56.7225 16.6874 54.2837C13.0769 52.1264 11.8418 51.9388 10.5116 53.6272Z" fill="white"/>
<path d="M193.695 61.4123C188.66 63.5697 185.334 67.2278 183.244 72.8557C182.199 75.6696 180.109 79.7029 178.588 81.8603C174.028 88.4261 172.793 91.5214 172.793 96.4927V101.37L178.208 100.995C183.434 100.714 183.719 100.807 184.954 103.434C186.284 106.06 186.284 106.154 179.064 113.095C175.073 117.034 171.843 120.505 171.843 121.068C171.843 122.662 175.643 119.848 182.389 113.47C189.515 106.623 189.42 106.998 186.95 100.432C186.094 98.3687 185.809 98.2749 178.969 97.9935C175.263 97.8997 175.168 97.8997 175.453 94.6168C175.643 92.8346 177.923 87.9571 180.394 83.83C182.959 79.7029 185.334 75.2006 185.619 73.8875C186.475 70.3231 191.32 64.9767 194.646 63.8511C198.066 62.6317 197.971 62.0689 196.071 73.9813C194.836 81.9541 194.836 82.9858 196.261 84.4866C197.116 85.4246 198.446 86.175 199.301 86.175C202.437 86.175 206.522 89.8331 206.522 92.4594C206.522 96.2113 210.038 96.4927 212.888 93.116C219.919 84.6742 222.294 84.3928 218.019 92.4594C215.073 97.8997 215.073 97.8997 217.449 100.245C219.729 102.496 224.099 102.777 224.099 100.714C224.099 99.8694 223.244 99.3067 221.819 99.3067C218.304 99.3067 218.114 97.9935 220.584 93.3036C223.054 88.7075 223.054 82.4231 220.679 82.4231C219.159 82.4231 210.798 90.4897 210.798 91.8966C210.798 92.3656 210.323 92.7408 209.753 92.7408C209.277 92.7408 209.087 92.2718 209.372 91.8028C210.703 89.6455 208.517 87.2067 203.102 84.768C198.161 82.6106 197.401 81.9541 197.876 80.2657C198.921 75.6696 200.441 62.4441 199.966 61.2247C199.301 59.5364 197.876 59.6302 193.695 61.4123Z" fill="white"/>
<path d="M51.747 70.2287C49.2767 72.4799 44.146 75.4814 39.0154 77.7325C27.4239 82.7038 21.8181 85.6115 18.4927 88.5193C15.9274 90.8642 15.8324 91.1456 17.0675 93.4906C17.8276 94.8975 19.1578 96.6797 20.0129 97.4301C20.868 98.1804 23.5284 102.777 25.9987 107.466C28.469 112.438 31.0343 116.19 31.7944 116.19C32.5545 116.19 33.1246 115.908 33.1246 115.627C33.1246 115.064 23.3383 96.5859 21.4381 93.5844C19.1578 90.02 22.0082 87.8627 37.2101 81.3906C43.3859 78.7643 49.7518 75.2938 52.5071 73.0426C57.6378 68.8217 58.7779 68.5403 60.8682 70.8853C64.0986 74.5434 64.8587 77.6387 65.5238 88.5193C65.9038 96.9611 66.6639 100.994 68.0891 104.277C70.2744 109.155 70.1794 109.624 67.234 106.716C65.4288 104.934 64.4787 104.746 58.8729 105.309C53.2672 105.872 48.8966 106.716 43.1959 108.404C41.6757 108.78 41.7707 108.404 43.956 105.684C47.1864 101.463 47.0914 99.306 43.576 96.0231C40.3455 92.9278 40.1555 91.7084 42.2458 88.6131C44.6211 84.955 42.1508 84.7674 35.1199 88.2379C26.6638 92.2712 26.1887 93.1154 27.9939 99.8688C30.0842 107.842 32.7446 111.781 35.88 111.312C38.2553 110.937 38.3503 111.125 38.3503 116.19C38.3503 122.755 40.1555 123.506 40.5356 117.034C40.8206 112.625 41.1056 112.156 43.956 111.031C45.6662 110.28 50.7969 109.155 55.2625 108.592L63.5285 107.373L66.1889 109.905C71.1295 114.595 73.9799 112.156 71.4146 105.309C68.9442 98.6494 68.2792 95.1789 68.2792 87.5813C68.2792 78.2015 67.044 73.8868 63.3385 69.7597C59.538 65.445 56.9727 65.5388 51.747 70.2287ZM37.8752 92.2712C37.8752 93.0216 39.2054 95.0851 40.8206 96.8673C42.8159 99.2122 43.576 100.713 43.1009 102.026C42.4358 104.277 37.3051 108.686 35.4999 108.686C33.8847 108.686 30.2742 100.244 30.2742 96.4921C30.2742 94.1471 30.8443 93.3968 33.4096 92.2712C37.3051 90.5828 37.8752 90.5828 37.8752 92.2712Z" fill="white"/>
<path d="M220.774 75.0123C210.988 77.2634 209.848 77.8262 209.848 79.7022C209.848 80.7339 210.418 81.7657 211.083 82.0471C212.318 82.5161 227.52 79.327 228.47 78.389C229.23 77.7324 226.665 73.9805 225.525 74.0743C225.05 74.1681 222.864 74.5433 220.774 75.0123Z" fill="white"/>
<path d="M51.652 83.2671C51.367 83.8299 49.8468 84.2989 48.2316 84.2989C45.3812 84.2989 44.4311 85.7996 46.8064 86.7376C47.5665 87.019 47.8515 88.1446 47.6615 89.4577C47.2814 90.9585 47.7565 91.8965 49.0867 92.6469C50.3218 93.3034 51.1769 94.8042 51.367 96.774C51.652 99.5879 51.937 99.7755 55.5475 100.057C58.9679 100.338 59.8231 99.9631 62.1034 97.3367C64.1936 94.8042 64.5737 93.6786 64.0986 90.9585C63.2435 85.7058 60.6782 82.8919 56.1176 82.6105C54.0273 82.4229 52.032 82.7981 51.652 83.2671ZM59.633 86.4562C60.2031 87.2066 60.9632 89.0825 61.2482 90.7709C62.0083 94.2414 59.633 97.4305 56.4026 97.4305C54.6924 97.4305 54.1223 96.774 53.6473 94.2414C53.2672 92.4593 52.4121 90.7709 51.652 90.4895C49.7518 89.8329 49.8468 87.3942 51.937 86.2686C54.2173 84.8616 58.3979 85.0492 59.633 86.4562Z" fill="white"/>
<path d="M102.009 104.934C99.1583 105.685 90.5122 109.249 84.4314 112.344C78.9207 115.158 71.3197 116.753 69.9895 115.44C66.7591 112.25 61.6284 115.815 61.6284 121.161C61.6284 124.444 63.8137 124.163 64.2888 120.786C64.7638 117.409 65.904 116.847 69.5145 118.16C73.6 119.567 79.1107 118.066 92.6025 111.875C97.5431 109.624 101.819 107.748 102.104 107.748C104.384 107.748 97.9231 112.344 91.5573 115.346C84.0513 118.816 84.0513 118.816 88.2319 118.347C94.2177 117.691 99.9184 114.783 103.909 110.468C108.565 105.403 107.899 103.434 102.009 104.934Z" fill="white"/>
<path d="M193.03 115.064C190.37 115.439 190.18 117.127 192.745 117.784C193.696 118.065 194.836 119.097 195.121 120.035C195.976 122.755 197.496 122.192 197.496 119.097C197.496 115.908 195.976 114.595 193.03 115.064Z" fill="white"/>
</svg>
