<svg width="140" height="115" viewBox="0 0 140 115" fill="none" xmlns="http://www.w3.org/2000/svg">
<path d="M85.8945 2.70923C82.7591 4.20999 79.6237 5.42936 78.9586 5.42936C78.2936 5.52316 76.8684 6.36734 75.8232 7.30532C74.113 8.80608 74.018 9.36887 75.0631 10.9634C75.7282 11.9952 77.8185 13.7774 79.6237 14.8091C84.0893 17.2479 86.9397 20.3432 92.9255 29.1602C97.9611 36.664 99.5763 37.602 103.567 35.4447C105.182 34.6005 105.372 33.8501 104.897 30.8486C104.137 26.7215 105.467 25.4083 114.683 21.0936C118.959 19.1238 120.289 17.9983 119.624 17.2479C118.864 16.4037 117.059 16.8727 112.213 19.3114C102.997 24.0013 101.287 25.7835 101.952 30.0982C102.427 33.1935 102.332 33.6625 100.811 33.6625C99.5763 33.6625 97.6761 31.5989 95.3958 27.847C90.8352 20.6246 85.9896 15.2781 81.429 12.3704C77.9135 10.213 76.7734 8.33709 78.9586 8.33709C80.8589 8.33709 93.9706 1.86505 93.9706 0.83327C93.9706 -0.667494 92.0703 -0.198505 85.8945 2.70923Z" fill="white"/>
<path d="M94.2557 7.02451C90.7402 8.52527 90.1701 10.2136 93.1155 10.2136C95.3008 10.2136 100.621 7.3997 100.621 6.27413C100.621 5.14855 97.6761 5.52374 94.2557 7.02451Z" fill="white"/>
<path d="M85.4196 10.8697C85.4196 11.3387 87.6999 14.0588 90.5502 16.9666C95.9659 22.782 98.3412 23.5324 104.137 21.3751C108.223 19.8743 113.923 15.7472 113.923 14.3402C113.923 12.5581 113.163 12.6519 109.743 15.1844C105.752 18.0921 102.047 19.5929 98.8163 19.5929C96.821 19.5929 95.3008 18.5611 92.4505 14.903C89.2201 10.9635 85.4196 8.71235 85.4196 10.8697Z" fill="white"/>
<path d="M54.2554 15.5604C53.2103 15.9356 53.3053 16.3108 54.3505 17.624C55.1106 18.4681 56.5357 20.8131 57.5809 22.8766C59.4811 26.9099 59.4811 26.9099 67.2721 25.5968C72.9729 24.6588 72.2128 26.4409 64.9918 30.7556C58.626 34.6013 56.8208 36.7587 58.626 38.5409C59.4811 39.385 60.6213 39.1974 64.0417 37.6029C68.7923 35.3517 70.2175 35.0703 70.2175 36.4773C70.2175 36.9463 68.1272 38.4471 65.4669 39.7602C60.2412 42.3866 59.6711 43.5121 62.9016 45.0129C64.5168 45.6695 66.6071 45.3881 71.8327 43.6059C79.9088 40.8858 81.809 41.73 74.7781 45.0129C68.5073 47.8268 64.5168 51.1098 64.5168 53.3609C64.5168 57.3004 71.3577 56.1748 78.1035 51.1098C83.1392 47.2641 93.8756 42.8556 96.4409 43.4183C97.6761 43.7935 98.7212 44.3563 98.7212 44.7315C98.7212 45.1067 94.6357 47.733 89.6 50.547C79.6237 56.081 76.2033 59.364 77.9135 61.4275C79.1487 62.9283 81.0489 63.2097 80.1938 61.8027C79.2437 60.3019 82.1891 57.957 91.9753 52.3291C99.2913 48.202 101.287 47.3578 102.237 48.2958C102.902 48.9524 105.087 49.9842 106.987 50.6408C108.983 51.2036 111.453 52.3291 112.498 52.9857C113.543 53.6423 116.584 54.6741 119.149 55.2369C121.809 55.7997 125.895 57.2066 128.46 58.3322C133.401 60.4895 137.011 59.9268 139.006 56.9252C140.622 54.2989 138.436 52.7981 135.586 54.6741C133.496 55.9872 133.021 55.9872 129.98 54.3927C128.175 53.4547 124.85 52.3291 122.474 51.9539C120.099 51.5788 116.679 50.4532 114.873 49.5152L111.548 47.8268L118.769 48.3896C129.41 49.2338 135.396 46.7951 134.161 42.199L133.591 40.1354L131.405 42.199C129.41 44.0749 128.27 44.2625 118.579 44.1687C110.598 44.0749 107.462 43.6997 105.657 42.5742C104.422 41.73 102.617 41.261 101.857 41.5424C101.002 41.9176 99.0062 41.6362 97.296 40.9796C94.5407 40.0416 93.4005 40.2292 88.2699 42.3866C81.524 45.2943 80.9539 45.3881 82.5691 43.5121C83.5192 42.3866 83.5192 41.8238 82.5691 40.6982C81.0489 38.916 76.2033 38.916 71.5477 40.792L67.8422 42.199L70.4075 40.0416C74.3981 36.6649 74.3981 32.7254 70.5026 32.7254H67.8422L70.9776 30.2867C76.2033 26.2533 74.303 21.8449 67.6522 22.5952C65.6569 22.8766 63.3766 23.3456 62.5215 23.7208C61.2864 24.1898 60.6213 23.5332 59.4811 20.8131C57.8659 16.686 56.0607 14.9038 54.2554 15.5604ZM74.018 50.547C71.2627 52.6105 68.3173 53.5485 68.3173 52.3291C68.3173 51.3912 75.2532 47.733 75.9183 48.3896C76.2033 48.5772 75.3482 49.609 74.018 50.547Z" fill="white"/>
<path d="M48.4597 19.0302C47.6996 19.9681 47.5096 21.8441 47.8896 24.5642C48.6497 29.6293 47.1295 32.537 41.3338 36.4765C39.1485 37.8835 35.9181 40.416 34.2079 42.0106C31.6425 44.4494 31.2625 45.1059 32.2126 46.7943C32.8777 48.0137 34.2079 48.6703 36.1081 48.6703C38.5784 48.6703 38.8635 48.8578 37.9133 50.4524C36.7732 52.7036 37.6283 55.2361 39.5286 55.2361C40.2886 55.2361 43.044 54.1105 45.6093 52.7036C48.9348 50.8276 50.455 50.3586 51.2151 51.109C51.9752 51.8594 51.1201 52.7974 48.0797 54.6733C45.7044 55.9865 43.044 58.1438 41.9989 59.457C40.2887 61.7081 40.1936 61.7081 35.443 60.4888C31.2625 59.3632 18.8159 54.8609 16.8206 53.6415C16.4406 53.4539 16.7256 52.3284 17.3907 51.2028C19.1009 48.5765 18.3408 44.2618 15.9655 43.5114C13.7802 42.761 11.0249 44.168 8.55454 47.3571C6.93933 49.3268 6.08422 49.702 3.80393 49.1392C2.18872 48.7641 0.763533 48.9516 0.383483 49.6082C-0.56664 51.109 0.0984463 51.4842 4.08896 52.1408C7.31938 52.6098 7.88946 52.3284 10.4548 49.233C12.07 47.3571 13.7802 45.8563 14.2553 45.8563C16.1555 45.8563 16.1555 48.6703 14.2553 51.3904C12.7351 53.4539 12.5451 54.2981 13.4952 55.0485C15.2054 56.4555 26.8919 60.7702 35.443 63.1151C39.6236 64.3345 43.139 65.6477 43.234 66.1166C43.4241 66.5856 41.8088 68.3678 39.6236 69.9624C34.7779 73.9019 29.7423 74.0895 23.2814 70.7127C20.2411 69.1182 17.2957 68.3678 14.0653 68.3678C7.69943 68.3678 8.26951 70.5251 14.7303 71.1817C17.2957 71.4631 21.2862 72.5887 23.6615 73.8081C26.0368 74.9336 29.4572 75.8716 31.3575 75.8716C33.5428 75.8716 35.063 76.4344 35.443 77.2786C35.7281 78.029 36.7732 78.6855 37.8183 78.6855C40.1936 78.6855 48.3647 75.5902 54.4455 72.4011L59.0061 70.0561L58.341 73.1515C57.5809 76.7158 52.9253 86.1894 49.8849 90.4103L47.8896 93.2242L47.4146 90.4103C47.0345 88.4405 46.1794 87.4087 44.2792 86.7522C40.0036 85.2514 36.9632 87.0335 33.4478 92.9428C30.7874 97.5389 30.4074 98.6645 31.3575 100.353C32.3076 102.229 32.6877 101.947 36.2031 96.1319C38.8635 91.8172 40.6687 89.9413 41.9989 89.9413C45.1343 89.9413 43.8041 97.7265 39.5286 103.917C36.1081 108.795 36.1081 108.888 37.6283 111.796L39.2435 114.798L39.8136 111.984C40.1936 110.389 41.8088 107.294 43.4241 105.043C45.1343 102.698 46.7495 99.2273 47.0345 97.2575C47.5096 94.4436 47.8896 93.8808 48.9348 94.6312C50.74 96.2257 54.9205 93.6932 60.9063 87.2211C66.132 81.6871 67.5572 78.8731 68.6973 72.0259C69.0774 70.1499 70.1225 67.8988 71.1677 66.9608C72.8779 65.4601 73.638 65.3663 78.4836 66.398C81.524 67.0546 89.125 67.805 95.3958 68.0864C105.847 68.5554 107.177 68.4616 110.788 66.6794C114.873 64.6159 116.774 61.4268 114.968 59.6446C114.208 58.8942 111.928 59.0818 106.797 60.395C100.621 61.8957 98.8162 61.9895 93.5906 61.0516C85.7045 59.5508 82.8542 59.6446 82.8542 61.2392C82.8542 61.8957 83.8043 62.4585 84.9444 62.4585C86.0846 62.4585 89.9801 63.0213 93.5906 63.6779C99.3863 64.7097 101.002 64.6159 105.562 63.3027C111.738 61.5205 112.023 61.5206 112.023 62.6461C112.023 65.7415 91.5003 66.398 78.9587 63.6779C76.2033 63.0213 72.8779 62.8337 71.6427 63.1151C68.9824 63.7717 65.4669 70.3375 65.4669 74.6522C65.4669 76.2468 64.3268 78.9669 62.7116 81.1243C60.0512 84.7824 54.0654 90.6917 54.0654 89.8475C54.0654 89.5661 55.5856 86.1894 57.4859 82.3437C61.6664 73.9957 62.7116 68.6492 60.3362 67.805C59.3861 67.4298 56.4407 68.4616 53.0203 70.2437C49.8849 71.8383 46.1794 73.5267 44.7542 73.9957C43.329 74.3708 41.4288 75.0274 40.5737 75.4026C37.3433 76.7158 38.8635 74.3708 43.9941 70.4313C46.8445 68.1802 51.7851 65.0849 54.9205 63.6779C60.9063 60.864 61.6664 59.6446 59.3861 56.6431C58.246 55.0485 57.7709 54.9547 54.2555 56.0803C51.5951 57.0183 50.55 57.7686 50.93 58.7066C51.5001 60.0198 52.6403 60.0198 56.2507 58.519C57.1058 58.1438 57.8659 58.2376 57.8659 58.8004C57.8659 59.6446 49.4098 63.6779 47.6046 63.6779C47.1295 63.6779 46.1794 63.0213 45.5143 62.2709C44.1842 60.7702 44.9443 59.3632 47.3196 58.8004C47.9846 58.6128 50.0749 57.2059 51.8802 55.6113C54.7305 53.0787 55.0156 52.516 54.1604 50.2648C52.9253 47.0757 48.8398 46.7943 45.1343 49.702C42.664 51.578 42.4739 51.578 40.7637 50.0772C39.7186 49.1392 38.6734 47.6385 38.3884 46.7005C38.0084 45.6687 37.2483 45.1997 36.3931 45.5749C33.1627 46.7943 35.538 43.9804 40.7637 40.3223C49.0298 34.6006 50.74 31.7867 50.74 24.0952C50.74 17.5294 50.36 16.779 48.4597 19.0302Z" fill="white"/>
<path d="M32.6875 28.8797C23.8514 33.1006 23.4713 33.4757 25.1815 37.3215C25.9416 39.1036 26.7967 40.2292 27.0818 39.9478C27.3668 39.6664 27.1768 38.6346 26.6067 37.6028C24.6114 33.9447 25.2765 33.4757 30.7873 34.1323C37.7231 35.0703 40.2885 34.2261 41.7137 30.9432C43.994 25.5029 41.1436 24.8464 32.6875 28.8797ZM39.2433 30.3804C38.8633 31.1308 37.6281 31.7874 36.393 31.7874C33.5426 31.7874 33.4476 31.037 36.298 29.9114C39.3384 28.6921 39.8134 28.7859 39.2433 30.3804Z" fill="white"/>
<path d="M47.2244 38.0711C46.2743 38.2587 45.5142 38.8215 45.5142 39.2905C45.5142 39.7595 46.2743 40.6037 47.2244 41.0726C48.7446 42.0106 48.6496 42.1982 46.5593 43.8866C45.2291 44.8246 44.184 46.5129 44.089 47.6385C43.8989 49.6082 44.659 49.4207 48.1745 46.0439C48.8396 45.4811 49.8847 44.9184 50.3598 44.9184C51.5949 44.9184 51.0249 38.0711 49.7897 37.7897C49.3147 37.6959 48.0795 37.7897 47.2244 38.0711Z" fill="white"/>
</svg>
