<svg width="134" height="196" viewBox="0 0 134 196" fill="none" xmlns="http://www.w3.org/2000/svg">
<path d="M28.2127 0.036906C26.2799 -0.340446 24.6837 2.27318 25.8502 3.92509C26.3408 4.66015 27.0574 7.26407 27.4021 9.62949C27.7468 11.9949 28.8956 15.0231 29.8769 16.4932C30.8581 17.9633 32.1368 20.6122 32.7396 22.3442C33.2791 24.1408 35.656 28.8814 37.9175 32.8753C40.1173 36.8086 42.184 41.3714 42.4132 42.99C42.7042 44.6693 43.9604 49.0698 45.2246 52.8447C50.2847 67.6941 56.7165 68.1811 64.8305 54.4835C69.1772 46.969 68.891 44.9144 63.6144 46.9552C61.7922 47.6999 59.4128 48.0244 58.292 47.6842C57.1713 47.344 53.3345 44.3373 49.7542 40.8223C43.8283 35.0044 43.0924 33.9018 40.9151 28.2169C35.3515 13.6333 30.4494 1.09261 30.0173 0.668388C29.7704 0.425975 28.9615 0.138583 28.2127 0.036906ZM59.2419 56.4714C57.5889 58.6491 55.6889 60.5844 55.062 60.729C53.2429 61.2235 50.3626 56.7487 48.138 49.8772L46.2773 43.8698L50.6681 47.5471C53.8844 50.198 55.9944 51.3827 58.2423 51.5627C59.9282 51.6976 61.5492 52.0222 61.7961 52.2646C62.1064 52.4425 60.9567 54.3543 59.2419 56.4714Z" fill="white"/>
<path d="M77.2335 62.1003C70.9187 62.235 69.345 63.0971 66.5944 67.9979L65.185 70.6682L62.6542 68.1835C60.7406 66.3048 59.4347 65.7828 56.8068 65.9899C54.8675 66.113 52.6829 65.8686 51.874 65.5812C50.9417 65.1726 50.1881 65.4463 49.74 66.2732C49.0954 67.7941 49.404 68.0971 53.9912 71.0804C55.7878 72.3374 58.4421 74.9433 60.039 77.1446C62.6805 80.7514 62.8545 81.809 62.8055 90.5024C62.6835 100.011 63.8908 103.35 67.3974 102.865C68.086 102.781 71.498 99.9232 74.7913 96.5688C81.1879 90.0533 87.6808 85.786 89.1623 87.2405C89.5944 87.6647 88.8752 90.1259 87.4025 92.8607C84.7786 97.6325 84.7153 97.697 77.8505 101.726C66.8931 108.071 66.0617 109.535 71.1235 114.505C74.2099 117.535 75.3018 120.127 83.2654 142.515C87.8477 155.628 88.5187 156.92 92.531 160.86C95.8026 164.071 96.9819 164.722 99.9168 164.943C103.916 165.069 106.495 163.8 114.511 157.734C117.668 155.26 122.145 152.181 124.414 150.734C136.383 143.482 136.83 137.84 126.053 125.233C120.08 118.228 116.983 116.074 115.892 118.297C115.572 118.869 116.777 122.333 118.478 126.157C120.243 129.917 121.805 134.87 122.026 137.114C122.413 141.042 122.348 141.231 118.874 144.029C116.916 145.653 114.774 146.971 114.148 146.99C112.898 147.029 108.152 136.922 108 134.113C107.945 133.552 109.147 132.452 110.719 131.715C112.921 130.583 113.556 129.813 114.02 127.735C114.484 125.657 114.181 124.978 112.075 123.418C110.588 122.464 108.598 121.651 107.411 121.625C105.161 121.571 97.0408 126.014 94.3175 128.788C92.4175 130.723 91.8587 130.428 90.5881 127.153L89.8033 124.989L94.5131 123.279C103.556 119.995 107.684 114.926 104.042 111.351C101.635 108.987 97.5676 109.302 91.5895 112.427C87.4368 114.558 86.7482 114.642 85.2049 113.127C83.6617 111.612 83.6665 111.237 85.6932 109.172C86.9599 107.882 90.1073 106.158 92.6815 105.265C96.6995 103.889 97.8347 103.103 100.188 99.9652C103.049 96.1865 103.139 93.995 100.67 91.5709C99.8678 90.7831 99.8254 89.2211 100.348 87.4539C101.455 83.9801 100.46 78.6961 98.2999 76.5749C97.2505 75.5447 94.7557 75.1224 90.7537 75.2473L84.8125 75.4954L79.6729 81.4713C74.0867 88.1491 73.6482 88.2253 72.3383 83.1386C71.4477 79.4771 72.7256 77.3111 77.5781 74.2206C82.2407 71.3236 85.4218 66.9722 84.7035 64.4934C83.9251 61.8288 83.8001 61.8327 77.2335 62.1003ZM96.9851 81.6185C97.232 81.8609 97.0716 84.6173 96.5329 87.6356C95.7248 92.1631 95.8354 93.2852 97.3866 94.1747C98.9378 95.0642 98.9314 95.5647 97.3401 97.803C96.0021 99.7832 94.4885 100.831 90.5955 102.203C84.3785 104.461 79.2549 109.186 79.6517 112.362C79.8209 113.795 80.8053 115.015 82.8504 116.39C86.1332 118.726 88.1294 119.039 89.5861 117.555C91.0411 116.196 98.5184 113.149 100.014 113.477C103.818 114.171 101.097 116.82 93.4958 119.746C90.2298 120.974 87.084 122.573 86.4507 123.218C84.9307 124.766 88.7361 135.09 90.859 135.274C91.6711 135.311 94.3799 133.663 96.7818 131.587C102.406 126.847 106.807 124.833 109.042 126.014C110.655 126.964 110.59 127.154 107.561 129.375C104.783 131.587 104.399 132.225 104.487 135.098C104.572 138.222 104.446 138.351 103.273 137.2C100.927 134.897 98.1045 135.673 94.9916 139.585C92.0037 143.492 91.2814 146.204 93.0843 146.96C93.7064 147.191 95.3081 149.017 96.5315 151.105C99.4119 155.58 102.141 157.245 105.464 156.454C108.787 155.662 109.059 153.903 106.759 148.097C105.914 145.747 105.2 142.893 105.279 141.577C105.441 138.695 105.75 138.998 107.5 143.884C109.495 149.137 111.718 151.318 114.665 150.538C118.115 149.618 124.928 144.778 125.517 142.696C126.103 140.864 125.933 134.616 125.164 131.201C124.813 129.336 124.813 129.336 125.986 130.488C127.716 132.059 129.947 138.43 129.667 140.815C129.521 142.446 128.697 143.284 124.787 146.033C122.263 147.862 117.216 151.522 113.493 154.202C109.896 156.878 105.735 159.634 104.415 160.238C98.1267 163.186 93.3672 159.02 88.9004 146.653C87.2105 141.954 84.0111 133.112 81.7768 126.991C78.5758 118.274 77.0519 115.258 74.6444 112.894C72.9778 111.258 71.8097 109.731 72.0631 109.473C72.3164 109.215 75.9071 107.039 80.0013 104.598L87.6213 100.17L90.4369 95.0796C91.9729 92.2803 93.2652 88.9883 93.3446 87.6727C93.5908 83.1002 88.1201 80.7698 84.8268 84.1243C81.8502 87.1562 80.8641 86.0615 83.3453 82.6698C85.8883 79.3388 86.2651 79.2019 90.7056 79.0007C93.3319 78.9187 95.7016 79.3449 95.9437 79.9627C96.2475 80.641 96.6764 81.3155 96.9851 81.6185ZM78.2027 69.3862C68.738 76.3101 68.1664 77.0158 68.362 81.2618C68.4846 86.323 70.4912 90.7001 72.7407 90.7549C74.0514 90.9015 73.6666 91.6639 70.6851 95.0712C68.6569 97.2606 66.9469 99.0023 66.8234 98.8811C66.6382 98.6993 66.5693 94.3243 66.5116 89.0735C66.5285 82.8824 65.9562 78.7732 64.9749 77.3031C63.3195 74.791 63.4526 74.1615 65.8288 74.0873C66.9543 74.0522 67.841 73.1491 69.757 69.9627L72.1845 65.8848L76.2498 65.6953C81.2539 65.414 81.8632 66.6456 78.2027 69.3862ZM101.803 144.625C102.032 146.243 102.69 148.536 103.236 149.832C104.269 152.114 103.558 153.949 102.138 152.555C99.5458 150.01 97.4022 141.698 98.9855 140.085C99.8089 139.247 101.339 141.763 101.803 144.625Z" fill="white"/>
<path d="M39.409 87.1683C37.3447 87.2953 34.0786 88.5229 31.8732 89.9049C27.6508 92.6006 27.3389 92.5478 26.9405 89.4962C26.6022 86.6303 23.6994 83.9071 21.9389 84.7125C21.1837 85.1112 19.9218 86.0261 19.0352 86.9292C17.8952 88.0904 16.7063 88.19 14.1546 87.3318C11.0425 86.3034 10.4156 86.448 7.76037 88.7821C5.67359 90.6607 5.03544 91.6811 5.46113 92.6058C6.25076 94.3945 11.6564 96.9145 14.9064 96.9381C16.4056 97.0163 17.5881 97.4171 17.5816 97.9176C17.6386 98.3535 14.4831 100.703 10.6391 103.137C2.51081 108.206 -0.209314 110.729 0.0119282 112.974C0.114527 114.721 3.16009 116.064 9.27528 116.874C12.0202 117.288 12.0819 117.349 11.1857 119.003C10.1595 121.036 11.5143 122.619 14.5142 122.651C17.7009 122.739 17.1244 123.82 12.7817 126.144C10.5795 127.276 7.17557 129.508 5.15372 131.197C0.41657 135.034 0.00608261 137.799 3.72745 140.059C5.03017 140.831 7.25722 142.637 8.61364 144.096C10.0951 145.55 11.5814 146.629 12.0199 146.553C12.4601 146.352 13.2946 144.637 14.0707 142.612C14.7217 140.591 16.0661 138.11 17.0794 137.078C19.8027 134.304 28.0056 128.295 33.1067 125.322C35.5622 123.932 40.7964 120.329 44.7704 117.516C49.9444 113.728 53.0918 112.004 56.0997 111.409C60.4248 110.461 62.3264 108.401 60.4128 106.522C59.7955 105.916 58.5497 105.58 57.6109 105.672C56.6088 105.828 55.4929 105.113 54.5718 103.828C52.7328 101.009 49.5349 101.797 43.9111 106.537C41.5108 108.488 39.3671 109.931 39.1202 109.689C38.8733 109.446 39.1395 108.187 39.594 106.86C40.3701 104.835 40.1913 104.152 38.1478 102.653C36.8483 101.63 35.7973 100.725 35.8607 100.661C35.924 100.596 37.6228 99.7304 39.5732 98.7315C45.3614 95.7993 46.3811 94.2667 44.9269 90.6853C43.2907 86.6719 43.6627 86.9104 39.409 87.1683ZM41.5863 92.8532C41.325 93.7368 32.8199 98.9424 23.886 103.474C19.6699 105.669 16.5778 107.954 14.6129 110.079C12.1381 112.97 11.2579 113.373 8.94823 113.132C3.33008 112.557 4.35143 110.9 13.2301 105.807C19.7782 102.101 21.4216 100.674 21.8241 98.5354C22.2979 95.7067 19.5153 93.3549 15.3298 93.173C11.7695 92.9715 9.47273 91.7301 10.5494 90.6334C10.8661 90.3109 12.3003 90.5788 13.7296 91.222C15.4693 92.0431 17.2835 91.9239 19.7342 90.9094L23.1919 89.3632L23.9622 92.6533C25.0348 96.7468 26.5941 97.0108 32.072 93.9007C34.2758 92.6438 36.9182 91.3107 38.0469 91.0253C40.0559 90.3372 41.9808 91.3401 41.5863 92.8532ZM51.5077 108.801C50.6275 109.204 47.3502 111.307 44.3214 113.528C41.231 115.688 35.9984 119.166 32.7844 121.205C23.0809 127.261 17.0835 131.888 13.4053 136.004L9.97893 139.988L7.38152 137.818L4.84583 135.709L7.62286 133.621C9.19977 132.509 12.3504 130.535 14.6793 129.274C19.4637 126.623 22.0067 123.292 20.4017 121.716C19.661 120.989 20.4146 120.715 23.101 120.819C26.5979 121.085 27.038 120.884 29.2659 117.75C30.7939 115.576 31.6998 113.172 31.667 110.859C31.764 108.167 32.2787 107.026 33.6656 106.107C36.1861 104.528 36.7385 105.323 35.3844 108.555C34.0953 111.596 35.1839 114.439 37.6851 114.361C38.5606 114.333 41.898 112.416 45.0534 110.066C49.7873 106.479 50.856 106.008 51.8436 106.978C52.7078 107.826 52.6397 108.266 51.5077 108.801ZM28.0611 109.346C28.1035 110.908 27.4461 113.43 26.6148 114.894C25.3337 117.31 24.9569 117.447 21.7782 116.733C19.9071 116.417 17.0957 116.317 15.5933 116.489C14.0276 116.725 12.9053 116.51 13.0368 116.006C13.5627 113.989 26.6782 105.075 27.7276 106.105C27.851 106.226 28.0202 107.659 28.0611 109.346Z" fill="white"/>
<path d="M49.2294 120.753C47.4834 120.433 45.2339 120.378 44.2919 120.72C43.2882 121.001 38.988 124.887 34.6829 129.149C30.3763 133.536 26.3911 137.224 25.8275 137.304C25.3257 137.445 24.3933 137.037 23.776 136.431C22.2328 134.916 20.4122 135.535 20.3865 137.537C20.3737 138.538 22.587 146.285 25.3544 154.703C30.7022 171.482 32.2077 180.814 30.7942 188.675C29.6534 194.776 29.8273 195.834 31.7017 195.9C32.8256 195.99 33.2689 195.539 33.79 193.897C34.0546 192.763 35.4576 190.593 36.7892 189.113C41.354 184.093 44.204 171.435 42.4909 163.672C41.4833 159.389 42.188 158.054 47.1071 154.649C51.5211 151.635 51.5829 151.695 53.3473 155.454C55.0517 159.028 54.003 162.813 49.7469 168.136C45.0458 174.035 45.5789 176.332 51.8905 176.448C53.8899 176.511 54.819 177.169 56.4776 179.431C58.5051 182.182 58.7536 182.299 61.0809 181.163C64.8536 179.42 66.8378 175.793 67.1585 170.281C67.3301 166.649 66.0867 161.247 62.1217 148.74C59.1139 139.579 56.6633 130.839 56.6825 129.337C56.6072 125.463 53.2202 121.504 49.2294 120.753ZM52.8593 130.145C52.9603 132.017 55.4727 140.818 58.2969 149.672C63.773 166.197 64.3566 169.43 62.9248 173.852C61.7527 177.516 60.0588 178.006 57.9063 175.26C56.5531 173.551 55.3105 172.964 53.4346 173.023C51.9338 173.07 50.6848 172.984 50.4996 172.802C50.3144 172.62 51.4576 171.209 53.041 169.596C58.4243 164.113 59.1931 157.773 55.4061 150.888C54.3663 149.107 53.6224 148.63 51.4963 148.696L48.9951 148.774L51.3272 147.263C53.1558 146.018 53.6689 145.002 53.693 143.125C53.7331 139.997 51.3289 137.383 49.1331 138.015C47.7526 138.433 47.7558 138.183 48.7787 136.4C49.4802 135.315 49.7576 133.18 49.4634 131.751C48.9953 129.265 48.8101 129.083 46.0635 128.794C44.3159 128.598 41.8699 129.237 39.6645 130.619L36.1988 132.791L40.3804 128.408C43.5471 125.183 45.0607 124.135 46.4981 124.153C50.9338 124.327 52.477 125.842 52.8593 130.145ZM45.7444 134.181C45.1047 135.327 39.0632 138.517 37.1239 138.64C35.4965 138.816 41.0033 133.454 43.264 132.633C45.3981 131.941 46.4523 132.596 45.7444 134.181ZM49.4994 143.569C47.4094 145.697 39.5946 150.694 39.1008 150.209C38.36 149.482 43.6768 144.313 46.8226 142.714C49.6533 141.313 51.2727 141.762 49.4994 143.569ZM36.0031 148.055C34.8535 149.967 36.7887 155.034 38.6646 154.975C39.54 154.948 39.6523 155.945 39.0662 157.776C38.6718 159.289 38.5603 163.107 38.8954 166.223C39.5639 172.581 39.1406 176.346 36.9504 181.417L35.5947 184.773L34.931 178.041C34.3354 170.868 31.4166 159.641 27.5542 148.881C25.9244 144.367 25.5148 142.192 26.3951 141.789C27.0236 141.519 28.7304 140.028 30.1237 138.609C32.9103 135.77 33.6511 136.497 31.2348 139.699C30.4716 140.724 29.702 142.249 29.629 143.064C29.3548 144.948 30.898 146.463 32.2216 145.609C32.7251 145.343 35.179 144.078 37.5063 142.943L41.8458 140.869L39.4977 143.631C38.1661 145.111 36.5779 147.099 36.0031 148.055ZM45.143 151.834C43.821 152.563 43.1957 152.582 43.7657 152.002C44.844 150.78 47.613 149.318 47.5416 150.008C47.6018 150.194 46.4666 150.98 45.143 151.834Z" fill="white"/>
</svg>
