<svg width="98" height="100" viewBox="0 0 98 100" fill="none" xmlns="http://www.w3.org/2000/svg">
<path d="M31.6639 2.15887C29.1936 4.22242 29.1936 4.41001 30.6188 7.22395C31.4739 8.81851 33.5641 10.6945 35.2744 11.5386C42.9704 15.0092 52.2816 18.6673 58.8374 20.637C66.3434 22.8882 72.9943 25.9835 76.7948 28.8912C79.4551 31.0486 78.98 33.2997 74.7995 38.0834C72.4242 40.8036 71.284 41.2725 67.8636 41.2725C61.4028 41.2725 58.3624 44.0865 54.1818 53.7477C52.2816 58.2499 49.8113 62.846 48.7661 63.8778L46.7709 65.7538L40.6901 61.7205C32.804 56.374 28.1484 49.2454 28.9085 43.6175C29.6686 38.1772 27.7684 35.1757 23.7779 35.3633C21.9726 35.3633 19.5973 36.3951 18.2672 37.7082C15.2268 40.4284 11.3313 48.4012 11.3313 51.8717C11.3313 55.6236 18.3622 62.7522 25.7731 66.4104C32.9941 70.0685 36.6996 72.9762 35.4644 74.008C34.9893 74.477 27.3883 78.0413 18.4572 81.9808C9.62104 85.9203 1.73502 89.8598 1.16495 90.704C-0.450261 92.7675 -0.355249 96.1443 1.25996 97.4574C2.02006 98.0202 4.77542 98.7706 7.43576 99.1458C17.5071 100.271 38.4098 92.7675 51.1414 83.294C55.1319 80.2924 58.9324 77.8537 59.5975 77.8537C63.9681 77.8537 85.4409 64.0654 85.4409 61.2515C85.4409 60.2197 84.9658 60.0321 83.8257 60.5011C82.8755 60.8763 80.8803 61.6267 79.2651 62.1895C77.7449 62.6584 74.1344 63.9716 71.3791 65.0034C68.6237 66.0352 66.1534 66.6917 65.9633 66.4104C64.7282 65.191 67.1035 61.6267 69.9539 60.5011C78.505 56.9368 86.676 48.7764 89.1464 41.0849L90.2865 37.6144L93.5169 39.1152C95.3222 39.9594 97.1274 40.4284 97.4124 40.0532C98.3625 39.1152 96.1773 36.9578 93.0419 35.6447C89.6214 34.2377 87.7212 35.3633 86.8661 39.3966C85.8209 44.2741 80.9753 50.3709 75.0845 54.3104C71.9491 56.4678 68.9087 58.1561 68.2436 58.1561C65.4883 58.1561 70.619 46.9942 76.4147 40.3346C80.3102 35.9261 82.2105 31.1424 80.9753 29.2664C78.98 26.0773 70.904 21.6688 61.9728 18.7611C48.3861 14.3526 36.7946 9.4751 34.3242 7.22395C32.234 5.34799 32.234 5.1604 33.7542 4.03482C38.2198 0.845699 52.7566 3.94103 68.8137 11.6324C80.0252 16.9789 84.4908 18.4797 84.4908 16.8851C84.4908 15.8533 78.0299 12.6642 67.8636 8.91231C64.2531 7.59914 60.1676 5.81698 59.0275 5.0666C54.9419 2.44026 46.1058 0.00152449 40.12 0.00152449C35.3694 0.00152449 33.7542 0.376716 31.6639 2.15887ZM26.1532 43.8051C26.1532 48.495 26.7233 50.4647 29.0036 54.1228C31.7589 58.5313 41.0701 66.5042 43.4454 66.5979C45.3457 66.5979 44.3956 68.3801 41.5452 70.0685C39.1699 71.5692 38.8848 71.4754 34.2292 68.1925C31.6639 66.3166 27.8634 64.0654 25.8681 63.315C20.7375 61.2515 14.1816 54.5918 14.1816 51.5903C14.1816 46.4314 21.1175 37.0516 24.538 37.7082C25.7731 37.9896 26.0582 39.209 26.1532 43.8051ZM64.5382 46.15C64.5382 47.4632 59.7875 52.5283 58.6474 52.5283C57.4122 52.5283 57.6973 51.4027 59.7875 48.026C61.5928 45.1183 64.5382 43.8989 64.5382 46.15ZM65.4883 54.1228C64.0631 58.8127 63.493 59.5631 61.2127 59.8445C55.417 60.5949 55.322 59.2817 60.7377 54.029C63.588 51.3089 66.2484 48.964 66.5334 48.964C66.9135 48.8702 66.4384 51.2151 65.4883 54.1228ZM59.9776 62.846C61.9728 62.846 63.588 63.0336 63.588 63.315C63.588 64.4406 58.8374 72.7886 57.2222 74.5708C50.2863 82.1684 32.0439 92.0171 19.4073 95.0187C8.29087 97.7388 1.06994 96.8008 3.35023 93.1427C4.49038 91.3606 6.01058 90.4226 14.1816 86.8583C38.0297 76.3529 45.1557 72.132 51.4265 64.8158C53.4217 62.4708 54.9419 61.4391 55.512 62.0019C55.9871 62.4708 57.9823 62.846 59.9776 62.846ZM74.5145 67.4421C72.8042 68.9429 62.3529 74.1956 61.9728 73.7266C61.0227 72.7886 63.7781 69.4119 65.3933 69.4119C66.3434 69.4119 68.6237 68.7553 70.3339 68.0049C74.0394 66.5042 75.8446 66.2228 74.5145 67.4421Z" fill="white"/>
</svg>
