<svg width="159" height="108" viewBox="0 0 159 108" fill="none" xmlns="http://www.w3.org/2000/svg">
<path d="M79.0841 1.0603C78.039 1.62309 76.5188 2.37347 75.7587 2.74866C73.8585 3.59284 73.2884 7.43855 75.0936 7.43855C75.8537 7.43855 76.9939 6.78197 77.659 6.03158C78.6091 4.90601 79.9393 4.71842 82.9796 5.1874C86.3051 5.65639 87.2552 5.4688 87.7303 4.24943C89.0604 0.685111 83.5497 -1.37844 79.0841 1.0603Z" fill="white"/>
<path d="M45.3547 3.40523C44.5946 3.78043 42.5043 4.9998 40.8891 6.31297C38.0388 8.37652 36.8986 8.56411 24.737 8.84551C15.6159 9.0331 10.2952 9.59589 7.34979 10.7215C4.97448 11.5656 2.31413 12.5036 1.36401 12.785C0.223862 13.1602 -0.2512 13.9106 0.12885 14.8486C0.413887 15.6927 1.45902 19.2571 2.50416 22.8214C5.9246 34.1709 8.39492 34.1709 5.63956 22.8214C3.92934 16.0679 3.83433 15.4114 5.35453 14.3796C7.72984 12.5974 12.4805 11.9408 25.4971 11.6594C34.9984 11.4718 38.0388 11.0967 40.6041 9.68969C48.9652 4.9998 48.2051 5.09359 52.5757 7.43854C58.0864 10.2525 58.3714 11.6594 54.4759 15.8803C52.6707 17.8501 51.0555 20.195 50.7704 21.133C48.9652 27.7927 48.3001 32.3888 47.825 39.3298C47.255 48.053 45.2597 55.1816 42.5043 57.6204C40.8891 59.1211 40.7941 59.0273 40.129 56.3072C39.844 54.8064 38.9889 53.0243 38.2288 52.4615C36.4236 50.9607 14.9508 52.2739 14.9508 53.8684C14.9508 54.9002 18.0862 54.994 33.2882 54.2436C36.6136 54.056 36.9936 54.4312 37.6587 58.7459C38.2288 61.7475 38.6088 62.3103 40.6041 62.2165C41.9343 62.1227 43.7395 63.0606 44.9747 64.6552C46.2098 65.9684 48.8702 68.3133 50.9604 69.7203C53.0507 71.1272 54.951 73.0032 55.236 73.7536C55.616 74.5978 55.141 77.8807 54.2859 81.1636C53.1457 85.5721 53.0507 87.5419 53.9058 88.9488C55.331 91.7628 57.5163 91.3876 59.4165 88.0108C62.742 82.0078 62.742 82.0078 66.0674 84.8217C68.3477 86.6977 69.1078 88.1046 69.1078 90.5434C69.1078 92.7945 69.5829 93.7325 70.533 93.7325C71.4831 93.7325 71.9582 92.7945 71.9582 91.0124C71.9582 86.3225 70.343 83.7899 66.1624 81.7264C61.2218 79.2877 59.0365 80.1318 58.0864 84.8217C57.8013 86.6039 57.1362 88.1046 56.6612 88.1046C55.521 88.1046 55.616 86.6039 57.1362 80.7884C58.9415 74.035 57.8963 71.3148 51.4355 66.5312C48.5851 64.4676 46.3048 62.1227 46.3048 61.2785C46.3048 58.3707 49.1552 59.0273 54.3809 63.1544C60.5567 68.2195 62.647 67.9381 64.4522 61.8413C65.1173 59.7777 65.9724 58.0893 66.5425 58.0893C67.0175 58.0893 67.1125 59.0273 66.8275 60.1529C66.4475 61.3723 65.9724 64.3738 65.6874 67.0001C65.2123 70.9396 65.4973 72.0652 67.1125 73.7536C69.9629 76.7551 72.0532 76.4737 75.7587 72.628C79.6542 68.6885 80.8893 68.5009 83.0746 71.8776C83.9297 73.3784 85.4499 75.3481 86.305 76.3799C87.2552 77.4117 89.2504 81.445 90.8656 85.2907C92.3858 89.1364 94.2861 92.4193 94.9511 92.6069C95.7112 92.7007 98.8466 91.2 101.887 89.2302C105.022 87.2605 110.058 84.5403 113.099 83.0396C117.374 81.0698 119.274 79.3814 121.175 76.2861C124.215 71.4086 125.165 71.1272 125.165 75.1606C125.07 80.507 122.22 84.9155 116.329 88.7612C107.968 94.1077 109.298 95.7961 118.039 90.9186C123.075 88.1046 125.925 84.0713 127.635 77.4117C127.92 76.0047 128.395 75.0667 128.586 75.2543C128.871 75.4419 127.92 79.9442 126.495 85.1969C125.165 90.4496 124.31 95.0457 124.595 95.3271C125.83 96.5464 127.255 93.7325 128.681 87.917C131.436 75.9109 131.246 76.3799 132.766 78.2559C134.286 80.038 134.191 88.1984 132.576 89.1364C132.006 89.5116 131.531 91.3876 131.436 93.2635C131.341 97.7658 133.431 98.7976 133.906 94.4829C134.191 91.669 134.476 91.3876 137.517 91.1062C143.978 90.6372 145.308 90.0744 144.928 87.8232C144.738 86.1349 143.882 85.6659 140.367 85.2907C135.426 84.7279 135.046 83.0396 139.797 82.6644C145.688 82.1016 146.923 77.7869 141.127 77.7869C139.607 77.7869 137.232 76.9427 135.901 75.9109C134.571 74.8792 133.146 74.3164 132.671 74.5978C132.196 74.8792 131.816 74.5978 131.816 74.1288C131.816 73.566 132.671 73.097 133.621 73.097C134.951 73.097 135.426 72.5342 135.331 71.1272C135.236 69.5327 134.761 69.2513 132.291 69.7203C130.771 70.0955 129.346 70.7521 129.156 71.221C128.586 72.8156 127.065 72.2528 127.065 70.3769C127.065 68.7823 128.11 68.5009 136.852 67.9381C142.172 67.5629 149.013 67.2815 152.054 67.1877L157.469 67.0939V60.6219L146.353 61.1847C140.177 61.5599 132.766 62.2165 129.916 62.7792C127.065 63.342 121.175 64.0924 116.804 64.5614C108.253 65.4056 107.588 65.687 108.348 67.9381C108.823 68.9699 110.438 69.3451 115.189 69.3451C118.609 69.3451 121.365 69.7203 121.365 70.2831C121.365 71.8776 118.039 76.7551 115.569 78.5373C114.334 79.569 111.293 81.1636 108.823 82.2892C106.353 83.321 102.932 85.2907 101.222 86.6039C96.6614 89.9806 95.6162 89.8868 94.2861 86.2287C93.2409 83.1334 93.3359 82.6644 96.4713 78.3497C98.2766 75.7233 100.842 71.4086 102.077 68.6885C104.927 62.4978 104.547 60.1529 98.9417 51.0545C95.0462 44.6763 93.811 41.2995 95.5212 41.1119C98.7516 40.9243 109.013 41.2057 115.284 41.7685C124.215 42.5189 124.975 42.2375 130.296 35.2965C138.467 24.6973 137.517 23.1966 124.595 27.1361C114.049 30.419 102.077 32.7639 95.9963 32.7639C90.9606 32.7639 90.8656 31.9198 94.3811 22.1648C95.7112 18.5067 96.7564 14.2858 96.8514 12.785C96.9464 9.68969 94.2861 6.50056 91.4357 6.50056C88.4903 6.50056 86.305 9.3145 84.4998 15.4114L82.8846 20.7578L75.2836 14.7548C66.3524 7.62613 64.8322 6.96955 61.9819 8.75171C60.1766 9.97108 59.7966 9.87728 58.8465 8.28272C57.5163 6.21917 50.8654 2.74865 48.4901 2.84245C47.54 2.84245 46.1148 3.12384 45.3547 3.40523ZM93.621 10.9091C94.1911 12.0346 93.811 14.8486 92.1958 19.6323C88.8704 29.95 88.3953 34.4523 90.5806 35.2965C92.4808 36.0469 110.913 34.1709 115.189 32.7639C125.64 29.3872 131.056 27.9803 131.531 28.4492C131.816 28.7306 130.771 30.5128 129.156 32.4825C122.695 40.174 123.835 39.6112 115.284 38.9546C103.502 37.9228 94.8561 38.1104 93.2409 39.3298C90.9606 41.2995 91.7207 45.0515 96.0913 51.8987C98.4666 55.5568 100.557 59.6839 100.937 60.9971C101.602 63.7172 97.9915 72.7218 95.4262 74.8792C93.906 76.0047 93.811 75.3481 93.811 65.8746C93.811 57.9018 93.3359 54.2436 91.8157 49.5538C87.2551 35.9531 84.7848 34.6399 78.7991 42.7065C77.0888 44.9577 75.2836 46.8336 74.7135 46.8336C72.7183 46.8336 72.6233 43.5507 74.6185 40.174C78.704 33.2329 76.4237 25.9167 69.2028 21.9772C67.8726 21.2268 65.3073 19.3509 63.5971 17.8501C60.9367 15.5989 60.5567 14.8486 61.4118 13.254C63.312 9.68969 65.0223 10.2525 73.3834 16.9121C77.8489 20.4764 81.7444 23.3842 81.9345 23.3842C84.0247 23.3842 85.5449 21.3206 86.7801 16.9121C87.6352 14.0044 88.7754 11.0967 89.2504 10.4401C90.6756 8.84551 92.6709 9.0331 93.621 10.9091ZM63.217 21.0392C66.1624 23.3842 69.7729 26.1043 71.2931 27.2299C74.5235 29.6686 74.8085 34.8275 71.8632 39.705C69.2028 44.2073 69.7729 47.8654 73.3834 48.991C75.9487 49.8351 76.4237 49.6475 80.2242 45.3328C83.7397 41.3933 84.4998 41.0181 85.6399 42.1437C89.4404 46.2708 92.1958 60.9971 91.0556 71.69L90.4856 77.3179L87.7302 73.097C82.5045 65.3118 80.1292 64.749 74.6185 70.0017C71.008 73.4722 71.008 73.4722 69.1078 71.69C67.3976 69.9079 67.3026 69.5327 68.7278 64.3738C70.2479 58.4645 69.4878 55.2754 66.3524 55.2754C64.0721 55.2754 62.837 56.87 61.9819 60.6219C61.6968 62.3103 60.9367 63.7172 60.4617 63.7172C59.9866 63.7172 57.2313 61.8413 54.2859 59.4963C51.4355 57.1514 48.6801 55.2754 48.3001 55.2754C47.825 55.2754 48.0151 53.3057 48.7752 50.8669C49.5353 48.4282 50.3904 42.8941 50.6754 38.4856C51.4355 28.8244 53.3358 20.9454 55.426 18.5067C56.3761 17.5687 57.2313 16.8183 57.4213 16.8183C57.6113 16.8183 60.1766 18.6943 63.217 21.0392ZM136.091 88.1046C136.377 88.5736 136.186 89.0426 135.711 89.0426C135.141 89.0426 134.666 88.5736 134.666 88.1046C134.666 87.5419 134.856 87.1667 135.046 87.1667C135.331 87.1667 135.806 87.5419 136.091 88.1046Z" fill="white"/>
<path d="M30.153 15.693C28.0627 16.3496 27.3026 17.8504 27.3026 21.5085C27.3026 25.7294 28.7278 27.1363 32.7183 27.1363C36.8038 27.1363 36.9938 29.6689 33.0033 31.0758C29.7729 32.1076 28.9178 34.3588 29.3929 39.8928C29.5829 42.8944 30.153 43.6447 32.2432 44.3951C36.1387 45.8021 42.1245 43.6447 43.9297 40.268C46.7801 34.8278 45.0699 17.7566 41.4594 15.7868C39.6542 14.8488 32.9083 14.8488 30.153 15.693ZM41.4594 21.2271C42.8846 26.2922 42.6946 37.5479 41.1744 39.5176C39.4642 41.7688 34.3335 42.7068 32.5283 41.206C29.8679 39.0487 30.818 35.7657 34.8086 33.327C37.1839 31.8262 38.609 30.1379 38.9891 28.3557C39.6542 24.6976 39.1791 24.3224 34.3335 24.3224C30.343 24.3224 30.153 24.2286 30.153 21.6961C30.153 18.1317 30.628 17.7566 35.9487 17.7566C40.4143 17.7566 40.5093 17.8504 41.4594 21.2271Z" fill="white"/>
<path d="M9.63011 20.6636C8.58497 22.352 10.2002 35.2023 12.1004 39.9859L13.8106 44.4882H23.977L24.262 41.1115C24.6421 37.172 22.7418 34.8271 18.6563 33.9829C15.0458 33.3263 15.1408 32.2945 19.0363 31.2627C21.6017 30.5124 22.1717 29.8558 22.3618 27.2294C22.5518 25.5411 21.9817 23.1961 21.1266 21.883C19.8914 20.007 18.8463 19.6318 14.9508 19.6318C12.3855 19.6318 10.0102 20.1008 9.63011 20.6636ZM19.5114 25.9163C19.7964 28.7302 19.6064 29.0116 17.3261 29.0116C15.9959 29.0116 14.6658 29.6682 14.3807 30.4186C13.3356 33.0449 12.5755 31.8255 12.2905 27.0418L12.0054 22.352L15.6159 22.6334C18.9413 22.9147 19.2263 23.1961 19.5114 25.9163ZM18.4662 36.5154C19.9864 36.5154 22.5518 39.2356 22.5518 40.8301C22.5518 42.9875 15.2358 42.6123 14.0007 40.3611C12.2904 37.172 12.7655 35.2961 15.2358 35.9526C16.376 36.234 17.8012 36.5154 18.4662 36.5154Z" fill="white"/>
<path d="M141.317 70.1892C141.317 70.6582 140.557 71.221 139.702 71.5024C138.752 71.69 141.982 71.8776 146.828 71.7838C151.769 71.69 155.949 72.0652 156.234 72.5342C156.519 73.0032 156.804 78.0683 156.804 83.8837C156.709 89.6992 157.089 94.9519 157.564 95.7022C158.515 97.203 158.8 73.1908 157.85 70.8458C157.374 69.6265 155.664 69.3451 149.298 69.3451C144.928 69.3451 141.317 69.7203 141.317 70.1892Z" fill="white"/>
<path d="M142.742 73.9418C143.027 74.4108 142.457 75.0674 141.602 75.2549C140.652 75.5363 142.172 75.7239 145.023 75.8177L150.153 75.9115L149.393 80.789C148.918 83.5092 148.348 88.1052 148.063 90.9192C147.588 95.0463 147.113 96.2657 145.213 97.1098C143.027 98.2354 143.027 98.2354 144.928 99.2672C147.968 100.862 150.818 97.3912 150.818 91.951C150.818 89.6998 151.293 85.1037 151.864 81.8208C153.194 74.4108 152.339 73.0976 146.353 73.0976C144.073 73.0976 142.362 73.4728 142.742 73.9418Z" fill="white"/>
<path d="M15.6159 74.6919C14.3808 75.8175 14.9508 76.8493 16.8511 76.8493C18.5613 76.8493 18.6563 77.1307 17.7062 78.9128C15.901 82.1957 18.7513 83.4151 28.4426 83.4151C36.4236 83.4151 36.9937 83.6027 39.274 85.9476C40.7942 87.5422 41.5543 89.3244 41.3643 90.8251C41.0792 92.9825 40.6042 93.2639 36.6136 93.5453C33.1932 93.7329 32.0531 94.2018 32.0531 95.3274C32.0531 96.5468 32.9082 96.7344 36.8037 96.3592C42.4094 95.7964 44.4047 94.3894 44.4047 91.0127C44.4047 87.8236 41.1742 82.6647 38.4189 81.6329C36.3286 80.7888 36.3286 80.7888 38.9889 79.757C42.1244 78.5376 41.9343 76.943 38.6089 75.2547C36.2336 74.0353 16.7561 73.5663 15.6159 74.6919ZM36.6136 78.9128C36.3286 79.5694 35.3785 80.1322 34.4284 80.1322C33.4782 80.1322 32.5281 79.5694 32.3381 78.9128C32.0531 78.2562 32.8132 77.7872 34.4284 77.7872C36.0436 77.7872 36.8037 78.2562 36.6136 78.9128ZM29.2027 81.5391C30.4378 82.2895 30.4378 82.4771 29.0127 82.4771C28.1575 82.4771 27.1124 82.0081 26.8274 81.5391C26.0673 80.3198 27.3024 80.3198 29.2027 81.5391Z" fill="white"/>
<path d="M78.7991 84.5404C77.374 86.3226 74.8086 91.669 74.8086 92.7946C74.8086 95.1396 77.3739 93.3574 78.8941 89.9807C79.7493 87.9171 81.0794 86.2288 81.8395 86.2288C82.5996 86.2288 84.4049 87.7295 85.83 89.5117C89.1555 93.9202 91.6258 94.014 89.4405 89.6993C86.6852 84.259 81.2695 81.6327 78.7991 84.5404Z" fill="white"/>
<path d="M15.426 85.291C14.5709 86.698 16.8512 87.3546 21.8868 87.3546C28.1576 87.3546 30.1529 87.9173 30.1529 89.6057C30.1529 90.6375 28.6327 90.9189 23.122 90.9189H16.1861L16.0911 99.3607C15.9961 106.489 16.1861 107.615 17.4212 107.146C18.1813 106.864 18.6564 106.114 18.4664 105.458C18.1813 104.895 18.4664 104.332 19.0365 104.332C19.7015 104.332 22.932 102.925 26.3524 101.424L32.5282 98.5165L25.1172 98.4227C20.4616 98.4227 17.8963 98.0475 18.2764 97.4847C18.5614 96.9219 19.7015 96.5467 20.7467 96.5467C21.6968 96.5467 22.5519 96.0777 22.5519 95.6088C22.5519 95.046 24.2621 94.6708 26.2574 94.6708C28.4427 94.6708 30.628 94.0142 31.4831 93.17C33.2883 91.3879 33.4783 87.7297 31.8631 86.4166C30.3429 85.291 16.0911 84.2592 15.426 85.291Z" fill="white"/>
<path d="M154.619 100.861C153.289 101.517 151.484 102.268 150.533 102.549C148.253 103.299 149.393 104.988 152.149 104.988C154.904 104.988 157.754 102.924 157.374 101.142C157.089 99.9227 156.614 99.9227 154.619 100.861Z" fill="white"/>
</svg>
