<svg width="106" height="122" viewBox="0 0 106 122" fill="none" xmlns="http://www.w3.org/2000/svg">
<path d="M78.2902 4.64844C77.7201 9.24453 77.6251 9.33833 73.1595 10.3701C67.7438 11.6833 62.7081 14.591 62.7081 16.3732C62.7081 17.1235 64.2283 18.5305 66.0336 19.3747C69.074 20.7817 69.644 20.7817 73.3495 19.3747C75.4398 18.4367 78.1952 17.1235 79.2403 16.3732C81.9956 14.4972 88.2665 14.7786 91.9719 16.936C97.5777 20.3127 95.2024 22.47 83.9909 24.0646C79.5253 24.7212 75.2498 25.7529 74.4897 26.4095C72.3044 28.1917 72.8745 30.9118 75.8198 32.0374C78.9552 33.2568 81.2355 32.7878 93.5871 29.0359C98.8128 27.4413 103.658 25.9405 104.324 25.7529C105.654 25.3778 105.844 18.1553 104.609 14.7786C103.753 12.5275 90.0717 2.86628 85.1311 0.990324C80.0004 -0.885632 78.9552 -0.322845 78.2902 4.64844ZM88.3615 5.77401C89.6916 6.80579 93.0171 8.86934 95.8674 10.5577C100.903 13.4654 103.563 17.2173 103.563 21.532C103.563 23.408 102.803 23.7832 96.9126 24.9088L93.5871 25.5653L95.7724 23.3142C96.9126 22.0948 97.8627 20.4065 97.8627 19.6561C97.8627 18.0615 94.7273 14.9662 91.4969 13.2778C87.6964 11.3081 81.4256 12.0585 75.7248 15.1538C70.6892 17.7801 66.5086 18.2491 66.5086 16.0918C66.5086 15.1538 70.2141 13.653 74.5847 12.7151C78.7652 11.7771 80.7605 9.61972 80.7605 5.96161C80.7605 3.05388 80.9505 2.86628 83.4208 3.42907C84.846 3.71046 87.0313 4.83603 88.3615 5.77401ZM88.3615 27.7227C85.036 29.5049 78.0051 30.5366 76.77 29.3173C75.6298 28.1917 81.8056 26.5971 87.4113 26.4095H90.7368L88.3615 27.7227Z" fill="white"/>
<path d="M39.5252 5.68001C35.7248 6.80559 30.9741 11.6831 28.9789 16.2792C26.7936 21.6256 25.5584 24.0644 21.853 29.7861C18.7176 34.7573 16.7223 41.9798 17.7674 44.6999C18.1475 45.8255 19.3826 46.1069 23.1831 45.8255C28.0288 45.5441 30.4041 46.2945 30.4041 47.9828C30.4041 48.4518 29.644 48.827 28.6938 48.827C27.7437 48.827 26.1285 49.4836 24.9884 50.234C22.328 52.1099 11.1166 71.9951 11.7817 73.7772C12.5418 75.6532 13.9669 75.3718 15.2021 73.2144C15.7722 72.1827 17.1023 71.3385 18.1475 71.3385C19.1926 71.3385 20.9028 70.8695 21.948 70.4005C23.6582 69.4625 23.7532 69.6501 23.1831 73.1206C22.328 78.2795 23.6582 90.4732 25.1784 92.6306C26.2235 93.9437 26.8886 94.1313 28.2188 93.2872C29.549 92.443 30.119 92.6306 30.9741 94.2251C31.7342 95.8197 31.6392 96.7577 30.214 98.8212C27.6487 102.386 28.3138 105.293 32.1143 106.888C34.8696 108.107 35.1547 108.67 35.1547 112.141C35.1547 114.298 35.8198 116.83 36.5799 117.862C37.34 118.8 38.0051 119.175 38.0051 118.519C38.0051 117.956 38.3851 116.361 38.9552 114.954C39.7153 112.985 40.1903 112.703 41.7105 113.454C42.6607 114.016 46.1761 115.048 49.5015 115.705C52.827 116.455 57.4826 117.675 59.8579 118.519C67.1738 120.958 72.0195 121.802 73.1596 120.676C75.2499 118.613 75.1549 118.519 62.4232 115.33C59.9529 114.767 57.7676 113.923 57.4826 113.547C57.0075 112.703 65.2736 113.36 71.7344 114.579L76.485 115.517L80.4756 111.015C84.6561 106.137 85.9863 102.855 84.086 101.354C82.6608 100.228 81.8057 101.166 79.3354 106.794L77.6252 110.827L69.4541 110.265C64.9886 109.889 58.1477 108.858 54.3472 107.826C50.5467 106.888 45.226 106.044 42.3756 106.044C39.0502 106.044 36.8649 105.575 36.1048 104.637C35.4397 103.886 34.2996 103.23 33.6345 103.23C31.6392 103.23 31.9243 102.573 35.6297 98.0708C37.53 95.8197 40.6654 90.098 42.6607 85.2206C48.7414 70.7757 51.1168 65.7106 52.1619 65.7106C52.6369 65.7106 53.9671 67.6804 55.1073 70.1191C56.2474 72.6516 57.5776 75.3718 58.0527 76.216C59.2878 78.6547 59.3828 78.5609 53.6821 80.2493C48.4564 81.75 48.4564 81.75 48.4564 85.5019C48.4564 88.6911 48.8365 89.3477 51.1168 90.1918C59.8579 93.6624 68.789 93.7562 73.7297 90.567C75.6299 89.3477 76.01 88.3159 76.01 84.1888C76.01 81.281 75.4399 78.4671 74.5848 77.3415C73.8247 76.4036 73.1596 74.6214 73.1596 73.4958C73.1596 72.2765 72.1145 68.5245 70.7843 65.1478C69.4541 61.6773 68.504 58.7696 68.599 58.6758C68.789 58.6758 70.0242 58.113 71.4494 57.4564C75.3449 55.8618 77.3401 52.2975 76.01 49.5774C74.2047 46.2945 71.0693 44.1371 67.7439 44.1371C66.1287 44.1371 64.4185 43.6681 64.1334 43.1991C63.7534 42.6363 65.2736 38.9782 67.4589 35.1325C70.1192 30.255 71.0693 27.6287 70.4993 27.0659C68.694 25.2838 64.1334 27.3473 59.7629 31.9434C55.6773 36.2581 55.3923 36.3519 54.5372 34.4759C54.0621 33.3504 51.4018 31.2868 48.5514 29.8799C45.701 28.4729 43.3257 27.1597 43.1357 26.9721C42.9457 26.8783 43.5158 22.376 44.2759 17.0295C46.1761 4.46064 45.8911 3.80406 39.5252 5.68001ZM41.4255 18.1551C40.5704 23.1264 40.1903 27.8163 40.4754 28.5667C40.7604 29.3171 42.5656 30.4426 44.4659 31.0992C50.3567 32.9752 51.9719 34.4759 51.4968 37.4775C51.2118 39.2596 51.5918 40.2914 52.6369 40.6666C55.0123 41.6046 56.5325 40.5728 59.7629 36.0705C62.6132 32.2248 66.5087 29.1295 66.5087 30.724C66.5087 31.0992 65.1786 33.538 63.6584 36.1643C62.1382 38.6968 60.808 41.6046 60.808 42.4488C60.808 44.5123 64.4185 46.9511 67.4589 46.9511C68.8841 46.9511 70.9743 47.9828 72.2095 49.296C74.3948 51.5471 74.3948 51.6409 72.6845 53.5169C71.7344 54.5487 69.7392 55.3929 68.219 55.3929C64.4185 55.3929 64.1334 56.9874 66.8888 63.0843C68.219 65.8982 69.5491 69.9315 69.9292 71.9013C70.3092 73.9648 71.1644 76.6849 71.8294 78.0919C72.5895 79.4989 73.1596 82.3128 73.1596 84.4702C73.1596 87.7531 72.7796 88.4097 70.5943 89.3477C66.9838 90.7546 60.1429 90.567 55.5823 89.0663C52.5419 88.0345 51.7818 87.2841 51.7818 85.4081C51.7818 83.4384 52.3519 82.9694 55.7724 82.3128C61.9482 81.0935 62.3282 79.3113 58.5277 71.0571C56.8175 67.2114 54.8222 63.7409 54.2522 63.3657C52.2569 62.1463 48.9315 63.7409 47.7913 66.3672C40.4754 84.0012 38.9552 86.8151 37.34 86.5337C36.3898 86.3461 35.4397 85.9709 35.2497 85.7833C35.0597 85.5957 36.6749 80.9058 38.8602 75.4656C41.0454 69.9315 42.7557 64.3036 42.5656 62.9905C42.2806 60.7393 41.9006 60.5517 38.2901 60.6455C34.4896 60.7393 34.2996 60.5517 34.7746 58.4882C35.4397 56.0494 32.4943 44.4185 31.0692 43.4805C30.5941 43.1991 27.8387 43.0115 25.0834 43.1053L20.0477 43.1991L20.6178 39.7286C20.9028 37.7589 22.9931 33.1628 25.2734 29.4109C27.6487 25.7527 30.024 21.2504 30.5941 19.5621C32.1143 14.966 35.9148 10.3699 39.3352 8.96294C40.9504 8.21255 42.3756 8.02496 42.5656 8.49395C42.7557 8.86914 42.1856 13.2776 41.4255 18.1551ZM28.5038 53.7983C28.5038 53.9859 27.5537 54.9239 26.5086 55.9556C24.4183 57.7378 24.4183 57.7378 25.5584 55.5804C26.5086 53.8921 28.5038 52.6727 28.5038 53.7983ZM30.7841 58.3944C29.834 61.5835 27.6487 65.523 26.6036 66.1796C26.0335 66.5548 24.3233 67.1176 22.8031 67.5866C18.4325 68.8059 19.1926 66.3672 24.8934 61.0207C30.4041 55.8618 31.8293 55.2053 30.7841 58.3944ZM38.4801 68.7121C35.8198 76.8725 32.0193 84.8454 29.929 86.5337C28.1238 88.0345 28.0288 87.9407 27.3637 84.1888C26.0335 76.0284 26.4136 73.5896 29.739 69.2749C32.7794 65.3354 39.1452 61.3021 39.7153 62.9905C39.9053 63.4595 39.3352 66.0858 38.4801 68.7121ZM35.9148 91.2236C35.3447 92.912 33.2544 93.1934 33.2544 91.5988C33.2544 90.7546 33.9195 90.098 34.7746 90.098C35.6297 90.098 36.1048 90.567 35.9148 91.2236Z" fill="white"/>
<path d="M0 55.2048C0 55.6737 0.855111 56.7993 1.90025 57.7373C2.94538 58.6753 3.80049 59.8946 3.80049 60.4574C3.80049 61.0202 4.18054 62.052 4.6556 62.8024C5.4157 63.9279 5.79575 63.9279 7.03091 62.99C9.2162 61.2078 8.93116 57.6435 6.46084 55.9551C4.18054 54.3606 0 53.8916 0 55.2048Z" fill="white"/>
</svg>
