<svg width="102" height="80" viewBox="0 0 102 80" fill="none" xmlns="http://www.w3.org/2000/svg">
<path d="M96.2827 1.2224C96.0927 1.87899 96.9478 4.50533 98.2779 7.03787L100.748 11.7278L100.368 7.22546C100.083 4.78672 100.273 2.53557 100.748 2.25418C101.223 1.97279 101.603 1.41 101.603 0.847212C101.603 -0.465957 96.8528 -0.184564 96.2827 1.2224Z" fill="white"/>
<path d="M80.9855 8.632C79.3703 10.6018 75.4748 18.7622 72.7194 25.8908C69.8691 33.3946 63.5983 42.3992 58.6576 46.1511L55.3322 48.6837L55.8072 55.2495C55.9973 58.8138 55.9023 64.0665 55.6172 66.8804C55.0471 71.2889 54.5721 72.1331 52.5768 72.6021C51.1516 72.9773 50.2965 73.9153 50.2965 75.0408C50.2965 77.1982 50.4866 77.1982 55.2372 75.9788C58.8476 74.947 60.2728 72.7897 59.2277 70.0696C58.9427 69.2254 59.1327 67.8184 59.7028 66.8804C60.5579 65.4735 60.6529 65.6611 60.7479 68.1936C60.7479 70.4447 61.793 72.3207 64.9284 75.6974C67.3037 78.1362 69.489 79.8245 69.9641 79.3555C70.3441 78.8866 70.1541 78.3238 69.584 78.1362C68.1588 77.6672 67.9688 75.1346 69.299 73.1649C70.0591 71.9455 70.3441 72.0393 71.5793 73.6339C72.9095 75.2284 73.1945 75.3222 74.0496 74.1029C74.5247 73.3525 74.9997 70.3509 74.9997 67.537C74.9997 60.9712 75.7598 58.1572 77.5651 58.1572C78.5152 58.1572 78.8002 58.72 78.3252 59.7518C77.185 62.7533 76.1399 69.413 76.9 69.413C77.9451 69.413 82.6007 60.4084 82.6007 58.251C82.6007 57.0317 81.5556 55.8123 79.8454 54.8743C77.09 53.4673 74.0496 53.7487 74.0496 55.4371C74.0496 55.9061 73.6696 56.2813 73.0995 56.2813C72.6244 56.2813 72.1494 55.6247 72.1494 54.8743C72.1494 53.0922 68.8239 49.7154 67.0187 49.7154C64.6434 49.7154 61.603 52.9984 60.7479 56.2813C60.0828 59.189 59.9878 58.9076 59.8928 53.7487C59.7978 48.7775 60.0828 47.7457 61.888 46.5263C64.9284 44.369 68.1588 44.6504 71.3893 47.4643C75.2848 50.5596 83.3608 54.5929 84.501 53.9363C86.6863 52.6232 85.1661 50.5596 80.5104 48.2147C77.7551 46.8077 74.2396 44.7442 72.8145 43.5248C71.2943 42.3054 69.489 41.2736 68.7289 41.2736C66.8287 41.2736 67.0187 40.7108 70.1541 36.7713C71.6743 34.8954 73.7646 30.9559 74.8097 28.1419C78.0401 19.4187 82.6007 10.3204 83.6459 10.3204C84.406 10.3204 90.2017 21.5761 90.2017 23.0769C90.2017 23.2645 88.3965 23.8272 86.2112 24.4838C80.7955 25.8908 79.7504 26.8288 79.7504 30.5807C79.7504 33.3008 80.2254 33.9574 83.0758 35.083C87.2563 36.8651 92.862 37.4279 93.1471 36.1148C93.3371 35.2706 92.292 34.8016 85.4511 32.9256C84.0259 32.5504 82.9808 31.5187 82.7907 30.2993C82.5057 28.6109 83.2658 28.0481 86.9713 27.0164C93.6221 25.1404 93.9072 24.1086 89.6316 15.4792C85.8311 7.88162 83.2658 5.81807 80.9855 8.632ZM68.3489 56.2813C68.3489 58.6262 65.4035 64.7231 64.2633 64.7231C63.0282 64.7231 64.1683 56.3751 65.5935 54.7805C66.9237 53.186 68.3489 53.9363 68.3489 56.2813ZM70.6292 66.0363C70.0591 68.3812 68.3489 69.5068 68.3489 67.4432C68.3489 66.0362 70.3441 62.5657 70.8192 63.1285C71.1042 63.4099 71.0092 64.6293 70.6292 66.0363Z" fill="white"/>
<path d="M50.1068 52.8106C47.6365 55.0617 47.0664 56.9377 44.5961 70.7259C43.1709 78.9801 43.2659 79.9181 45.7362 79.5429C47.3514 79.3553 47.9215 78.605 48.1115 76.4476C48.4916 70.9135 50.4868 60.4082 51.912 55.9997C52.6721 53.4672 53.1472 51.3098 52.9572 51.0284C52.6721 50.8408 51.437 51.5912 50.1068 52.8106Z" fill="white"/>
<path d="M36.4248 59.47C33.1944 61.7212 30.344 64.3475 29.9639 65.1917C28.1587 69.9754 30.629 72.3203 34.4295 69.4126C35.6647 68.3808 36.9949 67.818 37.2799 68.0994C37.5649 68.3808 36.9949 70.9133 36.0447 73.7273C34.5245 78.042 34.4295 78.9799 35.5697 79.3551C37.755 80.1993 38.42 79.2613 40.3203 73.1645L42.0305 67.4428L40.0352 65.3793L37.945 63.4095L40.4153 61.4398C42.0305 60.1266 42.7906 58.8134 42.5056 57.4065C42.2205 55.3429 41.9355 55.4367 36.4248 59.47Z" fill="white"/>
<path d="M0.320254 57.5947C-0.439845 59.6583 0.225242 63.1288 1.55541 63.5978C2.41052 63.7854 2.69556 62.7536 2.60055 60.1273C2.50554 56.2816 1.27038 55.0622 0.320254 57.5947Z" fill="white"/>
<path d="M4.88095 59.7515C4.78594 61.7213 4.59592 64.16 4.40589 65.098C4.02584 68.2871 6.49616 67.8181 7.06624 64.5352C8.11137 58.2508 8.01636 56.8438 6.59118 56.5624C5.45103 56.281 5.07098 57.1252 4.88095 59.7515Z" fill="white"/>
<path d="M18.2775 58.3448C15.2371 61.6277 14.192 64.2541 14.192 68.1936C14.192 71.9455 15.5222 74.1028 17.8024 74.1028C18.7526 74.1028 18.9426 73.1649 18.4675 70.0695C17.8975 66.6928 18.2775 65.5672 20.7478 61.9091C22.363 59.5642 23.6932 57.4068 23.6932 56.9378C23.6932 55.4371 20.0827 56.3751 18.2775 58.3448Z" fill="white"/>
<path d="M24.3584 64.5355C22.3632 73.5401 22.3632 74.6656 24.2634 75.416C26.1637 76.1664 25.8786 76.6354 27.3988 69.8819C29.7742 58.4386 29.8692 57.2192 27.7789 57.2192C26.2587 57.2192 25.6886 58.4386 24.3584 64.5355Z" fill="white"/>
</svg>
