<svg width="243" height="80" viewBox="0 0 243 80" fill="none" xmlns="http://www.w3.org/2000/svg">
<path d="M152.981 28.549C152.292 29.8963 152.686 33.1299 153.769 35.0162C154.36 36.0043 155.838 37.8906 156.97 39.0583C159.482 41.5733 159.088 42.5614 155.69 42.3817C154.409 42.2919 153.08 42.2919 152.784 42.2919C151.75 42.4715 152.046 45.795 153.228 47.2322C154.606 49.0286 156.576 49.0286 160.221 47.322L163.127 45.9747L165.294 49.0286C166.476 50.7353 168.101 53.6994 168.889 55.7654C170.514 59.7176 170.908 60.0769 171.794 58.1906C172.779 56.1247 171.253 51.0946 168.446 47.0525C167.067 45.0764 165.688 43.28 165.343 43.0105C164.85 42.6512 164.85 42.2919 165.392 41.5733C165.983 40.8547 166.032 40.226 165.54 38.4295C165.047 36.4534 164.752 36.1839 163.471 36.7229C162.339 37.0822 161.649 36.7229 160.861 35.4653C157.955 30.7945 153.769 27.1118 152.981 28.549ZM158.94 34.8366C161.501 38.0702 162.437 38.8786 163.57 38.4295C165.047 37.8906 165.589 39.9565 164.21 40.9446C163.028 41.753 163.324 43.1003 165.097 44.7171C167.805 47.322 170.268 51.4539 170.81 54.3282C171.499 57.8313 171.007 58.7295 169.923 55.8552C168.298 51.364 166.229 47.5915 164.456 45.9747C162.831 44.4477 162.437 44.4477 160.713 45.5255C158.103 47.2322 154.409 47.2322 153.622 45.5255C153.277 44.807 153.08 44.1782 153.178 44.0884C153.277 44.0884 154.902 43.9087 156.773 43.7291C160.91 43.3698 161.797 42.2021 159.581 39.9565C155.591 36.0043 153.622 33.3096 153.622 32.0521C153.622 29.6268 155.641 30.6149 158.94 34.8366Z" fill="white"/>
<path d="M64.2777 18.3349C63.2368 21.0079 63.1377 21.0079 58.6767 21.0079C53.8191 21.0079 52.233 22.0771 52.5799 25.1066C52.6791 26.354 53.1747 26.7995 54.4635 26.8886C55.4052 26.9777 56.9418 27.0668 57.834 27.1559L59.4697 27.245L57.7845 30.3636C56.4462 32.8585 55.7026 33.4822 54.2652 33.4822C52.7782 33.4822 52.3321 33.1258 52.1338 31.7001C51.7373 28.938 50.746 30.0963 50.746 33.3931C50.746 36.868 49.2094 38.2046 48.1685 35.6206C46.8302 32.3238 46.8797 30.0072 48.4163 24.7502C50.0025 19.4041 49.9529 18.0676 48.1685 17.0874C47.3258 16.5528 46.731 17.3547 44.9466 21.5425C43.0631 25.9085 42.3196 26.8886 38.8499 29.3835C35.5785 31.7001 34.835 32.5911 34.7359 34.3732C34.5376 36.7789 35.7272 38.8283 37.4125 38.8283H38.5525L37.1151 44.3526C35.4794 50.5897 35.2315 54.5993 36.4211 55.4903C37.6107 56.2922 39.3952 52.55 41.6257 44.5308C42.7657 40.343 43.8562 36.7789 44.104 36.5116C44.3518 36.2443 44.3023 37.0462 44.0049 38.2937C43.5092 40.0757 43.5588 40.9667 44.2527 42.8379C45.0953 45.0654 47.1771 45.9564 47.7719 44.1744C47.9702 43.5507 48.3668 43.5507 49.0111 44.1744C50.0025 45.1545 51.4895 44.5308 51.4895 43.1943C51.4895 42.7488 51.0929 42.3924 50.5477 42.3924C50.052 42.3924 49.3581 41.7686 49.0111 41.0558C48.5155 39.9866 48.565 39.6302 49.259 39.1847C49.7546 38.8283 50.5477 39.0065 51.0434 39.5411C52.3817 41.0558 52.9269 40.8776 54.0174 38.561L55.0087 36.6007L54.7113 38.561C54.4635 40.1648 54.6617 40.6994 55.6531 41.1449C56.347 41.4122 56.7931 42.0359 56.6444 42.4815C56.2974 43.5507 59.7671 43.4616 61.9976 42.3032C64.0794 41.3231 66.8056 37.5809 66.2604 36.5116C66.0126 36.1552 64.5255 36.5116 62.8898 37.3135C61.2541 38.2046 59.4202 38.8283 58.8254 38.8283H57.6853L58.9245 37.0462C59.6184 36.0661 60.6593 35.2642 61.2046 35.2642C61.7994 35.2642 62.7907 34.4623 63.4351 33.4822C64.5751 31.7892 64.5751 31.611 63.7325 30.4527C62.8403 29.2053 62.8403 29.1162 63.9803 27.8688C64.5751 27.1559 65.5665 26.2649 66.1117 25.9976C67.0039 25.5521 67.1526 24.6611 67.2022 20.5624C67.2517 16.2855 67.1526 15.6618 66.3595 15.6618C65.8143 15.6618 64.9221 16.8201 64.2777 18.3349ZM66.3595 19.4041C66.31 21.3643 57.6853 37.3135 56.9418 36.868C56.4957 36.6007 57.834 33.4822 60.9567 27.4232C65.5665 18.5131 66.3595 17.2656 66.3595 19.4041ZM48.5155 19.7605C48.5155 20.6515 45.3927 30.2745 44.6988 31.5219C43.3605 34.0168 41.7248 38.4719 41.0804 41.5013C40.1882 45.6891 37.6107 53.0846 37.1151 53.0846C36.0742 53.0846 38.2055 44.5308 40.8822 37.7591C41.7744 35.4424 42.3692 33.3931 42.1709 33.2149C41.6752 32.6803 39.7421 34.0168 39.3456 35.1751C38.949 36.3334 36.2724 36.5116 35.9255 35.3533C35.4794 34.195 36.5203 33.1258 40.4856 30.3636C43.7075 28.2252 44.3023 27.4232 45.6901 23.5919C47.0284 19.8496 48.5155 17.8893 48.5155 19.7605ZM60.808 23.5919C61.2541 24.0374 60.3124 24.4829 58.3793 24.8393C54.86 25.3739 52.6791 24.4829 55.4548 23.5919C58.0819 22.7008 60.0645 22.7008 60.808 23.5919ZM47.0284 38.8283C47.0284 42.6597 46.4336 43.9071 45.591 42.0359C45.0458 40.8776 45.244 37.1353 45.8884 34.9969C46.3841 33.4822 47.0284 35.6206 47.0284 38.8283Z" fill="white"/>
<path d="M129.417 0.678784C128.37 2.14367 127.978 4.87384 127.778 11.7633C127.668 15.6588 127.409 18.7646 127.038 19.782C126.74 20.6357 126.546 22.1539 126.634 23.2154C127.016 27.9833 125.655 37.4936 124.467 37.9703C123.141 38.5761 122.909 44.6372 124.198 45.3299C124.907 45.7108 126.427 42.7757 127.612 38.7484C128.112 36.9891 128.616 35.5362 128.745 35.6055C129.369 36.0424 129.377 38.2771 128.678 42.0594C127.972 46.0401 127.98 46.6527 128.821 49.0314C129.308 50.4086 129.75 52.4716 129.774 53.4984C129.818 56.0569 131.731 57.1864 132.718 55.1822C133.311 53.9796 133.423 54.4457 133.824 59.1231C134.085 62.0012 134.189 65.91 134.063 67.7692C133.917 70.5301 134.01 71.0868 134.819 71.0149C135.524 71.0896 135.81 71.7502 135.962 73.6574C136.095 75.6551 136.413 76.333 137.182 76.4423L138.249 76.509L137.392 75.3383C136.554 74.077 136.298 70.6941 136.943 69.4183C137.193 68.9442 137.632 69.0788 138.022 69.5929C138.566 70.392 139.021 70.1297 140.286 68.1734C141.165 66.8204 142.052 65.2689 142.269 64.7775C142.817 63.4498 143.246 69.4603 142.762 71.6337C142.238 73.9883 142.938 75.3788 143.934 73.9872C144.949 72.505 145.039 70.3221 144.275 64.8417L143.7 60.7809L141.24 60.168C139.677 59.7337 138.525 58.9118 138.074 57.8583C137.591 56.7875 137.237 56.597 137.031 57.1963C136.846 57.705 136.584 58.0713 136.455 58.002C136.036 57.7769 136.591 50.2668 137.058 49.3013C137.901 47.6247 138.375 48.8939 137.976 51.8225C137.431 55.8898 138.248 57.2417 141.373 57.2993C143.283 57.3115 144.088 56.9333 144.395 55.8812C144.774 54.6653 144.577 54.2551 143.224 53.5278C141.452 52.5754 140.521 54.0017 142.22 55.1179C142.909 55.5894 142.623 55.7399 141.298 55.5346C139.396 55.324 138.845 54.7233 139.687 53.8577C139.961 53.5994 140.61 52.6299 141.154 51.8069C142.105 50.2901 142.165 50.0184 141.985 48.4002C141.876 47.4293 141.438 46.4837 141.019 46.2586C140.439 45.9469 140.387 45.209 140.79 42.5867C141.4 38.5541 140.861 35.628 139.689 36.5189C139.213 36.8718 138.282 38.298 137.585 39.6471L136.295 42.1987L137.965 35.998C140.986 24.5407 141.006 24.4502 139.649 23.4165C139.013 22.8717 138.344 21.4986 138.212 20.3119C137.882 17.904 137.677 17.6922 136.505 18.5831C135.775 19.1037 135.695 18.6549 135.901 15.6224C136.217 11.1275 135.658 9.91421 134.352 12.0516C133.82 12.9825 133.195 14.1678 133.01 14.6765C132.34 16.5476 131.21 11.5798 131.453 8.05989C131.874 1.79643 130.989 -1.51854 129.417 0.678784ZM130.458 8.64046C130.215 12.1604 130.404 13.5801 131.301 16.1919C132.629 19.9478 133.495 20.109 133.931 16.6929C134.456 12.7162 135.137 13.3862 134.837 17.4841C134.627 20.2103 134.719 21.5781 135.138 21.8032C135.879 22.2015 135.899 22.111 134.4 25.7666C133.738 27.4393 133.089 29.2199 132.988 29.6727C132.827 30.3972 134.464 36.6515 134.851 36.8593C134.915 36.894 135.303 35.4796 135.686 33.759C136.513 30.046 136.917 24.9904 136.648 22.3108C136.468 20.6926 136.508 20.5115 136.927 20.7366C137.217 20.8925 137.422 21.9153 137.425 23.0327C137.453 24.3659 137.795 25.2596 138.504 25.6405L139.535 26.1947L137.426 34.6941C135.558 42.1067 135.288 43.4825 135.46 45.2991C135.701 48.2677 136.084 48.1692 136.77 45.0901C137.556 41.5582 139.696 37.9426 139.986 39.7206C140.122 40.4025 140.114 41.412 140.013 41.8648C139.892 42.4082 139.719 42.2137 139.57 41.4239C139.237 39.5207 138.523 40.4556 137.737 43.9875C137.374 45.6176 136.704 47.4887 136.265 48.1652C135.846 48.7512 135.439 49.445 135.378 49.7167C135.237 50.3506 135.368 56.4037 135.616 61.6071C135.988 69.0067 135.365 66.9476 134.86 59.1725C134.595 55.177 134.177 51.7076 133.887 51.5518C133.63 51.4132 132.965 51.9685 132.421 52.7915C131.26 54.6013 130.95 54.536 130.814 52.232C130.738 51.2784 130.448 49.5004 130.122 48.2099L129.539 45.9697L130.824 47.1671C131.947 48.278 132.201 48.1102 132.926 46.4721C134.168 43.489 134.443 39.9864 133.687 36.7407C132.774 32.9036 132.528 32.873 131.947 36.6166C131.693 38.4066 130.938 41.1447 130.217 43.0891C128.886 46.6329 128.77 45.8604 129.839 40.2496C130.299 37.8604 130.291 36.4367 129.797 34.4469C129.085 31.3264 128.618 31.4808 127.791 35.1938C127.145 38.0918 125.19 42.8208 124.739 42.5784C124.191 42.284 124.389 41.0721 125.304 39.2316C126.106 37.7361 126.4 36.5761 127.006 32.2371C127.418 29.4164 127.693 25.9138 127.621 24.4554C127.549 22.9971 127.695 21.0473 127.961 20.1763C128.239 19.4132 128.591 15.242 128.781 10.9843C128.972 6.72649 129.276 2.93486 129.473 2.534C130.243 1.02115 130.733 4.32675 130.458 8.64046ZM135.595 29.1469C135.304 32.2353 135.01 32.5842 134.511 30.2881C134.318 29.3732 134.411 28.3077 134.794 27.3981C135.588 25.29 135.894 25.86 135.595 29.1469ZM132.581 44.4611C132.339 45.5478 131.199 45.6449 131.066 44.4582C131.03 44.1346 131.312 42.8668 131.691 41.6509C132.304 39.5467 132.337 39.564 132.594 41.3247C132.767 42.3302 132.742 43.7366 132.581 44.4611ZM138.763 45.0464C138.759 45.5511 138.594 45.9693 138.433 45.8827C138.24 45.7788 138.179 45.2394 138.28 44.7866C138.401 44.2433 138.546 43.9156 138.611 43.9503C138.707 44.0022 138.788 44.4511 138.763 45.0464ZM140.131 51.8654C140.126 52.3701 139.897 52.7537 139.639 52.6151C139.349 52.4593 139.224 51.8853 139.325 51.4325C139.446 50.8891 139.656 50.5961 139.817 50.6827C140.01 50.7866 140.155 51.2701 140.131 51.8654ZM137.275 64.5266C136.391 69.6287 136.351 67.3766 137.199 61.9509C137.542 59.6003 137.796 58.6214 137.868 59.2687C137.929 59.8081 137.65 62.1933 137.275 64.5266ZM141.915 63.776C141.488 64.5603 140.662 65.8401 139.981 66.7923L138.84 68.5116L139.465 66.5152C140.009 64.8812 139.985 64.6654 139.429 65.3805C138.486 66.6989 137.528 65.981 137.891 64.3509C138.072 63.5358 138.516 63.1656 139.031 63.4427C139.482 63.6851 139.853 63.4788 139.845 62.8661C139.869 62.2708 140.208 62.0471 140.659 62.2895C141.11 62.532 141.662 62.3216 141.859 61.9207C142.109 61.4466 142.375 61.3867 142.455 61.8356C142.588 62.2112 142.375 63.0089 141.915 63.776ZM144.16 70.8641C143.994 72.9044 143.934 73.1761 143.58 72.9856C143.418 72.899 143.407 71.9801 143.532 70.9319C143.823 68.6546 144.334 68.6253 144.16 70.8641Z" fill="white"/>
<path d="M104.27 9.66372C103.841 10.4926 103.912 27.4009 104.377 28.1192C104.52 28.3402 104.842 28.1192 105.092 27.6219C105.485 26.793 105.736 26.7378 106.772 27.2351C110.312 29.0033 112.278 31.7108 111.849 34.2526C111.599 35.7445 112.278 35.855 113.243 34.5289C113.815 33.7 113.887 33.7 113.887 34.5289C113.887 35.2472 113.315 37.8442 112.957 38.6731C112.886 38.8941 109.418 35.2472 108.453 33.9763C107.058 32.0976 106.808 35.1919 108.059 39.0046C108.488 40.2202 108.524 41.7121 108.345 45.7458L108.095 50.9399L105.485 47.3482C104.055 45.359 102.804 43.7566 102.661 43.7566C102.518 43.7566 102.482 45.3038 102.625 47.1825C102.84 50.4426 102.768 50.9951 101.41 55.8576C100.588 58.731 99.6583 61.6043 99.3008 62.2121C98.9433 62.8751 98.3355 64.0908 97.978 65.0301C97.6205 65.9142 96.2978 68.5112 95.0466 70.7215C93.1876 73.9816 92.8301 74.9209 93.1876 75.584C93.5093 76.2471 93.7953 76.0813 94.9751 74.6446C98.9433 69.7821 103.626 60.2229 104.627 54.9183C104.878 53.6474 105.199 52.5975 105.414 52.5975C106.629 52.5975 111.67 61.0517 116.246 70.7215C117.891 74.2579 119.035 76.1366 119.535 76.2471C119.964 76.3576 120.321 76.3023 120.321 76.0813C120.321 75.9155 119.821 73.4843 119.177 70.6662C118.212 66.4668 117.712 65.1406 116.21 62.7646C115.245 61.2175 114.173 59.7808 113.887 59.615C113.493 59.394 113.636 58.952 114.53 57.8469C115.924 56.0787 116.89 53.4264 116.639 51.9897C116.389 50.4978 116.818 50.7188 117.998 52.5975C118.57 53.4816 119.249 54.2552 119.499 54.2552C120.178 54.2552 120.071 50.4978 119.285 47.8455C118.749 45.9668 118.284 45.359 116.961 44.5854C115.46 43.7014 115.317 43.4251 115.46 42.1542C116.032 37.4574 116.067 36.076 115.531 34.1421L114.959 32.0976L116.818 28.506C118.177 25.909 118.82 25.0249 119.285 25.2459C120.25 25.7432 120.715 23.9197 120.143 21.9305C119.428 19.2782 118.355 18.1179 112.349 13.3659C106.808 9.00065 105.056 8.22707 104.27 9.66372ZM107.666 11.1004C107.845 11.4319 109.275 12.6475 110.848 13.8632C112.421 15.0788 113.458 16.1287 113.136 16.1287C112.564 16.1287 111.742 18.2836 111.742 19.7203C111.742 20.1623 112.242 20.8807 112.814 21.378C114.28 22.5383 114.173 22.8146 112.385 22.4278C110.955 22.1516 110.812 22.2068 110.204 23.8645C109.847 24.8038 109.632 25.9642 109.74 26.4063C110.061 27.7324 112.85 29.3901 113.601 28.7823C114.566 28.0087 117.462 21.7095 117.462 20.4939C117.462 18.8915 118.034 19.223 118.856 21.3227C119.749 23.533 119.785 23.8645 119.035 23.8645C118.427 23.8645 113.529 31.324 113.529 32.2081C113.529 33.2027 112.957 32.6502 112.385 31.0478C111.706 29.1691 109.847 27.2904 107.487 26.0747C106.629 25.6327 105.843 24.9143 105.736 24.5276C105.628 24.0303 105.843 23.975 106.558 24.417C107.809 25.1354 108.024 25.1354 108.667 24.0855C109.418 22.9251 109.382 22.5936 108.274 20.5491L107.309 18.7809L108.488 19.1677C109.346 19.444 109.811 19.2782 110.347 18.5599C111.563 16.847 110.991 14.471 109.346 14.471C108.381 14.471 106.737 13.3659 106.737 12.7028C106.737 12.4818 106.486 12.2607 106.2 12.2607C105.879 12.2607 105.664 12.8133 105.628 13.7527C105.593 14.6368 105.45 15.9076 105.307 16.6812C105.092 17.6758 105.021 17.068 104.985 14.3052L104.949 10.6031H106.129C106.772 10.6031 107.452 10.8241 107.666 11.1004ZM108.989 15.7971C109.561 16.0181 109.954 16.5155 109.954 17.0128C109.954 17.7863 109.668 17.8416 108.345 17.5653C106.272 17.068 105.914 18.1179 107.237 20.6044C108.488 22.8699 108.417 23.533 107.023 23.0909C106.415 22.9251 105.843 22.6489 105.736 22.5383C105.664 22.3726 105.807 20.5491 106.022 18.4494C106.451 14.8578 106.522 14.5815 107.237 15.0235C107.666 15.2998 108.417 15.6314 108.989 15.7971ZM115.138 18.5599C116.782 19.665 116.747 20.8807 114.959 24.3065C113.172 27.8429 113.064 27.9534 111.742 26.9036C110.562 25.9642 110.455 25.6327 111.134 24.2513C111.491 23.4224 111.742 23.3672 112.743 23.9197C113.779 24.4723 114.03 24.417 114.53 23.6435C115.102 22.7594 115.066 22.5936 113.922 21.1017C113.136 20.0518 112.778 19.223 112.921 18.6704C113.207 17.5653 113.565 17.5653 115.138 18.5599ZM114.602 41.7674C114.244 43.3146 114.316 43.5908 115.138 44.696C115.638 45.4143 116.353 45.9668 116.711 45.9668C117.533 45.9668 118.32 47.4035 118.82 49.669C119.285 51.8792 119.142 51.9345 117.748 50.0558C117.14 49.2822 116.425 48.7849 116.175 48.9507C115.889 49.1164 115.674 48.8954 115.674 48.5086C115.674 47.8455 115.138 46.6299 112.85 41.9884C111.92 40.165 111.92 40.0545 112.886 40.1097C113.493 40.165 113.779 39.6124 114.208 37.4022L114.78 34.6394L114.888 37.3469C114.959 38.7836 114.816 40.7728 114.602 41.7674ZM110.276 37.8995C110.562 38.452 110.598 38.7836 110.312 39.0599C110.133 39.2256 109.954 39.9439 109.954 40.607C109.918 41.6016 109.811 41.4911 109.239 39.8887C108.31 37.2917 108.31 35.7998 109.168 36.5181C109.525 36.7944 110.026 37.4574 110.276 37.8995ZM112.421 43.4803C113.064 45.138 113.815 46.7957 114.101 47.1272C115.138 48.4534 114.423 53.7027 113.207 53.7027C112.814 53.7027 112.385 53.9237 112.278 54.2552C111.92 55.1393 110.848 54.9183 110.204 53.8132C109.74 52.9843 109.704 52.7633 110.169 51.824C110.526 51.0504 110.669 49.1717 110.669 45.5801C110.669 42.762 110.776 40.4413 110.955 40.4413C111.098 40.4413 111.742 41.8227 112.421 43.4803ZM109.775 49.7795C109.597 51.2161 109.454 51.4924 109.203 50.8846C108.774 49.7795 108.81 47.4035 109.311 45.5801L109.74 44.0329L109.883 45.9116C109.954 46.9614 109.918 48.6744 109.775 49.7795ZM110.455 55.8576C111.241 56.576 111.491 56.5207 113.064 55.3051C114.351 54.2552 114.888 53.4264 115.209 51.9897L115.638 50.111V52.1002C115.674 54.4762 114.709 56.576 113.172 57.5706C112.6 57.9574 112.099 58.4547 112.099 58.6204C112.099 58.8415 113.172 60.4991 114.459 62.2673C116.711 65.3617 117.819 68.0139 118.391 71.8266C118.534 72.8212 117.891 71.7713 116.532 68.8428C112.028 59.173 107.166 51.4924 105.45 51.3267C104.627 51.2162 104.449 51.5477 103.698 54.642C102.59 59.4493 100.981 63.2619 98.264 67.7929C96.7268 70.2794 96.3336 70.7767 97.1201 69.1743C99.9085 63.5935 101.124 60.5544 102.161 56.797C103.662 51.1609 103.912 49.7795 103.662 47.9561C103.448 46.4641 103.734 46.7404 106.522 50.6636C108.202 53.0949 109.99 55.4156 110.455 55.8576Z" fill="white"/>
<path d="M0.439835 15.2783C-0.343441 16.6776 -0.245531 17.0274 2.1043 20.7879C4.20935 24.1987 4.79681 25.9478 6.02068 32.0696C6.85291 36.0051 8.17469 40.8151 8.95797 42.6517C10.7203 46.6746 10.5735 47.899 8.02782 50.9599C5.72695 53.671 4.99263 58.0437 6.26545 61.5419C7.44037 64.6903 9.20274 64.4279 10.4266 60.8423C10.9651 59.2681 11.9442 57.0817 12.6296 55.9448L13.9024 53.7584L15.5669 61.2796L18.2594 60.7548C20.9519 60.1426 22.959 58.481 20.9519 58.481C19.9728 58.481 16.3501 52.3592 16.3501 50.785C16.3501 50.3477 16.6439 49.4731 16.9865 48.9484C18.0146 47.4617 26.7285 44.5757 32.0646 43.876C39.4568 43.0889 38.2819 41.5148 29.519 40.4653C25.9942 40.028 23.5954 40.2904 20.0707 41.4273C15.8116 42.7391 15.2242 42.7391 14.1961 41.6022C13.5597 40.8151 11.6505 35.6553 9.93706 30.0582C8.22364 24.461 6.16754 18.7765 5.33531 17.3772C3.42608 14.0539 1.5658 13.2668 0.439835 15.2783ZM4.94367 19.3887C5.97172 21.4001 8.02782 26.9972 9.49647 31.8073C10.9162 36.6173 12.6785 41.6022 13.4618 42.8266L14.7836 45.1004L18.8958 43.5262C21.2946 42.5642 24.7214 41.952 27.365 41.952C31.624 42.0395 31.673 42.1269 29.0784 42.8266C20.5113 45.1879 18.8958 45.7126 17.7209 46.8495C16.9865 47.4617 16.1543 48.861 15.8116 49.823C15.371 51.3972 15.5179 52.0968 17.1334 55.1577C18.7 57.9563 18.8958 58.6559 18.3083 59.3556C16.9376 60.9297 16.2522 60.2301 15.5179 56.7319C14.3919 51.5721 13.0212 51.9219 10.4756 58.0437C8.76215 62.2416 8.37051 62.7663 7.53828 61.9792C6.85291 61.367 6.55918 60.1427 6.55918 58.0437C6.55918 55.595 6.95082 54.5455 8.76215 51.8344C11.4057 47.9864 11.5036 46.3248 9.3496 40.9026C8.46842 38.6287 7.19559 33.9062 6.55918 30.408C5.62904 25.423 4.84576 23.1492 3.27921 20.5256C0.978338 16.5901 0.733564 15.6281 2.1043 15.6281C2.59385 15.6281 3.86667 17.2897 4.94367 19.3887Z" fill="white"/>
<path d="M95.7558 25.7311L91.3149 34.3448L87.5085 29.816C83.1652 24.6655 80.1396 22.1791 79.7492 23.3335C79.4564 24.1327 83.0188 30.5264 86.0445 34.7C86.9717 36.0321 87.7525 37.3641 87.8013 37.6305C87.8013 37.8969 86.8741 39.2289 85.8005 40.5609C82.3844 44.5569 68.3299 48.553 68.8667 45.2674C68.9643 44.7346 70.4283 42.9585 72.0875 41.4489C77.7484 36.3873 77.114 34.9664 70.9651 38.8737C69.1107 40.1169 67.0611 41.0937 66.4267 41.0937C64.4259 41.0937 63.3034 42.7809 63.5963 45.1786C63.8891 47.221 63.8403 47.3098 61.0586 47.3098H58.2282L57.2034 43.4913C56.6178 41.4489 55.593 38.1633 54.9098 36.1209C53.7874 32.8352 53.7386 32.3024 54.4218 30.0824C54.7634 28.6616 55.105 26.9743 55.105 26.3527C55.105 25.0207 53.7386 24.6655 52.9089 25.8199C51.9817 26.9743 50.2249 31.5032 50.2249 32.7464C50.2249 33.368 51.9329 37.2753 54.0314 41.3601C56.081 45.445 58.1794 49.6186 58.6186 50.6842C59.1066 51.7498 60.0338 52.6378 60.6682 52.6378C61.3514 52.6378 62.4738 53.0818 63.2058 53.6147C63.9867 54.0587 66.5243 54.8579 68.9643 55.2131C75.6988 56.3675 80.53 53.9699 88.1429 45.5338L91.3637 41.8929L93.1205 44.6458C94.0965 46.0666 95.7558 48.1978 96.8294 49.1746C99.0742 51.3058 100.489 53.4371 100.489 54.5915C100.489 56.0123 94.4382 62.4948 91.7541 63.9156C90.2413 64.7148 88.2405 66.0468 87.2645 67.0236C86.0933 68.0892 85.0197 68.4444 83.9949 68.0892C82.1892 67.4676 81.6036 66.3132 81.3596 63.3828C81.1156 59.7419 80.2372 60.3635 79.3588 64.8036C78.1876 70.842 78.2852 74.2165 79.8468 77.5021C81.018 80.0774 81.3108 80.255 83.0676 79.8109C89.0213 78.0349 104.881 60.0083 104.881 55.0355C104.881 53.437 100.733 46.1554 97.5614 42.1593C96.0974 40.2945 94.8774 38.3409 94.8774 37.7193C94.8774 37.0977 96.2926 34.9664 98.0494 32.8352L101.221 29.0168L101.124 23.7775C101.075 20.9359 100.831 18.2718 100.636 17.9166C100.392 17.4726 98.1958 21.0247 95.7558 25.7311ZM100.489 25.5535C100.489 27.8624 100.05 28.7504 96.9758 32.48C90.9245 39.7617 90.4853 37.6305 95.951 27.596C99.855 20.4031 100.489 20.1367 100.489 25.5535ZM86.5325 30.4376C89.8509 34.3448 90.8269 36.6537 89.1677 36.6537C88.6309 36.6537 81.9452 27.1519 81.9452 26.4415C81.9452 25.3759 83.1164 26.3527 86.5325 30.4376ZM54.129 27.6848C54.129 28.2176 53.9338 28.8392 53.641 29.1056C52.7625 30.0824 53.1042 33.9008 54.4218 37.6305C55.105 39.6729 55.5442 41.4489 55.4466 41.6265C55.1538 42.2481 51.2009 33.812 51.2009 32.5688C51.2009 32.036 51.6401 30.5264 52.2257 29.1944C53.2506 26.8855 54.129 26.1751 54.129 27.6848ZM91.9493 37.5417C92.4861 39.0513 91.7053 40.3833 90.9245 39.2289C90.5341 38.6961 90.2413 37.8969 90.2413 37.4529C90.2413 36.3873 91.5589 36.4761 91.9493 37.5417ZM90.0949 40.7385C90.2901 41.8929 84.2877 48.109 79.7492 51.3946C76.7236 53.6147 75.7964 53.7923 71.1603 53.7035C67.9883 53.6147 65.2067 53.0818 63.9379 52.1938C62.7666 51.4834 61.3026 50.8618 60.6682 50.8618C59.3506 50.8618 58.7162 49.5298 59.6922 48.8194C60.2778 48.3754 65.4019 48.6418 66.6219 49.1746C66.8659 49.2634 67.4027 49.1746 67.7931 48.8194C68.1835 48.553 70.1843 48.109 72.1851 47.8426C77.2604 47.221 83.9461 44.9122 84.8245 43.4025C86.9229 39.9393 89.7045 38.5185 90.0949 40.7385ZM96.683 42.6033C98.0982 44.4681 100.294 47.8426 101.612 50.1514C103.613 53.6147 103.905 54.5027 103.466 55.9235C102.197 60.2747 93.4621 71.0196 87.6061 75.3709C82.9212 78.9229 81.3108 79.1005 80.286 76.4365C79.5052 74.3941 79.2612 69.066 79.798 66.402C80.0908 65.1588 80.286 65.2476 81.1644 67.29C82.0428 69.2436 82.6284 69.6876 84.4829 69.6876C85.7517 69.7764 87.0693 69.3324 87.4597 68.7996C87.8013 68.2668 89.8509 66.6684 91.9493 65.2476C96.195 62.4948 101.465 56.8115 101.465 55.0355C101.465 53.5259 99.1718 49.6186 97.2198 47.8426C94.5846 45.445 92.0469 40.9161 92.7789 40.1169C93.7549 38.9625 93.9013 39.0513 96.683 42.6033ZM68.4275 44.2017C67.7931 45.889 67.1587 46.333 66.0851 46.2442C63.9867 45.889 64.1819 43.4913 66.3291 42.7809C69.3547 41.8041 69.3547 41.8041 68.4275 44.2017Z" fill="white"/>
<path d="M166.361 16.6944C165.399 18.475 165.688 20.0775 166.939 20.0775C168.335 20.0775 168.479 20.4336 168.912 24.618L169.249 27.823L165.495 28.4462C161.115 29.1585 159.479 30.3158 156.88 34.5002C155.244 37.1711 155.003 38.0614 155.099 40.9103C155.196 42.6909 155.003 44.1153 154.714 44.1153C153.896 44.1153 154.185 47.3204 155.148 49.5461L156.062 51.6828L158.661 49.9913C163.377 46.9643 163.57 46.7862 163.041 45.8069C162.704 45.1837 161.549 45.6288 159.383 47.1423C156.784 48.9229 156.206 49.101 155.966 48.0326C155.821 47.2314 156.158 46.6082 157.025 46.252C157.746 45.8959 159.527 45.0947 160.971 44.4715C164.196 42.958 164.196 42.958 164.196 44.5605C164.196 45.2727 162.992 47.8546 161.5 50.2583C159.142 53.9976 158.805 54.9769 158.661 58.0929C158.516 62.4553 159.383 64.1469 161.404 63.4347C162.463 62.9895 163.041 63.4347 163.859 65.1262C165.254 67.7971 165.351 67.7971 157.217 65.8384C153.992 65.0372 151.008 64.6811 150.623 64.9482C149.565 65.6604 149.757 68.5093 151.008 70.646C152.019 72.4266 152.645 72.6047 157.891 72.6047C166.602 72.6047 170.549 71.0021 169.923 67.7081C169.827 67.1739 168.864 66.9068 167.757 66.9958C166.41 67.0849 165.784 66.8178 165.784 66.0165C165.784 65.3933 166.795 61.1199 167.998 56.6684C169.201 52.128 170.067 47.8546 169.923 47.1423C169.778 46.4301 169.105 45.8959 168.431 45.8959C167.709 45.8959 167.276 45.5398 167.42 45.0947C167.565 44.7385 169.442 44.1153 171.559 43.9373C174.736 43.5812 175.65 43.136 176.516 41.6225C177.479 39.7529 177.479 39.5749 176.709 36.6369C176.276 34.9453 175.361 32.8086 174.688 32.0074C173.966 31.1171 173.484 29.6926 173.484 28.4462C173.484 26.2205 171.944 20.7897 170.452 17.5847C169.393 15.448 167.276 15.0028 166.361 16.6944ZM169.393 18.2969C169.538 18.8311 169.345 18.9201 168.96 18.653C168.094 18.0298 167.95 17.4066 168.623 17.4066C168.912 17.4066 169.249 17.7627 169.393 18.2969ZM172.041 28.7133C172.041 30.3158 172.666 32.0964 173.966 34.3221C175.024 36.1027 175.891 38.1504 175.891 38.7736C175.891 39.3968 175.506 39.0407 175.073 38.0614C174.11 35.9247 169.008 32.6306 166.65 32.4525C165.784 32.3635 164.533 32.0074 163.859 31.6513C162.944 31.1171 163.426 30.939 165.639 30.85C169.923 30.761 170.115 30.4939 170.115 25.0631V20.5226L171.078 23.4606C171.607 25.0631 172.041 27.3779 172.041 28.7133ZM169.153 35.7466C174.736 38.0614 173.966 39.1297 166.024 40.02C163.907 40.2871 161.693 40.7322 161.115 41.0884C159.672 41.8006 159.623 39.8419 161.019 36.6369C162.222 33.877 164.147 33.6099 169.153 35.7466ZM158.757 37.1711C157.939 42.0677 157.554 43.3141 156.976 42.958C155.966 42.3348 156.014 39.5749 157.169 37.3491C158.516 34.6783 159.19 34.5892 158.757 37.1711ZM175.169 40.5542C175.313 40.9993 175.024 41.4445 174.495 41.4445C173.918 41.4445 173.484 40.9993 173.484 40.5542C173.484 40.02 173.773 39.6639 174.158 39.6639C174.543 39.6639 175.024 40.02 175.169 40.5542ZM167.372 50.4364C167.083 50.9706 166.361 51.1486 165.784 50.7925C164.773 50.1693 164.773 50.0803 165.591 48.4778C166.361 46.8752 166.506 46.8752 167.18 48.1216C167.709 49.101 167.757 49.7242 167.372 50.4364ZM165.062 53.1963C165.399 53.8195 165.062 53.9976 164.003 53.6415C162.607 53.1073 162.319 53.3744 161.645 55.7782C161.115 57.7368 161.067 58.8051 161.452 59.6954C161.837 60.4967 161.741 60.9418 161.164 61.387C160.201 62.0992 159.335 60.1406 160.008 58.8942C160.297 58.36 160.49 57.3807 160.49 56.6684C160.49 55.9562 160.971 54.4427 161.549 53.2853C162.607 51.2377 163.955 51.1486 165.062 53.1963ZM165.736 59.6064C165.206 61.9212 164.629 63.6127 164.484 63.3456C164.292 63.0785 164.677 61.0309 165.303 58.8051C166.746 53.6415 167.035 54.1756 165.736 59.6064ZM164.725 56.7575C164.484 58.1819 162.415 58.8942 162.415 57.6478C162.415 56.6684 163.233 55.8672 164.244 55.7782C164.629 55.6891 164.821 56.2233 164.725 56.7575ZM161.452 68.8654L166.024 69.4886L159.527 70.0228C153.319 70.468 151.827 70.1118 151.827 67.8861C151.827 67.3519 152.741 67.2629 154.377 67.619C155.725 67.9751 158.95 68.5093 161.452 68.8654Z" fill="white"/>
<path d="M203.202 27.208C202.184 29.8811 202.087 29.8811 197.728 29.8811C192.981 29.8811 191.431 30.9503 191.77 33.9797C191.867 35.2272 192.351 35.6727 193.61 35.7618C194.531 35.8509 196.032 35.94 196.904 36.0291L198.503 36.1182L196.856 39.2368C195.548 41.7316 194.821 42.3553 193.417 42.3553C191.963 42.3553 191.527 41.9989 191.334 40.5733C190.946 37.8111 189.977 38.9694 189.977 42.2662C189.977 45.7412 188.476 47.0777 187.458 44.4938C186.151 41.197 186.199 38.8803 187.701 33.6233C189.251 28.2772 189.202 26.9407 187.458 25.9606C186.635 25.426 186.054 26.2279 184.31 30.4157C182.469 34.7817 181.742 35.7618 178.352 38.2566C175.155 40.5733 174.428 41.4643 174.331 43.2463C174.137 45.6521 175.3 47.7014 176.947 47.7014H178.061L176.656 53.2257C175.058 59.4629 174.816 63.4724 175.978 64.3635C177.141 65.1654 178.885 61.4231 181.064 53.4039C182.178 49.2161 183.244 45.6521 183.486 45.3848C183.729 45.1175 183.68 45.9194 183.389 47.1668C182.905 48.9488 182.953 49.8399 183.632 51.711C184.455 53.9385 186.49 54.8296 187.071 53.0475C187.265 52.4238 187.652 52.4238 188.282 53.0475C189.251 54.0276 190.704 53.4039 190.704 52.0674C190.704 51.6219 190.316 51.2655 189.784 51.2655C189.299 51.2655 188.621 50.6418 188.282 49.929C187.798 48.8597 187.846 48.5033 188.524 48.0578C189.009 47.7014 189.784 47.8796 190.268 48.4142C191.576 49.929 192.109 49.7508 193.174 47.4341L194.143 45.4739L193.853 47.4341C193.61 49.0379 193.804 49.5726 194.773 50.0181C195.451 50.2854 195.887 50.9091 195.742 51.3546C195.403 52.4238 198.793 52.3347 200.973 51.1764C203.008 50.1963 205.672 46.454 205.139 45.3848C204.897 45.0284 203.444 45.3848 201.845 46.1867C200.247 47.0777 198.454 47.7014 197.873 47.7014H196.759L197.97 45.9194C198.648 44.9393 199.665 44.1373 200.198 44.1373C200.78 44.1373 201.748 43.3354 202.378 42.3553C203.492 40.6624 203.492 40.4842 202.669 39.3259C201.797 38.0784 201.797 37.9893 202.911 36.7419C203.492 36.0291 204.461 35.1381 204.994 34.8708C205.866 34.4253 206.011 33.5342 206.06 29.4355C206.108 25.1587 206.011 24.5349 205.236 24.5349C204.703 24.5349 203.831 25.6933 203.202 27.208ZM205.236 28.2772C205.188 30.2375 196.759 46.1867 196.032 45.7412C195.596 45.4739 196.904 42.3553 199.956 36.2964C204.461 27.3862 205.236 26.1388 205.236 28.2772ZM187.798 28.6336C187.798 29.5247 184.746 39.1476 184.068 40.3951C182.76 42.8899 181.161 47.345 180.531 50.3745C179.66 54.5623 177.141 61.9577 176.656 61.9577C175.639 61.9577 177.722 53.4039 180.338 46.6322C181.21 44.3156 181.791 42.2662 181.597 42.088C181.113 41.5534 179.224 42.8899 178.836 44.0482C178.449 45.2066 175.833 45.3848 175.494 44.2264C175.058 43.0681 176.075 41.9989 179.95 39.2368C183.099 37.0983 183.68 36.2964 185.036 32.465C186.344 28.7227 187.798 26.7625 187.798 28.6336ZM199.811 32.465C200.247 32.9105 199.326 33.356 197.437 33.7124C193.998 34.247 191.867 33.356 194.579 32.465C197.147 31.574 199.084 31.574 199.811 32.465ZM186.344 47.7014C186.344 51.5328 185.763 52.7802 184.94 50.9091C184.407 49.7508 184.6 46.0085 185.23 43.87C185.715 42.3553 186.344 44.4938 186.344 47.7014Z" fill="white"/>
<path d="M206.51 10.1179C205.726 11.5381 205.824 11.8931 208.174 15.7098C210.279 19.1715 210.867 20.9467 212.091 27.1599C212.923 31.1541 214.245 36.0359 215.028 37.8999C216.79 41.9828 216.643 43.2255 214.098 46.3321C211.797 49.0836 211.063 53.5217 212.335 57.0721C213.51 60.2674 215.273 60.0012 216.497 56.362C217.035 54.7643 218.014 52.5453 218.699 51.3914L219.972 49.1724L221.637 56.8058L224.329 56.2732C227.022 55.6519 229.029 53.9655 227.022 53.9655C226.043 53.9655 222.42 47.7522 222.42 46.1546C222.42 45.7108 222.714 44.8232 223.056 44.2906C224.085 42.7817 232.798 39.8526 238.135 39.1425C245.527 38.3437 244.352 36.746 235.589 35.6808C232.064 35.237 229.665 35.5033 226.141 36.6572C221.882 37.9886 221.294 37.9886 220.266 36.8347C219.63 36.0359 217.72 30.799 216.007 25.1184C214.294 19.4377 212.237 13.6683 211.405 12.2482C209.496 8.87526 207.636 8.07642 206.51 10.1179ZM211.014 14.2896C212.042 16.3311 214.098 22.0118 215.566 26.8936C216.986 31.7754 218.748 36.8347 219.532 38.0774L220.853 40.3851L224.966 38.7875C227.364 37.8111 230.791 37.1898 233.435 37.1898C237.694 37.2785 237.743 37.3673 235.148 38.0774C226.581 40.4739 224.966 41.0065 223.791 42.1603C223.056 42.7817 222.224 44.2018 221.882 45.1782C221.441 46.7759 221.588 47.486 223.203 50.5926C224.77 53.4329 224.966 54.143 224.378 54.8531C223.007 56.4507 222.322 55.7407 221.588 52.1902C220.462 46.9534 219.091 47.3084 216.545 53.5217C214.832 57.7821 214.44 58.3147 213.608 57.5159C212.923 56.8945 212.629 55.6519 212.629 53.5217C212.629 51.0364 213.021 49.9712 214.832 47.2197C217.476 43.3142 217.574 41.6278 215.42 36.1247C214.538 33.8169 213.265 29.0238 212.629 25.4734C211.699 20.4141 210.916 18.1063 209.349 15.4435C207.048 11.4493 206.803 10.4729 208.174 10.4729C208.664 10.4729 209.937 12.1594 211.014 14.2896Z" fill="white"/>
</svg>
